STARTFONT 2.1
FONT -FontForge-Rajdhani-Book-R-Normal--36-360-72-72-P-220-ISO10646-1
SIZE 36 72 72
FONTBOUNDINGBOX 88 44 -15 -12
COMMENT "Generated by fontforge, http://fontforge.sourceforge.net"
COMMENT "Copyright (c) 2014 Indian Type Foundry (info@indiantypefoundry.com)"
STARTPROPERTIES 40
FOUNDRY "FontForge"
FAMILY_NAME "Rajdhani"
WEIGHT_NAME "Book"
SLANT "R"
SETWIDTH_NAME "Normal"
ADD_STYLE_NAME ""
PIXEL_SIZE 36
POINT_SIZE 360
RESOLUTION_X 72
RESOLUTION_Y 72
SPACING "P"
AVERAGE_WIDTH 220
CHARSET_REGISTRY "ISO10646"
CHARSET_ENCODING "1"
FONTNAME_REGISTRY ""
CHARSET_COLLECTIONS "ISO8859-2 ISO8859-9 ISO8859-4 ISO10646-1"
FONT_NAME "Rajdhani-Regular"
FACE_NAME "Rajdhani Regular"
COPYRIGHT "Copyright (c) 2014 Indian Type Foundry (info@indiantypefoundry.com)"
FONT_VERSION "1.201;PS 1.0;hotconv 1.0.78;makeotf.lib2.5.61930; ttfautohint (v1.1) -l 7 -r 28 -G 50 -x 13 -D latn -f deva -w G"
FONT_ASCENT 29
FONT_DESCENT 7
UNDERLINE_POSITION -4
UNDERLINE_THICKNESS 2
X_HEIGHT 17
CAP_HEIGHT 22
DEFAULT_CHAR 3
RAW_ASCENT 800
RAW_DESCENT 200
NORM_SPACE 10
RELATIVE_WEIGHT 40
RELATIVE_SETWIDTH 50
SUPERSCRIPT_X 0
SUPERSCRIPT_Y 12
SUPERSCRIPT_SIZE 21
SUBSCRIPT_X 0
SUBSCRIPT_Y 2
SUBSCRIPT_SIZE 21
AVG_LOWERCASE_WIDTH 163
AVG_UPPERCASE_WIDTH 187
ENDPROPERTIES
CHARS 1043
STARTCHAR NULL.dup1
ENCODING 0
SWIDTH 0 0
DWIDTH 0 0
BBX 1 1 0 0
BITMAP
00
ENDCHAR
STARTCHAR CR
ENCODING 13
SWIDTH 0 0
DWIDTH 0 0
BBX 1 1 0 0
BITMAP
00
ENDCHAR
STARTCHAR space
ENCODING 32
SWIDTH 267 0
DWIDTH 10 0
BBX 1 1 0 0
BITMAP
00
ENDCHAR
STARTCHAR exclam
ENCODING 33
SWIDTH 237 0
DWIDTH 9 0
BBX 2 23 3 0
BITMAP
C0
C0
C0
C0
C0
C0
C0
C0
C0
C0
C0
C0
C0
40
40
00
00
00
C0
C0
C0
C0
C0
ENDCHAR
STARTCHAR quotedbl
ENCODING 34
SWIDTH 330 0
DWIDTH 12 0
BBX 8 7 2 16
BITMAP
C3
C3
C2
C2
42
42
42
ENDCHAR
STARTCHAR numbersign
ENCODING 35
SWIDTH 677 0
DWIDTH 24 0
BBX 20 23 2 0
BITMAP
00C040
00C0C0
0080C0
0180C0
018080
018180
3FFFF0
1FFFF0
030300
020300
060300
060200
060600
040600
0C0400
FFFFC0
FFFFC0
180C00
180800
181800
101800
301000
301000
ENDCHAR
STARTCHAR dollar
ENCODING 36
SWIDTH 504 0
DWIDTH 18 0
BBX 14 29 2 -3
BITMAP
0100
0100
0100
1FE0
3FF0
6018
6018
C00C
C00C
C008
C000
4000
6000
7000
3FE0
07F8
0018
000C
000C
000C
C00C
C00C
6008
6018
3FF0
1FE0
0100
0100
0100
ENDCHAR
STARTCHAR percent
ENCODING 37
SWIDTH 717 0
DWIDTH 26 0
BBX 22 23 2 0
BITMAP
3E0180
FF0300
C18300
818200
818600
818400
818C00
818800
C19800
7F1800
181000
003000
002000
0061F0
004718
00C60C
00C404
018404
018404
01040C
03060C
0207F8
0601F0
ENDCHAR
STARTCHAR ampersand
ENCODING 38
SWIDTH 597 0
DWIDTH 21 0
BBX 16 23 3 0
BITMAP
0FC0
1FF0
3030
3018
3018
3018
3018
3000
3000
1800
3C00
7E00
C7FF
C3FF
8180
80C0
80E0
8070
8038
C018
C03C
7FE6
3FC3
ENDCHAR
STARTCHAR quotesingle
ENCODING 39
SWIDTH 186 0
DWIDTH 7 0
BBX 2 7 2 16
BITMAP
C0
C0
40
40
40
40
40
ENDCHAR
STARTCHAR parenleft
ENCODING 40
SWIDTH 283 0
DWIDTH 10 0
BBX 6 27 2 -4
BITMAP
1C
78
60
C0
C0
C0
C0
C0
C0
C0
C0
C0
C0
C0
C0
C0
C0
C0
C0
C0
C0
C0
C0
C0
60
3C
04
ENDCHAR
STARTCHAR parenright
ENCODING 41
SWIDTH 283 0
DWIDTH 10 0
BBX 6 27 2 -4
BITMAP
E0
F0
18
0C
0C
0C
0C
0C
0C
0C
0C
0C
0C
0C
0C
0C
0C
0C
0C
0C
0C
0C
0C
08
18
F0
80
ENDCHAR
STARTCHAR asterisk
ENCODING 42
SWIDTH 406 0
DWIDTH 15 0
BBX 10 9 2 14
BITMAP
0400
0400
0400
E4C0
7F80
0400
1A00
1300
3180
ENDCHAR
STARTCHAR plus
ENCODING 43
SWIDTH 523 0
DWIDTH 19 0
BBX 13 14 3 4
BITMAP
0200
0200
0200
0200
0200
0200
FFF8
FFF8
0200
0200
0200
0200
0200
0200
ENDCHAR
STARTCHAR comma
ENCODING 44
SWIDTH 191 0
DWIDTH 7 0
BBX 2 9 2 -4
BITMAP
C0
C0
C0
C0
C0
C0
C0
80
80
ENDCHAR
STARTCHAR hyphen
ENCODING 45
SWIDTH 312 0
DWIDTH 11 0
BBX 9 2 1 11
BITMAP
7F00
FF80
ENDCHAR
STARTCHAR period
ENCODING 46
SWIDTH 191 0
DWIDTH 7 0
BBX 2 5 2 0
BITMAP
C0
C0
C0
C0
C0
ENDCHAR
STARTCHAR slash
ENCODING 47
SWIDTH 396 0
DWIDTH 14 0
BBX 10 23 2 0
BITMAP
00C0
00C0
0180
0180
0180
0300
0300
0300
0600
0600
0400
0C00
0C00
1800
1800
1800
3000
3000
3000
6000
6000
6000
C000
ENDCHAR
STARTCHAR zero
ENCODING 48
SWIDTH 514 0
DWIDTH 19 0
BBX 14 23 2 0
BITMAP
1FF0
3FF8
601C
400C
C00C
C00C
C00C
C00C
C00C
C00C
C00C
C00C
C00C
C00C
C00C
C00C
C00C
C00C
C00C
400C
601C
3FF8
1FE0
ENDCHAR
STARTCHAR one
ENCODING 49
SWIDTH 317 0
DWIDTH 11 0
BBX 7 23 1 0
BITMAP
06
1E
3A
E2
82
02
02
02
02
02
02
02
02
02
02
02
02
02
02
02
02
02
02
ENDCHAR
STARTCHAR two
ENCODING 50
SWIDTH 478 0
DWIDTH 17 0
BBX 13 23 2 0
BITMAP
1FC0
7FF0
6038
C018
C018
C018
C018
0018
0018
0030
0060
01C0
0380
0700
1C00
3800
7000
6000
C000
C000
C000
FFF8
FFF8
ENDCHAR
STARTCHAR three
ENCODING 51
SWIDTH 496 0
DWIDTH 18 0
BBX 13 23 2 0
BITMAP
1FE0
7FF0
6018
C018
C008
C008
C008
0008
0008
0018
0038
03E0
03F0
0018
0018
0008
C008
C008
C008
C018
6018
7FF0
1FE0
ENDCHAR
STARTCHAR four
ENCODING 52
SWIDTH 520 0
DWIDTH 19 0
BBX 16 23 2 0
BITMAP
0070
0070
00D0
0090
0190
0310
0310
0610
0610
0C10
1810
1810
3010
3010
6010
4010
C010
FFFF
FFFE
0010
0010
0010
0010
ENDCHAR
STARTCHAR five
ENCODING 53
SWIDTH 482 0
DWIDTH 17 0
BBX 13 23 2 0
BITMAP
FFF8
FFF8
C000
C000
C000
C000
C000
C000
C780
DFF0
E038
C018
0018
0008
0008
0008
C008
C008
C018
4018
6018
3FF0
1FE0
ENDCHAR
STARTCHAR six
ENCODING 54
SWIDTH 497 0
DWIDTH 18 0
BBX 14 23 2 0
BITMAP
1FF0
7FF0
6000
C000
C000
C000
C000
C000
C000
FF80
FFF0
C038
C018
C00C
C00C
C00C
C00C
C00C
C00C
C018
6018
7FF0
1FE0
ENDCHAR
STARTCHAR seven
ENCODING 55
SWIDTH 380 0
DWIDTH 14 0
BBX 12 23 1 0
BITMAP
FFF0
FFF0
0030
0060
0060
0060
00C0
00C0
0180
0180
0180
0300
0300
0700
0600
0600
0C00
0C00
0C00
1800
1800
3000
3000
ENDCHAR
STARTCHAR eight
ENCODING 56
SWIDTH 519 0
DWIDTH 19 0
BBX 14 23 2 0
BITMAP
1FF0
3FF8
600C
400C
C00C
C004
C004
C00C
C00C
600C
7018
3FF0
3FF8
600C
400C
C00C
C004
C004
C00C
C00C
600C
7FF8
1FF0
ENDCHAR
STARTCHAR nine
ENCODING 57
SWIDTH 497 0
DWIDTH 18 0
BBX 14 23 2 0
BITMAP
1FE0
7FF0
6018
C018
C008
C00C
C00C
C00C
C00C
C00C
C00C
600C
7FFC
1FFC
000C
000C
000C
000C
0008
0018
0018
7FF0
7FE0
ENDCHAR
STARTCHAR colon
ENCODING 58
SWIDTH 191 0
DWIDTH 7 0
BBX 2 18 2 0
BITMAP
C0
C0
C0
C0
C0
00
00
00
00
00
00
00
00
C0
C0
C0
C0
C0
ENDCHAR
STARTCHAR semicolon
ENCODING 59
SWIDTH 191 0
DWIDTH 7 0
BBX 2 22 2 -4
BITMAP
C0
C0
C0
C0
C0
00
00
00
00
00
00
00
00
C0
C0
C0
C0
C0
C0
C0
80
80
ENDCHAR
STARTCHAR less
ENCODING 60
SWIDTH 513 0
DWIDTH 18 0
BBX 14 12 2 5
BITMAP
000C
007C
03E0
0F00
7800
C000
7000
1E00
03C0
00F8
001C
0004
ENDCHAR
STARTCHAR equal
ENCODING 61
SWIDTH 531 0
DWIDTH 19 0
BBX 13 8 3 7
BITMAP
FFF8
FFF8
0000
0000
0000
0000
FFF8
FFF8
ENDCHAR
STARTCHAR greater
ENCODING 62
SWIDTH 531 0
DWIDTH 19 0
BBX 13 12 3 5
BITMAP
C000
F800
1F00
03C0
0078
0008
0078
01E0
0F00
7C00
E000
8000
ENDCHAR
STARTCHAR question
ENCODING 63
SWIDTH 473 0
DWIDTH 17 0
BBX 11 23 3 0
BITMAP
3F80
7FC0
C060
C060
8020
8020
8020
0060
00E0
01C0
0380
0600
0600
0600
0600
0400
0000
0000
0600
0600
0600
0600
0600
ENDCHAR
STARTCHAR at
ENCODING 64
SWIDTH 753 0
DWIDTH 27 0
BBX 21 24 3 -2
BITMAP
00FF00
07FFE0
1C0030
300018
600008
403E08
C1FF08
C30308
860308
860308
860308
860308
860308
860308
860308
860308
C30718
C3FBF0
40F3E0
600000
300000
180000
0FFF00
03FF00
ENDCHAR
STARTCHAR A
ENCODING 65
SWIDTH 533 0
DWIDTH 19 0
BBX 17 23 1 0
BITMAP
01C000
01C000
016000
036000
036000
023000
063000
063000
061800
0C1800
0C1800
0C0C00
180C00
180C00
180600
3FFE00
3FFE00
300600
600300
600300
600100
C00180
C00180
ENDCHAR
STARTCHAR B
ENCODING 66
SWIDTH 546 0
DWIDTH 20 0
BBX 14 23 3 0
BITMAP
FFE0
FFF8
C018
C00C
C00C
C00C
C00C
C00C
C00C
C018
FFF0
FFF0
C018
C00C
C00C
C00C
C00C
C00C
C00C
C00C
C00C
FFF8
FFE0
ENDCHAR
STARTCHAR C
ENCODING 67
SWIDTH 542 0
DWIDTH 20 0
BBX 14 23 3 0
BITMAP
3FF0
7FF8
C00C
C00C
C00C
C004
C004
C000
C000
C000
C000
C000
C000
C000
C000
C000
C004
C004
C00C
C00C
C00C
7FF8
3FF0
ENDCHAR
STARTCHAR D
ENCODING 68
SWIDTH 557 0
DWIDTH 20 0
BBX 14 23 3 0
BITMAP
FFF0
FFF8
C00C
C00C
C004
C004
C004
C004
C004
C004
C004
C004
C004
C004
C004
C004
C004
C004
C00C
C00C
C00C
FFF8
FFF0
ENDCHAR
STARTCHAR E
ENCODING 69
SWIDTH 481 0
DWIDTH 17 0
BBX 12 23 3 0
BITMAP
FFF0
FFF0
C000
C000
C000
C000
C000
C000
C000
C000
FFE0
FFE0
C000
C000
C000
C000
C000
C000
C000
C000
C000
FFF0
FFF0
ENDCHAR
STARTCHAR F
ENCODING 70
SWIDTH 459 0
DWIDTH 17 0
BBX 12 23 3 0
BITMAP
FFF0
FFF0
C000
C000
C000
C000
C000
C000
C000
C000
C000
FFE0
FFE0
C000
C000
C000
C000
C000
C000
C000
C000
C000
C000
ENDCHAR
STARTCHAR G
ENCODING 71
SWIDTH 539 0
DWIDTH 19 0
BBX 14 23 3 0
BITMAP
3FE0
7FF0
C018
C00C
C00C
C00C
C00C
C000
C000
C000
C000
C1F8
C1FC
C00C
C00C
C00C
C00C
C00C
C00C
C00C
C018
7FF8
3FE0
ENDCHAR
STARTCHAR H
ENCODING 72
SWIDTH 570 0
DWIDTH 21 0
BBX 14 23 3 0
BITMAP
C004
C004
C004
C004
C004
C004
C004
C004
C004
C004
FFFC
FFFC
C004
C004
C004
C004
C004
C004
C004
C004
C004
C004
C004
ENDCHAR
STARTCHAR I
ENCODING 73
SWIDTH 230 0
DWIDTH 8 0
BBX 2 23 3 0
BITMAP
C0
C0
C0
C0
C0
C0
C0
C0
C0
C0
C0
C0
C0
C0
C0
C0
C0
C0
C0
C0
C0
C0
C0
ENDCHAR
STARTCHAR J
ENCODING 74
SWIDTH 499 0
DWIDTH 18 0
BBX 14 23 1 0
BITMAP
000C
000C
000C
000C
000C
000C
000C
000C
000C
000C
000C
000C
000C
000C
000C
C00C
C00C
C00C
C00C
400C
601C
3FF8
1FE0
ENDCHAR
STARTCHAR K
ENCODING 75
SWIDTH 530 0
DWIDTH 19 0
BBX 15 23 3 0
BITMAP
C00C
C018
C030
C070
C060
C0C0
C180
C380
C300
C600
CE00
DF00
DB00
F180
E0C0
C0C0
C060
C030
C030
C018
C00C
C00C
C006
ENDCHAR
STARTCHAR L
ENCODING 76
SWIDTH 451 0
DWIDTH 16 0
BBX 12 23 3 0
BITMAP
C000
C000
C000
C000
C000
C000
C000
C000
C000
C000
C000
C000
C000
C000
C000
C000
C000
C000
C000
C000
C000
FFF0
FFF0
ENDCHAR
STARTCHAR M
ENCODING 77
SWIDTH 696 0
DWIDTH 25 0
BBX 19 23 3 0
BITMAP
E000E0
E000E0
F001E0
F001E0
D80160
D80360
C80360
CC0660
CC0660
C60C60
C60C60
C31860
C31860
C11060
C1B060
C0B060
C0E060
C0E060
C00060
C00060
C00060
C00060
C00060
ENDCHAR
STARTCHAR N
ENCODING 78
SWIDTH 579 0
DWIDTH 21 0
BBX 15 23 3 0
BITMAP
C006
E006
E006
F006
F006
D806
DC06
CC06
C606
C606
C306
C306
C186
C0C6
C0C6
C066
C066
C036
C01E
C01E
C00E
C00E
C006
ENDCHAR
STARTCHAR O
ENCODING 79
SWIDTH 553 0
DWIDTH 20 0
BBX 14 23 3 0
BITMAP
3FF0
7FF8
C01C
C00C
C00C
C00C
C00C
C00C
C00C
C00C
C00C
C00C
C00C
C00C
C00C
C00C
C00C
C00C
C00C
C00C
C00C
7FF8
3FF0
ENDCHAR
STARTCHAR P
ENCODING 80
SWIDTH 524 0
DWIDTH 19 0
BBX 14 23 3 0
BITMAP
FFE0
FFF8
C018
C00C
C00C
C00C
C00C
C00C
C00C
C00C
C00C
C018
C018
FFF0
FF80
C000
C000
C000
C000
C000
C000
C000
C000
ENDCHAR
STARTCHAR Q
ENCODING 81
SWIDTH 556 0
DWIDTH 20 0
BBX 14 28 3 -5
BITMAP
3FF0
7FF8
C00C
C00C
C00C
C00C
C00C
C00C
C00C
C00C
C00C
C00C
C00C
C00C
C00C
C00C
C00C
C00C
C00C
C00C
C00C
7FF8
3FF0
00C0
00C0
0060
0030
0030
ENDCHAR
STARTCHAR R
ENCODING 82
SWIDTH 534 0
DWIDTH 19 0
BBX 14 23 3 0
BITMAP
FFE0
FFF0
C018
C00C
C00C
C00C
C00C
C00C
C00C
C00C
C018
C038
FFF0
FFC0
C0C0
C060
C060
C030
C030
C018
C018
C00C
C00C
ENDCHAR
STARTCHAR S
ENCODING 83
SWIDTH 562 0
DWIDTH 20 0
BBX 14 23 3 0
BITMAP
1FF0
7FF8
E00C
C00C
C00C
C00C
C000
C000
C000
7000
3E00
0FE0
00F8
001C
000C
000C
C00C
C00C
C00C
C00C
E00C
7FF8
1FF0
ENDCHAR
STARTCHAR T
ENCODING 84
SWIDTH 420 0
DWIDTH 15 0
BBX 13 23 1 0
BITMAP
FFF8
FFF8
0200
0200
0200
0200
0200
0200
0200
0200
0200
0200
0200
0200
0200
0200
0200
0200
0200
0200
0200
0200
0200
ENDCHAR
STARTCHAR U
ENCODING 85
SWIDTH 552 0
DWIDTH 20 0
BBX 14 23 3 0
BITMAP
C00C
C00C
C00C
C00C
C00C
C00C
C00C
C00C
C00C
C00C
C00C
C00C
C00C
C00C
C00C
C00C
C00C
C00C
C00C
C00C
E018
7FF8
3FE0
ENDCHAR
STARTCHAR V
ENCODING 86
SWIDTH 500 0
DWIDTH 18 0
BBX 16 23 1 0
BITMAP
C003
C003
6006
6006
6006
2004
300C
300C
300C
1818
1818
1818
0810
0C30
0C30
0420
0660
0660
0660
03C0
03C0
03C0
0180
ENDCHAR
STARTCHAR W
ENCODING 87
SWIDTH 794 0
DWIDTH 29 0
BBX 26 23 1 0
BITMAP
C00C00C0
C00E00C0
600E00C0
601A00C0
601B00C0
60130180
20330180
30310180
30318180
30218300
30618300
10608300
1860C300
1840C300
18C04600
08C04600
0CC06600
0C806600
0D802400
0D803C00
05003C00
07003C00
07001C00
ENDCHAR
STARTCHAR X
ENCODING 88
SWIDTH 504 0
DWIDTH 18 0
BBX 16 23 1 0
BITMAP
6007
6006
300C
300C
1818
0C18
0C30
0660
0660
03C0
01C0
01C0
03C0
0660
0660
0C30
0C30
1818
180C
300C
6006
6006
C003
ENDCHAR
STARTCHAR Y
ENCODING 89
SWIDTH 493 0
DWIDTH 18 0
BBX 16 23 1 0
BITMAP
C003
E006
6006
700C
300C
3018
1818
1830
0C30
0C60
0660
06C0
03C0
0380
0180
0180
0180
0180
0180
0180
0180
0180
0180
ENDCHAR
STARTCHAR Z
ENCODING 90
SWIDTH 482 0
DWIDTH 17 0
BBX 14 23 2 0
BITMAP
FFF8
FFF8
0018
0038
0030
0060
00E0
00C0
0180
0180
0300
0700
0600
0C00
0C00
1800
3800
3000
6000
6000
C000
FFFC
FFFC
ENDCHAR
STARTCHAR bracketleft
ENCODING 91
SWIDTH 287 0
DWIDTH 10 0
BBX 6 27 2 -4
BITMAP
FC
FC
C0
C0
C0
C0
C0
C0
C0
C0
C0
C0
C0
C0
C0
C0
C0
C0
C0
C0
C0
C0
C0
C0
C0
FC
7C
ENDCHAR
STARTCHAR backslash
ENCODING 92
SWIDTH 396 0
DWIDTH 14 0
BBX 10 23 2 0
BITMAP
C000
4000
6000
6000
3000
3000
3000
1800
1800
1800
0C00
0C00
0400
0600
0600
0300
0300
0300
0180
0180
0180
00C0
00C0
ENDCHAR
STARTCHAR bracketright
ENCODING 93
SWIDTH 287 0
DWIDTH 10 0
BBX 6 27 2 -4
BITMAP
FC
FC
0C
0C
0C
0C
0C
0C
0C
0C
0C
0C
0C
0C
0C
0C
0C
0C
0C
0C
0C
0C
0C
0C
0C
FC
F8
ENDCHAR
STARTCHAR asciicircum
ENCODING 94
SWIDTH 465 0
DWIDTH 17 0
BBX 13 10 2 13
BITMAP
0700
0F00
0D80
1880
18C0
3060
3060
6030
4030
C018
ENDCHAR
STARTCHAR underscore
ENCODING 95
SWIDTH 372 0
DWIDTH 13 0
BBX 13 2 0 -3
BITMAP
FFF8
FFF8
ENDCHAR
STARTCHAR grave
ENCODING 96
SWIDTH 269 0
DWIDTH 10 0
BBX 5 4 2 21
BITMAP
E0
70
30
18
ENDCHAR
STARTCHAR a
ENCODING 97
SWIDTH 502 0
DWIDTH 18 0
BBX 13 18 2 0
BITMAP
1FF8
3FF8
6008
C008
C008
C008
C008
C008
C008
C008
C008
C008
C008
C008
C018
6018
3FE8
1FC8
ENDCHAR
STARTCHAR b
ENCODING 98
SWIDTH 504 0
DWIDTH 18 0
BBX 13 25 3 0
BITMAP
C000
C000
C000
C000
C000
C000
C000
DFC0
FFF0
C030
C018
C018
C018
C018
C018
C018
C018
C018
C018
C018
C018
C018
C030
FFF0
FFC0
ENDCHAR
STARTCHAR c
ENCODING 99
SWIDTH 394 0
DWIDTH 14 0
BBX 11 18 2 0
BITMAP
1FE0
3FE0
6000
C000
C000
C000
C000
C000
C000
C000
C000
C000
C000
C000
C000
6000
3FE0
1FE0
ENDCHAR
STARTCHAR d
ENCODING 100
SWIDTH 504 0
DWIDTH 18 0
BBX 13 25 2 0
BITMAP
0008
0008
0008
0008
0008
0008
0008
1FC8
3FE8
6018
C018
C008
C008
C008
C008
C008
C008
C008
C008
C008
C008
C018
6018
3FE8
1FC8
ENDCHAR
STARTCHAR e
ENCODING 101
SWIDTH 492 0
DWIDTH 18 0
BBX 14 18 2 0
BITMAP
1FE0
3FF0
6018
C008
C00C
C00C
C00C
C00C
FFFC
FFFC
C000
C000
C000
C000
C000
6000
3FF8
1FF8
ENDCHAR
STARTCHAR f
ENCODING 102
SWIDTH 303 0
DWIDTH 11 0
BBX 9 25 1 0
BITMAP
0780
0F80
0C00
1800
1800
1800
1800
FF80
7F80
1800
1800
1800
1800
1800
1800
1800
1800
1800
1800
1800
1800
1800
1800
1800
1800
ENDCHAR
STARTCHAR g
ENCODING 103
SWIDTH 506 0
DWIDTH 18 0
BBX 14 23 2 -5
BITMAP
1FFC
3FFC
600C
600C
C00C
C00C
C00C
C00C
C00C
C00C
C00C
C00C
C00C
601C
601C
3FEC
1FCC
000C
000C
0018
0018
3FF0
3FE0
ENDCHAR
STARTCHAR h
ENCODING 104
SWIDTH 507 0
DWIDTH 18 0
BBX 13 25 3 0
BITMAP
C000
C000
C000
C000
C000
C000
C000
DFC0
FFF0
C030
C018
C018
C018
C018
C018
C018
C018
C018
C018
C018
C018
C018
C018
C018
C018
ENDCHAR
STARTCHAR i
ENCODING 105
SWIDTH 210 0
DWIDTH 8 0
BBX 2 25 3 0
BITMAP
C0
C0
C0
C0
00
00
00
C0
C0
C0
C0
C0
C0
C0
C0
C0
C0
C0
C0
C0
C0
C0
C0
C0
C0
ENDCHAR
STARTCHAR j
ENCODING 106
SWIDTH 210 0
DWIDTH 8 0
BBX 7 30 -2 -5
BITMAP
06
06
06
06
00
00
00
06
06
06
06
06
06
06
06
06
06
06
06
06
06
06
06
06
06
06
06
0C
F8
F0
ENDCHAR
STARTCHAR k
ENCODING 107
SWIDTH 431 0
DWIDTH 16 0
BBX 12 25 3 0
BITMAP
C000
C000
C000
C000
C000
C000
C000
C060
C060
C0C0
C180
C180
C300
C600
C600
CC00
CC00
C600
C300
C300
C180
C0C0
C0E0
C060
C030
ENDCHAR
STARTCHAR l
ENCODING 108
SWIDTH 210 0
DWIDTH 8 0
BBX 2 25 3 0
BITMAP
C0
C0
C0
C0
C0
C0
C0
C0
C0
C0
C0
C0
C0
C0
C0
C0
C0
C0
C0
C0
C0
C0
C0
C0
C0
ENDCHAR
STARTCHAR m
ENCODING 109
SWIDTH 769 0
DWIDTH 28 0
BBX 22 18 3 0
BITMAP
DF83F0
FFEFF8
C0781C
C0300C
C0300C
C0300C
C0300C
C0300C
C0300C
C0300C
C0300C
C0300C
C0300C
C0300C
C0300C
C0300C
C0300C
C0300C
ENDCHAR
STARTCHAR n
ENCODING 110
SWIDTH 507 0
DWIDTH 18 0
BBX 13 18 3 0
BITMAP
DFC0
FFF0
C030
C018
C018
C018
C018
C018
C018
C018
C018
C018
C018
C018
C018
C018
C018
C018
ENDCHAR
STARTCHAR o
ENCODING 111
SWIDTH 496 0
DWIDTH 18 0
BBX 14 18 2 0
BITMAP
1FE0
3FF0
6018
C018
C00C
C00C
C00C
C00C
C00C
C00C
C00C
C00C
C00C
C00C
C018
6018
3FF0
1FE0
ENDCHAR
STARTCHAR p
ENCODING 112
SWIDTH 504 0
DWIDTH 18 0
BBX 13 23 3 -5
BITMAP
DFC0
FFF0
C030
C018
C018
C018
C018
C018
C018
C018
C018
C018
C018
C018
C018
C030
FFF0
DFC0
C000
C000
C000
C000
C000
ENDCHAR
STARTCHAR q
ENCODING 113
SWIDTH 502 0
DWIDTH 18 0
BBX 13 23 2 -5
BITMAP
1FF8
3FF8
6008
C008
C008
C008
C008
C008
C008
C008
C008
C008
C008
C018
C018
6038
3FE8
1FC8
0008
0008
0008
0008
0008
ENDCHAR
STARTCHAR r
ENCODING 114
SWIDTH 313 0
DWIDTH 11 0
BBX 7 18 3 0
BITMAP
DE
FE
E0
C0
C0
C0
C0
C0
C0
C0
C0
C0
C0
C0
C0
C0
C0
C0
ENDCHAR
STARTCHAR s
ENCODING 115
SWIDTH 431 0
DWIDTH 16 0
BBX 12 18 2 0
BITMAP
3FE0
7FC0
C000
C000
C000
C000
E000
7800
1F00
03C0
00E0
0060
0020
0030
0030
0060
FFE0
FF80
ENDCHAR
STARTCHAR t
ENCODING 116
SWIDTH 347 0
DWIDTH 12 0
BBX 10 22 1 0
BITMAP
1000
1800
1800
1800
FFC0
FF80
1800
1800
1800
1800
1800
1800
1800
1800
1800
1800
1800
1800
1800
1C00
0FC0
03C0
ENDCHAR
STARTCHAR u
ENCODING 117
SWIDTH 507 0
DWIDTH 18 0
BBX 13 18 3 0
BITMAP
8018
8018
8018
8018
8018
8018
8018
8018
8018
8018
8018
8018
8018
8018
C038
C038
7FD8
3F98
ENDCHAR
STARTCHAR v
ENCODING 118
SWIDTH 416 0
DWIDTH 15 0
BBX 13 18 1 0
BITMAP
C018
C018
C018
6030
6030
6030
2060
3060
3060
1040
18C0
18C0
0880
0D80
0D80
0D00
0700
0700
ENDCHAR
STARTCHAR w
ENCODING 119
SWIDTH 683 0
DWIDTH 25 0
BBX 23 18 1 0
BITMAP
C03006
C03806
C0380C
60680C
60680C
604C18
204C18
30C418
30C410
308630
108630
198230
198320
090360
0F0160
0F0140
0F01C0
0601C0
ENDCHAR
STARTCHAR x
ENCODING 120
SWIDTH 413 0
DWIDTH 15 0
BBX 13 18 1 0
BITMAP
C038
6030
6060
3060
18C0
18C0
0D80
0D00
0700
0700
0D80
0D80
18C0
30C0
3060
6030
6030
C018
ENDCHAR
STARTCHAR y
ENCODING 121
SWIDTH 459 0
DWIDTH 17 0
BBX 15 23 1 -5
BITMAP
C006
C00C
600C
6008
2018
3018
3030
1030
1830
1860
0860
0C60
0CC0
06C0
06C0
0780
0380
0100
0300
0300
0600
7C00
7800
ENDCHAR
STARTCHAR z
ENCODING 122
SWIDTH 405 0
DWIDTH 15 0
BBX 12 18 1 0
BITMAP
FFF0
7FF0
0060
0060
00C0
01C0
0180
0300
0700
0600
0C00
0C00
1800
3800
3000
6000
FFF0
FFF0
ENDCHAR
STARTCHAR braceleft
ENCODING 123
SWIDTH 298 0
DWIDTH 11 0
BBX 8 27 1 -4
BITMAP
07
0E
18
18
18
18
18
18
18
18
18
10
70
E0
30
10
18
18
18
18
18
18
18
18
08
0F
02
ENDCHAR
STARTCHAR bar
ENCODING 124
SWIDTH 207 0
DWIDTH 7 0
BBX 1 23 3 0
BITMAP
80
80
80
80
80
80
80
80
80
80
80
80
80
80
80
80
80
80
80
80
80
80
80
ENDCHAR
STARTCHAR braceright
ENCODING 125
SWIDTH 298 0
DWIDTH 11 0
BBX 8 27 1 -4
BITMAP
E0
70
18
18
18
18
18
18
18
18
18
08
0E
07
0C
18
18
18
18
18
18
18
18
18
30
F0
40
ENDCHAR
STARTCHAR asciitilde
ENCODING 126
SWIDTH 523 0
DWIDTH 19 0
BBX 13 3 3 10
BITMAP
3008
FFF8
83F0
ENDCHAR
STARTCHAR uni00A0
ENCODING 160
SWIDTH 267 0
DWIDTH 10 0
BBX 1 1 0 0
BITMAP
00
ENDCHAR
STARTCHAR exclamdown
ENCODING 161
SWIDTH 237 0
DWIDTH 9 0
BBX 2 23 3 0
BITMAP
C0
C0
C0
C0
C0
00
00
00
40
C0
C0
C0
C0
C0
C0
C0
C0
C0
C0
C0
C0
C0
C0
ENDCHAR
STARTCHAR cent
ENCODING 162
SWIDTH 414 0
DWIDTH 15 0
BBX 12 25 2 -3
BITMAP
0100
0300
0300
0300
1FF0
3FE0
6000
C000
C000
C000
C000
C000
C000
C000
C000
C000
C000
C000
C000
6000
3FE0
1FF0
0300
0300
0300
ENDCHAR
STARTCHAR sterling
ENCODING 163
SWIDTH 528 0
DWIDTH 19 0
BBX 16 23 1 0
BITMAP
03F8
0FFC
1C06
1806
1802
1802
1802
1800
1800
1800
1800
1800
FFE0
7FE0
1800
1800
1800
1800
1800
1800
3000
7FFE
FFFF
ENDCHAR
STARTCHAR yen
ENCODING 165
SWIDTH 499 0
DWIDTH 18 0
BBX 16 23 1 0
BITMAP
C003
6006
6006
300C
300C
1818
1818
1830
0C30
0C70
0660
FE7F
03C0
0180
0180
7FFE
FFFF
0180
0180
0180
0180
0180
0180
ENDCHAR
STARTCHAR brokenbar
ENCODING 166
SWIDTH 201 0
DWIDTH 7 0
BBX 1 23 3 0
BITMAP
80
80
80
80
80
80
80
80
80
00
00
00
00
00
80
80
80
80
80
80
80
80
80
ENDCHAR
STARTCHAR section
ENCODING 167
SWIDTH 454 0
DWIDTH 16 0
BBX 12 23 2 0
BITMAP
3FE0
7FE0
E000
C000
C000
C000
E000
FC00
DFC0
C1E0
C030
C030
C030
7030
3FB0
01F0
0030
0030
0030
0030
0030
7FE0
FFC0
ENDCHAR
STARTCHAR dieresis
ENCODING 168
SWIDTH 345 0
DWIDTH 12 0
BBX 8 5 2 20
BITMAP
C3
C3
C3
C3
C3
ENDCHAR
STARTCHAR copyright
ENCODING 169
SWIDTH 723 0
DWIDTH 26 0
BBX 20 23 3 0
BITMAP
3FFFC0
7FFFE0
C00030
800010
800010
81F810
83FC10
860610
860610
860610
860010
860010
860010
860610
860610
860610
820C10
83F810
800010
800010
C00030
7FFFE0
3FFFC0
ENDCHAR
STARTCHAR guillemotleft
ENCODING 171
SWIDTH 431 0
DWIDTH 16 0
BBX 11 12 2 3
BITMAP
0420
0C60
18C0
3180
6300
C600
C600
6300
3180
18C0
0C60
0420
ENDCHAR
STARTCHAR registered
ENCODING 174
SWIDTH 439 0
DWIDTH 16 0
BBX 11 12 2 13
BITMAP
3FC0
7FE0
4F20
CF20
8920
8920
8F20
8920
4920
4060
7FC0
0F80
ENDCHAR
STARTCHAR macron
ENCODING 175
SWIDTH 358 0
DWIDTH 13 0
BBX 9 2 2 21
BITMAP
FF80
7F00
ENDCHAR
STARTCHAR degree
ENCODING 176
SWIDTH 298 0
DWIDTH 11 0
BBX 5 8 3 17
BITMAP
F0
F8
88
88
88
88
F8
70
ENDCHAR
STARTCHAR plusminus
ENCODING 177
SWIDTH 523 0
DWIDTH 19 0
BBX 13 14 3 4
BITMAP
0200
0200
0200
0200
FFF8
FFF8
0200
0200
0200
0200
0000
0000
FFF8
FFF8
ENDCHAR
STARTCHAR acute
ENCODING 180
SWIDTH 269 0
DWIDTH 10 0
BBX 5 4 2 21
BITMAP
18
30
60
E0
ENDCHAR
STARTCHAR paragraph
ENCODING 182
SWIDTH 513 0
DWIDTH 18 0
BBX 13 23 2 0
BITMAP
3FF8
7FF8
FC08
FC08
FC08
FC08
FC08
FC08
FC08
FC08
7C08
0C08
0C08
0C08
0C08
0C08
0C08
0C08
0C08
0C08
0C08
0C08
0C08
ENDCHAR
STARTCHAR periodcentered
ENCODING 183
SWIDTH 207 0
DWIDTH 7 0
BBX 2 5 3 9
BITMAP
C0
C0
C0
C0
C0
ENDCHAR
STARTCHAR cedilla
ENCODING 184
SWIDTH 257 0
DWIDTH 9 0
BBX 5 7 2 -6
BITMAP
30
60
F0
18
08
78
70
ENDCHAR
STARTCHAR guillemotright
ENCODING 187
SWIDTH 431 0
DWIDTH 16 0
BBX 11 12 2 3
BITMAP
8400
C600
6300
3180
18C0
0C20
0C60
18C0
3180
6300
C600
8400
ENDCHAR
STARTCHAR questiondown
ENCODING 191
SWIDTH 473 0
DWIDTH 17 0
BBX 11 23 3 0
BITMAP
0C00
0C00
0C00
0C00
0C00
0000
0000
0400
0C00
0C00
0C00
0C00
3800
7000
E000
C000
8020
8020
8020
C060
C060
7FC0
3F80
ENDCHAR
STARTCHAR Agrave
ENCODING 192
SWIDTH 532 0
DWIDTH 19 0
BBX 17 30 1 0
BITMAP
0C0000
060000
030000
030000
018000
000000
000000
01C000
01C000
016000
036000
036000
023000
063000
063000
061800
0C1800
0C1800
0C0C00
180C00
180C00
180600
3FFE00
3FFE00
300600
600300
600300
600100
C00180
C00180
ENDCHAR
STARTCHAR Aacute
ENCODING 193
SWIDTH 532 0
DWIDTH 19 0
BBX 17 30 1 0
BITMAP
001800
003000
007000
006000
00C000
000000
000000
01C000
01C000
016000
036000
036000
023000
063000
063000
061800
0C1800
0C1800
0C0C00
180C00
180C00
180600
3FFE00
3FFE00
300600
600300
600300
600100
C00180
C00180
ENDCHAR
STARTCHAR Acircumflex
ENCODING 194
SWIDTH 532 0
DWIDTH 19 0
BBX 17 30 1 0
BITMAP
008000
01C000
036000
022000
063000
000000
000000
01C000
01C000
016000
036000
036000
023000
063000
063000
061800
0C1800
0C1800
0C0C00
180C00
180C00
180600
3FFE00
3FFE00
300600
600300
600300
600100
C00180
C00180
ENDCHAR
STARTCHAR Atilde
ENCODING 195
SWIDTH 532 0
DWIDTH 19 0
BBX 17 30 1 0
BITMAP
042000
047000
049000
049000
071000
000000
000000
01C000
01C000
016000
036000
036000
023000
063000
063000
061800
0C1800
0C1800
0C0C00
180C00
180C00
180600
3FFE00
3FFE00
300600
600300
600300
600100
C00180
C00180
ENDCHAR
STARTCHAR Adieresis
ENCODING 196
SWIDTH 532 0
DWIDTH 19 0
BBX 17 30 1 0
BITMAP
061000
061000
061000
061000
061000
000000
000000
01C000
01C000
016000
036000
036000
023000
063000
063000
061800
0C1800
0C1800
0C0C00
180C00
180C00
180600
3FFE00
3FFE00
300600
600300
600300
600100
C00180
C00180
ENDCHAR
STARTCHAR Aring
ENCODING 197
SWIDTH 532 0
DWIDTH 19 0
BBX 17 31 1 0
BITMAP
01C000
03E000
022000
023000
023000
022000
03E000
008000
01C000
01C000
016000
036000
036000
023000
063000
063000
061800
0C1800
0C1800
0C0C00
180C00
180C00
180600
3FFE00
3FFE00
300600
600300
600300
600100
C00180
C00180
ENDCHAR
STARTCHAR AE
ENCODING 198
SWIDTH 773 0
DWIDTH 28 0
BBX 25 23 0 0
BITMAP
000FFF80
000FFF80
001A0000
001A0000
00320000
00720000
00620000
00C20000
00C20000
01820000
0183FF00
0303FF00
03020000
06020000
06020000
0FFE0000
1FFE0000
18020000
30020000
30020000
60020000
6003FF80
C003FF80
ENDCHAR
STARTCHAR Ccedilla
ENCODING 199
SWIDTH 542 0
DWIDTH 20 0
BBX 14 30 3 -7
BITMAP
3FF0
7FF8
C00C
C00C
C00C
C004
C004
C000
C000
C000
C000
C000
C000
C000
C000
C000
C004
C004
C00C
C00C
C00C
7FF8
3FF0
0100
0200
0380
00C0
00C0
0780
0300
ENDCHAR
STARTCHAR Egrave
ENCODING 200
SWIDTH 481 0
DWIDTH 17 0
BBX 12 30 3 0
BITMAP
3000
1800
0C00
0C00
0600
0000
0000
FFF0
FFF0
C000
C000
C000
C000
C000
C000
C000
C000
FFE0
FFE0
C000
C000
C000
C000
C000
C000
C000
C000
C000
FFF0
FFF0
ENDCHAR
STARTCHAR Eacute
ENCODING 201
SWIDTH 481 0
DWIDTH 17 0
BBX 12 30 3 0
BITMAP
00C0
0180
0380
0300
0600
0000
0000
FFF0
FFF0
C000
C000
C000
C000
C000
C000
C000
C000
FFE0
FFE0
C000
C000
C000
C000
C000
C000
C000
C000
C000
FFF0
FFF0
ENDCHAR
STARTCHAR Ecircumflex
ENCODING 202
SWIDTH 481 0
DWIDTH 17 0
BBX 12 30 3 0
BITMAP
0400
0F00
0900
1980
3080
0000
0000
FFF0
FFF0
C000
C000
C000
C000
C000
C000
C000
C000
FFE0
FFE0
C000
C000
C000
C000
C000
C000
C000
C000
C000
FFF0
FFF0
ENDCHAR
STARTCHAR Edieresis
ENCODING 203
SWIDTH 481 0
DWIDTH 17 0
BBX 12 30 3 0
BITMAP
30C0
30C0
30C0
30C0
30C0
0000
0000
FFF0
FFF0
C000
C000
C000
C000
C000
C000
C000
C000
FFE0
FFE0
C000
C000
C000
C000
C000
C000
C000
C000
C000
FFF0
FFF0
ENDCHAR
STARTCHAR Igrave
ENCODING 204
SWIDTH 230 0
DWIDTH 8 0
BBX 5 30 0 0
BITMAP
C0
E0
60
30
18
00
00
18
18
18
18
18
18
18
18
18
18
18
18
18
18
18
18
18
18
18
18
18
18
18
ENDCHAR
STARTCHAR Iacute
ENCODING 205
SWIDTH 231 0
DWIDTH 8 0
BBX 5 30 3 0
BITMAP
08
38
30
60
C0
00
00
C0
C0
C0
C0
C0
C0
C0
C0
C0
C0
C0
C0
C0
C0
C0
C0
C0
C0
C0
C0
C0
C0
C0
ENDCHAR
STARTCHAR Icircumflex
ENCODING 206
SWIDTH 229 0
DWIDTH 8 0
BBX 7 30 1 0
BITMAP
10
38
68
CC
86
00
00
30
30
30
30
30
30
30
30
30
30
30
30
30
30
30
30
30
30
30
30
30
30
30
ENDCHAR
STARTCHAR Idieresis
ENCODING 207
SWIDTH 230 0
DWIDTH 8 0
BBX 8 30 0 0
BITMAP
C3
C3
C3
C3
C3
00
00
18
18
18
18
18
18
18
18
18
18
18
18
18
18
18
18
18
18
18
18
18
18
18
ENDCHAR
STARTCHAR Eth
ENCODING 208
SWIDTH 514 0
DWIDTH 19 0
BBX 16 23 1 0
BITMAP
3FFC
3FFE
3003
3003
3001
3001
3001
3001
3001
3001
3001
FFC1
FFC1
3001
3001
3001
3001
3001
3001
3003
3003
3FFE
3FFC
ENDCHAR
STARTCHAR Ntilde
ENCODING 209
SWIDTH 579 0
DWIDTH 21 0
BBX 15 30 3 0
BITMAP
08C0
09E0
0920
0B20
0F20
0420
0000
C006
E006
E006
F006
F006
D806
DC06
CC06
C606
C606
C306
C306
C186
C0C6
C0C6
C066
C066
C036
C01E
C01E
C00E
C00E
C006
ENDCHAR
STARTCHAR Ograve
ENCODING 210
SWIDTH 553 0
DWIDTH 20 0
BBX 14 30 3 0
BITMAP
1800
1C00
0C00
0600
0300
0000
0000
3FF0
7FF8
C01C
C00C
C00C
C00C
C00C
C00C
C00C
C00C
C00C
C00C
C00C
C00C
C00C
C00C
C00C
C00C
C00C
C00C
C00C
7FF8
3FF0
ENDCHAR
STARTCHAR Oacute
ENCODING 211
SWIDTH 553 0
DWIDTH 20 0
BBX 14 30 3 0
BITMAP
0060
00C0
01C0
0180
0300
0000
0000
3FF0
7FF8
C01C
C00C
C00C
C00C
C00C
C00C
C00C
C00C
C00C
C00C
C00C
C00C
C00C
C00C
C00C
C00C
C00C
C00C
C00C
7FF8
3FF0
ENDCHAR
STARTCHAR Ocircumflex
ENCODING 212
SWIDTH 553 0
DWIDTH 20 0
BBX 14 30 3 0
BITMAP
0200
0700
0480
0CC0
1840
0000
0000
3FF0
7FF8
C01C
C00C
C00C
C00C
C00C
C00C
C00C
C00C
C00C
C00C
C00C
C00C
C00C
C00C
C00C
C00C
C00C
C00C
C00C
7FF8
3FF0
ENDCHAR
STARTCHAR Otilde
ENCODING 213
SWIDTH 553 0
DWIDTH 20 0
BBX 14 30 3 0
BITMAP
1080
11C0
1360
1220
1E20
0820
0000
3FF0
7FF8
C01C
C00C
C00C
C00C
C00C
C00C
C00C
C00C
C00C
C00C
C00C
C00C
C00C
C00C
C00C
C00C
C00C
C00C
C00C
7FF8
3FF0
ENDCHAR
STARTCHAR Odieresis
ENCODING 214
SWIDTH 553 0
DWIDTH 20 0
BBX 14 30 3 0
BITMAP
1860
1860
1860
1860
1860
0000
0000
3FF0
7FF8
C01C
C00C
C00C
C00C
C00C
C00C
C00C
C00C
C00C
C00C
C00C
C00C
C00C
C00C
C00C
C00C
C00C
C00C
C00C
7FF8
3FF0
ENDCHAR
STARTCHAR multiply
ENCODING 215
SWIDTH 493 0
DWIDTH 18 0
BBX 11 11 3 6
BITMAP
4020
E060
70C0
3980
1F00
0E00
0F00
1980
30C0
E060
4020
ENDCHAR
STARTCHAR Oslash
ENCODING 216
SWIDTH 559 0
DWIDTH 20 0
BBX 16 23 2 0
BITMAP
1FF9
3FFD
6007
6006
600E
600A
601A
6032
6062
6042
60C2
6182
6102
6302
6602
6C02
6802
7802
7006
6006
6006
FFFC
9FF8
ENDCHAR
STARTCHAR Ugrave
ENCODING 217
SWIDTH 552 0
DWIDTH 20 0
BBX 14 30 3 0
BITMAP
1800
0C00
0E00
0600
0300
0000
0000
C00C
C00C
C00C
C00C
C00C
C00C
C00C
C00C
C00C
C00C
C00C
C00C
C00C
C00C
C00C
C00C
C00C
C00C
C00C
C00C
E018
7FF8
3FE0
ENDCHAR
STARTCHAR Uacute
ENCODING 218
SWIDTH 552 0
DWIDTH 20 0
BBX 14 30 3 0
BITMAP
0060
00C0
01C0
0180
0300
0000
0000
C00C
C00C
C00C
C00C
C00C
C00C
C00C
C00C
C00C
C00C
C00C
C00C
C00C
C00C
C00C
C00C
C00C
C00C
C00C
C00C
E018
7FF8
3FE0
ENDCHAR
STARTCHAR Ucircumflex
ENCODING 219
SWIDTH 552 0
DWIDTH 20 0
BBX 14 30 3 0
BITMAP
0200
0700
0480
0CC0
1840
0000
0000
C00C
C00C
C00C
C00C
C00C
C00C
C00C
C00C
C00C
C00C
C00C
C00C
C00C
C00C
C00C
C00C
C00C
C00C
C00C
C00C
E018
7FF8
3FE0
ENDCHAR
STARTCHAR Udieresis
ENCODING 220
SWIDTH 552 0
DWIDTH 20 0
BBX 14 30 3 0
BITMAP
1860
1860
1860
1860
1860
0000
0000
C00C
C00C
C00C
C00C
C00C
C00C
C00C
C00C
C00C
C00C
C00C
C00C
C00C
C00C
C00C
C00C
C00C
C00C
C00C
C00C
E018
7FF8
3FE0
ENDCHAR
STARTCHAR Yacute
ENCODING 221
SWIDTH 493 0
DWIDTH 18 0
BBX 16 30 1 0
BITMAP
0030
0060
00E0
00C0
0180
0000
0000
C003
E006
6006
700C
300C
3018
1818
1830
0C30
0C60
0660
06C0
03C0
0380
0180
0180
0180
0180
0180
0180
0180
0180
0180
ENDCHAR
STARTCHAR Thorn
ENCODING 222
SWIDTH 501 0
DWIDTH 18 0
BBX 12 23 4 0
BITMAP
C000
C000
C000
C000
C000
FF80
FFC0
C060
C060
C020
C030
C030
C030
C030
C020
C060
C0E0
FFC0
FE00
C000
C000
C000
C000
ENDCHAR
STARTCHAR germandbls
ENCODING 223
SWIDTH 540 0
DWIDTH 19 0
BBX 14 23 3 0
BITMAP
3FE0
7FF0
E018
C018
C00C
C00C
C00C
C00C
C008
C018
C038
C3E0
C3F0
C018
C00C
C00C
C00C
C00C
C00C
C00C
C018
C7F8
C7E0
ENDCHAR
STARTCHAR agrave
ENCODING 224
SWIDTH 502 0
DWIDTH 18 0
BBX 13 25 2 0
BITMAP
0C00
0600
0300
0100
0180
0000
0000
1FF8
3FF8
6008
C008
C008
C008
C008
C008
C008
C008
C008
C008
C008
C008
C018
6018
3FE8
1FC8
ENDCHAR
STARTCHAR aacute
ENCODING 225
SWIDTH 502 0
DWIDTH 18 0
BBX 13 25 2 0
BITMAP
0060
00E0
00C0
0180
0100
0000
0000
1FF8
3FF8
6008
C008
C008
C008
C008
C008
C008
C008
C008
C008
C008
C008
C018
6018
3FE8
1FC8
ENDCHAR
STARTCHAR acircumflex
ENCODING 226
SWIDTH 502 0
DWIDTH 18 0
BBX 13 25 2 0
BITMAP
0380
0280
06C0
0440
0C60
0000
0000
1FF8
3FF8
6008
C008
C008
C008
C008
C008
C008
C008
C008
C008
C008
C008
C018
6018
3FE8
1FC8
ENDCHAR
STARTCHAR atilde
ENCODING 227
SWIDTH 504 0
DWIDTH 18 0
BBX 13 25 2 0
BITMAP
08E0
09F0
0930
0F30
0000
0000
0000
1FF8
3FF8
6008
C008
C008
C008
C008
C008
C008
C008
C008
C008
C008
C008
C018
6018
3FE8
1FC8
ENDCHAR
STARTCHAR adieresis
ENCODING 228
SWIDTH 502 0
DWIDTH 18 0
BBX 13 25 2 0
BITMAP
0C20
0C20
0C20
0C20
0C20
0000
0000
1FF8
3FF8
6008
C008
C008
C008
C008
C008
C008
C008
C008
C008
C008
C008
C018
6018
3FE8
1FC8
ENDCHAR
STARTCHAR aring
ENCODING 229
SWIDTH 502 0
DWIDTH 18 0
BBX 13 26 2 0
BITMAP
0780
0FC0
0840
0840
0FC0
0780
0000
0000
1FF8
3FF8
6008
C008
C008
C008
C008
C008
C008
C008
C008
C008
C008
C008
C018
6018
3FE8
1FC8
ENDCHAR
STARTCHAR ae
ENCODING 230
SWIDTH 795 0
DWIDTH 29 0
BBX 24 18 2 0
BITMAP
3FE3FC
3FF7FE
001C03
001C03
001801
001801
001801
1FF801
7FF801
601FFF
C01FFF
C01800
C01800
C01800
C01C00
603C00
3FF7FF
1FC3FF
ENDCHAR
STARTCHAR ccedilla
ENCODING 231
SWIDTH 394 0
DWIDTH 14 0
BBX 11 25 2 -7
BITMAP
1FE0
3FE0
6000
C000
C000
C000
C000
C000
C000
C000
C000
C000
C000
C000
C000
6000
3FE0
1FE0
0300
0600
0780
0080
0080
0780
0700
ENDCHAR
STARTCHAR egrave
ENCODING 232
SWIDTH 492 0
DWIDTH 18 0
BBX 14 25 2 0
BITMAP
1C00
0C00
0600
0200
0300
0000
0000
1FE0
3FF0
6018
C008
C00C
C00C
C00C
C00C
FFFC
FFFC
C000
C000
C000
C000
C000
6000
3FF8
1FF8
ENDCHAR
STARTCHAR eacute
ENCODING 233
SWIDTH 492 0
DWIDTH 18 0
BBX 14 25 2 0
BITMAP
00E0
01C0
0180
0300
0200
0000
0000
1FE0
3FF0
6018
C008
C00C
C00C
C00C
C00C
FFFC
FFFC
C000
C000
C000
C000
C000
6000
3FF8
1FF8
ENDCHAR
STARTCHAR ecircumflex
ENCODING 234
SWIDTH 492 0
DWIDTH 18 0
BBX 14 25 2 0
BITMAP
0300
0780
0480
0CC0
0840
0000
0000
1FE0
3FF0
6018
C008
C00C
C00C
C00C
C00C
FFFC
FFFC
C000
C000
C000
C000
C000
6000
3FF8
1FF8
ENDCHAR
STARTCHAR edieresis
ENCODING 235
SWIDTH 492 0
DWIDTH 18 0
BBX 14 25 2 0
BITMAP
1860
1860
1860
1860
1860
0000
0000
1FE0
3FF0
6018
C008
C00C
C00C
C00C
C00C
FFFC
FFFC
C000
C000
C000
C000
C000
6000
3FF8
1FF8
ENDCHAR
STARTCHAR igrave
ENCODING 236
SWIDTH 210 0
DWIDTH 8 0
BBX 6 25 -1 0
BITMAP
E0
70
30
18
08
00
00
0C
0C
0C
0C
0C
0C
0C
0C
0C
0C
0C
0C
0C
0C
0C
0C
0C
0C
ENDCHAR
STARTCHAR iacute
ENCODING 237
SWIDTH 208 0
DWIDTH 7 0
BBX 5 25 3 0
BITMAP
38
30
60
40
80
00
00
C0
C0
C0
C0
C0
C0
C0
C0
C0
C0
C0
C0
C0
C0
C0
C0
C0
C0
ENDCHAR
STARTCHAR icircumflex
ENCODING 238
SWIDTH 210 0
DWIDTH 8 0
BBX 7 25 0 0
BITMAP
18
3C
64
46
C2
00
00
18
18
18
18
18
18
18
18
18
18
18
18
18
18
18
18
18
18
ENDCHAR
STARTCHAR idieresis
ENCODING 239
SWIDTH 210 0
DWIDTH 8 0
BBX 8 25 0 0
BITMAP
C3
C3
C3
C3
C3
00
00
18
18
18
18
18
18
18
18
18
18
18
18
18
18
18
18
18
18
ENDCHAR
STARTCHAR eth
ENCODING 240
SWIDTH 488 0
DWIDTH 18 0
BBX 13 25 2 0
BITMAP
1010
1870
0CE0
0780
0300
0780
0CC0
3860
1030
0038
0718
3FE8
7038
6018
C018
C018
C018
C018
C018
C018
C018
C018
6018
3FF0
1FE0
ENDCHAR
STARTCHAR ntilde
ENCODING 241
SWIDTH 507 0
DWIDTH 18 0
BBX 13 25 3 0
BITMAP
2380
23C0
2640
3C40
1C40
0000
0000
DFC0
FFF0
C030
C018
C018
C018
C018
C018
C018
C018
C018
C018
C018
C018
C018
C018
C018
C018
ENDCHAR
STARTCHAR ograve
ENCODING 242
SWIDTH 496 0
DWIDTH 18 0
BBX 14 25 2 0
BITMAP
1800
0C00
0600
0600
0200
0000
0000
1FE0
3FF0
6018
C018
C00C
C00C
C00C
C00C
C00C
C00C
C00C
C00C
C00C
C00C
C018
6018
3FF0
1FE0
ENDCHAR
STARTCHAR oacute
ENCODING 243
SWIDTH 496 0
DWIDTH 18 0
BBX 14 25 2 0
BITMAP
0060
00C0
0180
0180
0300
0000
0000
1FE0
3FF0
6018
C018
C00C
C00C
C00C
C00C
C00C
C00C
C00C
C00C
C00C
C00C
C018
6018
3FF0
1FE0
ENDCHAR
STARTCHAR ocircumflex
ENCODING 244
SWIDTH 496 0
DWIDTH 18 0
BBX 14 25 2 0
BITMAP
0300
0780
0480
0CC0
0840
0000
0000
1FE0
3FF0
6018
C018
C00C
C00C
C00C
C00C
C00C
C00C
C00C
C00C
C00C
C00C
C018
6018
3FF0
1FE0
ENDCHAR
STARTCHAR otilde
ENCODING 245
SWIDTH 496 0
DWIDTH 18 0
BBX 14 25 2 0
BITMAP
11C0
11E0
1320
1E20
0E20
0000
0000
1FE0
3FF0
6018
C018
C00C
C00C
C00C
C00C
C00C
C00C
C00C
C00C
C00C
C00C
C018
6018
3FF0
1FE0
ENDCHAR
STARTCHAR odieresis
ENCODING 246
SWIDTH 496 0
DWIDTH 18 0
BBX 14 25 2 0
BITMAP
1860
1860
1860
1860
1860
0000
0000
1FE0
3FF0
6018
C018
C00C
C00C
C00C
C00C
C00C
C00C
C00C
C00C
C00C
C00C
C018
6018
3FF0
1FE0
ENDCHAR
STARTCHAR divide
ENCODING 247
SWIDTH 510 0
DWIDTH 18 0
BBX 13 13 3 5
BITMAP
0600
0600
0600
0000
0000
0000
FFF8
FFF0
0000
0000
0600
0600
0600
ENDCHAR
STARTCHAR oslash
ENCODING 248
SWIDTH 521 0
DWIDTH 19 0
BBX 17 18 1 0
BITMAP
0FF000
1FFD80
300F00
300600
300E00
301E00
303600
306600
30C600
318600
330600
360600
3C0600
380600
300600
700C00
DFFC00
0FF000
ENDCHAR
STARTCHAR ugrave
ENCODING 249
SWIDTH 507 0
DWIDTH 18 0
BBX 13 25 3 0
BITMAP
3800
1800
0C00
0400
0600
0000
0000
8018
8018
8018
8018
8018
8018
8018
8018
8018
8018
8018
8018
8018
8018
C038
C038
7FD8
3F98
ENDCHAR
STARTCHAR uacute
ENCODING 250
SWIDTH 507 0
DWIDTH 18 0
BBX 13 25 3 0
BITMAP
00C0
0180
0300
0300
0600
0000
0000
8018
8018
8018
8018
8018
8018
8018
8018
8018
8018
8018
8018
8018
8018
C038
C038
7FD8
3F98
ENDCHAR
STARTCHAR ucircumflex
ENCODING 251
SWIDTH 507 0
DWIDTH 18 0
BBX 13 25 3 0
BITMAP
0600
0F00
0900
1980
1080
0000
0000
8018
8018
8018
8018
8018
8018
8018
8018
8018
8018
8018
8018
8018
8018
C038
C038
7FD8
3F98
ENDCHAR
STARTCHAR udieresis
ENCODING 252
SWIDTH 507 0
DWIDTH 18 0
BBX 13 25 3 0
BITMAP
30C0
30C0
30C0
30C0
30C0
0000
0000
8018
8018
8018
8018
8018
8018
8018
8018
8018
8018
8018
8018
8018
8018
C038
C038
7FD8
3F98
ENDCHAR
STARTCHAR yacute
ENCODING 253
SWIDTH 459 0
DWIDTH 17 0
BBX 15 30 1 -5
BITMAP
0070
00E0
00C0
0180
0100
0000
0000
C006
C00C
600C
6008
2018
3018
3030
1030
1830
1860
0860
0C60
0CC0
06C0
06C0
0780
0380
0100
0300
0300
0600
7C00
7800
ENDCHAR
STARTCHAR thorn
ENCODING 254
SWIDTH 508 0
DWIDTH 18 0
BBX 13 30 3 -5
BITMAP
C000
C000
C000
C000
C000
C000
C000
DFC0
FFF0
E030
C018
C018
C018
C018
C018
C018
C018
C018
C018
C018
C018
C018
E030
FFF0
DFC0
C000
C000
C000
C000
C000
ENDCHAR
STARTCHAR ydieresis
ENCODING 255
SWIDTH 459 0
DWIDTH 17 0
BBX 15 30 1 -5
BITMAP
1860
1860
1860
1860
1860
0000
0000
C006
C00C
600C
6008
2018
3018
3030
1030
1830
1860
0860
0C60
0CC0
06C0
06C0
0780
0380
0100
0300
0300
0600
7C00
7800
ENDCHAR
STARTCHAR Amacron
ENCODING 256
SWIDTH 532 0
DWIDTH 19 0
BBX 17 28 1 0
BITMAP
07F800
07F000
000000
000000
000000
01C000
01C000
016000
036000
036000
023000
063000
063000
061800
0C1800
0C1800
0C0C00
180C00
180C00
180600
3FFE00
3FFE00
300600
600300
600300
600100
C00180
C00180
ENDCHAR
STARTCHAR amacron
ENCODING 257
SWIDTH 502 0
DWIDTH 18 0
BBX 13 23 2 0
BITMAP
0FF0
0FF0
0000
0000
0000
1FF8
3FF8
6008
C008
C008
C008
C008
C008
C008
C008
C008
C008
C008
C008
C018
6018
3FE8
1FC8
ENDCHAR
STARTCHAR Abreve
ENCODING 258
SWIDTH 532 0
DWIDTH 19 0
BBX 17 30 1 0
BITMAP
041000
041000
041000
063000
03E000
000000
000000
01C000
01C000
016000
036000
036000
023000
063000
063000
061800
0C1800
0C1800
0C0C00
180C00
180C00
180600
3FFE00
3FFE00
300600
600300
600300
600100
C00180
C00180
ENDCHAR
STARTCHAR abreve
ENCODING 259
SWIDTH 502 0
DWIDTH 18 0
BBX 13 25 2 0
BITMAP
0820
0820
0C20
0460
07C0
0000
0000
1FF8
3FF8
6008
C008
C008
C008
C008
C008
C008
C008
C008
C008
C008
C008
C018
6018
3FE8
1FC8
ENDCHAR
STARTCHAR Aogonek
ENCODING 260
SWIDTH 532 0
DWIDTH 19 0
BBX 17 27 1 -4
BITMAP
01C000
01C000
016000
036000
036000
023000
063000
063000
061800
0C1800
0C1800
0C0C00
180C00
180C00
180600
3FFE00
3FFE00
300600
600300
600300
600100
C00180
C00180
000300
000200
000700
000700
ENDCHAR
STARTCHAR aogonek
ENCODING 261
SWIDTH 502 0
DWIDTH 18 0
BBX 13 22 2 -4
BITMAP
1FF8
3FF8
6008
C008
C008
C008
C008
C008
C008
C008
C008
C008
C008
C008
C018
6018
3FE8
1FD8
0010
0020
0078
0070
ENDCHAR
STARTCHAR Cacute
ENCODING 262
SWIDTH 542 0
DWIDTH 20 0
BBX 14 30 3 0
BITMAP
0060
00C0
01C0
0180
0300
0000
0000
3FF0
7FF8
C00C
C00C
C00C
C004
C004
C000
C000
C000
C000
C000
C000
C000
C000
C000
C004
C004
C00C
C00C
C00C
7FF8
3FF0
ENDCHAR
STARTCHAR cacute
ENCODING 263
SWIDTH 394 0
DWIDTH 14 0
BBX 11 25 2 0
BITMAP
00C0
0180
0300
0300
0200
0000
0000
1FE0
3FE0
6000
C000
C000
C000
C000
C000
C000
C000
C000
C000
C000
C000
C000
6000
3FE0
1FE0
ENDCHAR
STARTCHAR Cdotaccent
ENCODING 266
SWIDTH 542 0
DWIDTH 20 0
BBX 14 29 3 0
BITMAP
0300
0300
0300
0300
0000
0000
3FF0
7FF8
C00C
C00C
C00C
C004
C004
C000
C000
C000
C000
C000
C000
C000
C000
C000
C004
C004
C00C
C00C
C00C
7FF8
3FF0
ENDCHAR
STARTCHAR cdotaccent
ENCODING 267
SWIDTH 394 0
DWIDTH 14 0
BBX 11 25 2 0
BITMAP
0600
0600
0600
0600
0000
0000
0000
1FE0
3FE0
6000
C000
C000
C000
C000
C000
C000
C000
C000
C000
C000
C000
C000
6000
3FE0
1FE0
ENDCHAR
STARTCHAR Ccaron
ENCODING 268
SWIDTH 542 0
DWIDTH 20 0
BBX 14 30 3 0
BITMAP
0860
0CC0
0480
0780
0300
0000
0000
3FF0
7FF8
C00C
C00C
C00C
C004
C004
C000
C000
C000
C000
C000
C000
C000
C000
C000
C004
C004
C00C
C00C
C00C
7FF8
3FF0
ENDCHAR
STARTCHAR ccaron
ENCODING 269
SWIDTH 394 0
DWIDTH 14 0
BBX 11 25 2 0
BITMAP
18C0
0880
0D80
0500
0200
0000
0000
1FE0
3FE0
6000
C000
C000
C000
C000
C000
C000
C000
C000
C000
C000
C000
C000
6000
3FE0
1FE0
ENDCHAR
STARTCHAR Dcaron
ENCODING 270
SWIDTH 557 0
DWIDTH 20 0
BBX 14 30 3 0
BITMAP
1840
08C0
0C80
0780
0300
0000
0000
FFF0
FFF8
C00C
C00C
C004
C004
C004
C004
C004
C004
C004
C004
C004
C004
C004
C004
C004
C004
C00C
C00C
C00C
FFF8
FFF0
ENDCHAR
STARTCHAR dcaron
ENCODING 271
SWIDTH 534 0
DWIDTH 19 0
BBX 17 25 2 0
BITMAP
000880
000880
000880
000880
000880
000880
000880
1FC900
303800
601800
C00800
C00800
C00800
C00800
C00800
C00800
C00800
C00800
C00800
C00800
C00800
C01800
601800
3FE800
1FC800
ENDCHAR
STARTCHAR Dcroat
ENCODING 272
SWIDTH 514 0
DWIDTH 19 0
BBX 16 23 1 0
BITMAP
3FFC
3FFE
3003
3003
3001
3001
3001
3001
3001
FFC1
FFC1
3001
3001
3001
3001
3001
3001
3001
3001
3003
3003
3FFE
3FFC
ENDCHAR
STARTCHAR dcroat
ENCODING 273
SWIDTH 539 0
DWIDTH 19 0
BBX 17 25 2 0
BITMAP
000800
000800
000800
000800
07FF80
07FF00
000800
000800
000800
070800
3FE800
703800
601800
C00800
C00800
C00800
C00800
C00800
C00800
C00800
C00800
C01800
601800
3FE800
1FC800
ENDCHAR
STARTCHAR Emacron
ENCODING 274
SWIDTH 481 0
DWIDTH 17 0
BBX 12 28 3 0
BITMAP
3FC0
3FC0
0000
0000
0000
FFF0
FFF0
C000
C000
C000
C000
C000
C000
C000
C000
FFE0
FFE0
C000
C000
C000
C000
C000
C000
C000
C000
C000
FFF0
FFF0
ENDCHAR
STARTCHAR emacron
ENCODING 275
SWIDTH 492 0
DWIDTH 18 0
BBX 14 23 2 0
BITMAP
1FE0
1FE0
0000
0000
0000
1FE0
3FF0
6018
C008
C00C
C00C
C00C
C00C
FFFC
FFFC
C000
C000
C000
C000
C000
6000
3FF8
1FF8
ENDCHAR
STARTCHAR Ebreve
ENCODING 276
SWIDTH 481 0
DWIDTH 17 0
BBX 12 30 3 0
BITMAP
2080
3080
3080
1180
1F00
0000
0000
FFF0
FFF0
C000
C000
C000
C000
C000
C000
C000
C000
FFE0
FFE0
C000
C000
C000
C000
C000
C000
C000
C000
C000
FFF0
FFF0
ENDCHAR
STARTCHAR ebreve
ENCODING 277
SWIDTH 492 0
DWIDTH 18 0
BBX 14 25 2 0
BITMAP
1840
1840
1840
08C0
0780
0000
0000
1FE0
3FF0
6018
C008
C00C
C00C
C00C
C00C
FFFC
FFFC
C000
C000
C000
C000
C000
6000
3FF8
1FF8
ENDCHAR
STARTCHAR Edotaccent
ENCODING 278
SWIDTH 496 0
DWIDTH 18 0
BBX 12 29 3 0
BITMAP
0600
0600
0600
0600
0000
0000
FFF0
FFF0
C000
C000
C000
C000
C000
C000
C000
C000
FFE0
FFE0
C000
C000
C000
C000
C000
C000
C000
C000
C000
FFF0
FFF0
ENDCHAR
STARTCHAR edotaccent
ENCODING 279
SWIDTH 492 0
DWIDTH 18 0
BBX 14 25 2 0
BITMAP
0300
0300
0300
0300
0000
0000
0000
1FE0
3FF0
6018
C008
C00C
C00C
C00C
C00C
FFFC
FFFC
C000
C000
C000
C000
C000
6000
3FF8
1FF8
ENDCHAR
STARTCHAR Eogonek
ENCODING 280
SWIDTH 481 0
DWIDTH 17 0
BBX 12 27 3 -4
BITMAP
FFF0
FFF0
C000
C000
C000
C000
C000
C000
C000
C000
FFE0
FFE0
C000
C000
C000
C000
C000
C000
C000
C000
C000
FFF0
FFF0
0080
0180
01C0
03C0
ENDCHAR
STARTCHAR eogonek
ENCODING 281
SWIDTH 492 0
DWIDTH 18 0
BBX 14 22 2 -4
BITMAP
1FE0
3FF0
6018
C008
C00C
C00C
C00C
C00C
FFFC
FFFC
C000
C000
C000
C000
C000
6000
3FF8
1FF8
0040
00C0
00E0
00E0
ENDCHAR
STARTCHAR Ecaron
ENCODING 282
SWIDTH 481 0
DWIDTH 17 0
BBX 12 30 3 0
BITMAP
10C0
1880
0900
0F00
0600
0000
0000
FFF0
FFF0
C000
C000
C000
C000
C000
C000
C000
C000
FFE0
FFE0
C000
C000
C000
C000
C000
C000
C000
C000
C000
FFF0
FFF0
ENDCHAR
STARTCHAR ecaron
ENCODING 283
SWIDTH 492 0
DWIDTH 18 0
BBX 14 25 2 0
BITMAP
1840
0CC0
0480
0780
0300
0000
0000
1FE0
3FF0
6018
C008
C00C
C00C
C00C
C00C
FFFC
FFFC
C000
C000
C000
C000
C000
6000
3FF8
1FF8
ENDCHAR
STARTCHAR Gcircumflex
ENCODING 284
SWIDTH 539 0
DWIDTH 19 0
BBX 14 30 3 0
BITMAP
0200
0700
0580
0C80
18C0
0000
0000
3FE0
7FF0
C018
C00C
C00C
C00C
C00C
C000
C000
C000
C000
C1F8
C1FC
C00C
C00C
C00C
C00C
C00C
C00C
C00C
C018
7FF8
3FE0
ENDCHAR
STARTCHAR gcircumflex
ENCODING 285
SWIDTH 506 0
DWIDTH 18 0
BBX 14 30 2 -5
BITMAP
0380
0280
06C0
0460
0C20
0000
0000
1FFC
3FFC
600C
600C
C00C
C00C
C00C
C00C
C00C
C00C
C00C
C00C
C00C
601C
601C
3FEC
1FCC
000C
000C
0018
0018
3FF0
3FE0
ENDCHAR
STARTCHAR Gbreve
ENCODING 286
SWIDTH 539 0
DWIDTH 19 0
BBX 14 30 3 0
BITMAP
1040
1040
1840
08C0
0F80
0000
0000
3FE0
7FF0
C018
C00C
C00C
C00C
C00C
C000
C000
C000
C000
C1F8
C1FC
C00C
C00C
C00C
C00C
C00C
C00C
C00C
C018
7FF8
3FE0
ENDCHAR
STARTCHAR gbreve
ENCODING 287
SWIDTH 506 0
DWIDTH 18 0
BBX 14 30 2 -5
BITMAP
0C30
0C30
0420
0420
03C0
0000
0000
1FFC
3FFC
600C
600C
C00C
C00C
C00C
C00C
C00C
C00C
C00C
C00C
C00C
601C
601C
3FEC
1FCC
000C
000C
0018
0018
3FF0
3FE0
ENDCHAR
STARTCHAR Gdotaccent
ENCODING 288
SWIDTH 539 0
DWIDTH 19 0
BBX 14 29 3 0
BITMAP
0300
0300
0300
0300
0000
0000
3FE0
7FF0
C018
C00C
C00C
C00C
C00C
C000
C000
C000
C000
C1F8
C1FC
C00C
C00C
C00C
C00C
C00C
C00C
C00C
C018
7FF8
3FE0
ENDCHAR
STARTCHAR gdotaccent
ENCODING 289
SWIDTH 506 0
DWIDTH 18 0
BBX 14 30 2 -5
BITMAP
0180
0180
0180
0180
0000
0000
0000
1FFC
3FFC
600C
600C
C00C
C00C
C00C
C00C
C00C
C00C
C00C
C00C
C00C
601C
601C
3FEC
1FCC
000C
000C
0018
0018
3FF0
3FE0
ENDCHAR
STARTCHAR uni0122
ENCODING 290
SWIDTH 539 0
DWIDTH 19 0
BBX 14 31 3 -8
BITMAP
3FE0
7FF0
C018
C00C
C00C
C00C
C00C
C000
C000
C000
C000
C1F8
C1FC
C00C
C00C
C00C
C00C
C00C
C00C
C00C
C018
7FF8
3FE0
0000
0300
0300
0300
0300
0300
0200
0200
ENDCHAR
STARTCHAR uni0123
ENCODING 291
SWIDTH 506 0
DWIDTH 18 0
BBX 14 32 2 -5
BITMAP
0080
0080
0180
0180
0180
0180
0180
0000
0000
1FFC
3FFC
600C
600C
C00C
C00C
C00C
C00C
C00C
C00C
C00C
C00C
C00C
601C
601C
3FEC
1FCC
000C
000C
0018
0018
3FF0
3FE0
ENDCHAR
STARTCHAR hcircumflex
ENCODING 293
SWIDTH 507 0
DWIDTH 18 0
BBX 13 27 3 0
BITMAP
0300
0580
CC80
C8C0
D000
C000
C000
C000
C000
DFC0
FFF0
C030
C018
C018
C018
C018
C018
C018
C018
C018
C018
C018
C018
C018
C018
C018
C018
ENDCHAR
STARTCHAR Hbar
ENCODING 294
SWIDTH 523 0
DWIDTH 19 0
BBX 19 23 1 0
BITMAP
300180
300180
300180
300180
300180
FFFFE0
FFFFE0
300180
300180
300180
300180
3FFF80
3FFF80
300180
300180
300180
300180
300180
300180
300180
300180
300180
300180
ENDCHAR
STARTCHAR hbar
ENCODING 295
SWIDTH 544 0
DWIDTH 20 0
BBX 16 25 1 0
BITMAP
1800
1800
1800
1800
FFE0
FFE0
1800
1800
1800
18F0
1FFC
1C06
1803
1803
1803
1803
1803
1803
1803
1803
1803
1803
1803
1803
1803
ENDCHAR
STARTCHAR Itilde
ENCODING 296
SWIDTH 230 0
DWIDTH 8 0
BBX 8 30 0 0
BITMAP
82
8F
89
D9
71
21
00
18
18
18
18
18
18
18
18
18
18
18
18
18
18
18
18
18
18
18
18
18
18
18
ENDCHAR
STARTCHAR itilde
ENCODING 297
SWIDTH 210 0
DWIDTH 8 0
BBX 8 25 0 0
BITMAP
8E
8E
93
F1
61
00
00
18
18
18
18
18
18
18
18
18
18
18
18
18
18
18
18
18
18
ENDCHAR
STARTCHAR Imacron
ENCODING 298
SWIDTH 230 0
DWIDTH 8 0
BBX 8 28 0 0
BITMAP
FF
FF
00
00
00
18
18
18
18
18
18
18
18
18
18
18
18
18
18
18
18
18
18
18
18
18
18
18
ENDCHAR
STARTCHAR imacron
ENCODING 299
SWIDTH 208 0
DWIDTH 7 0
BBX 8 23 0 0
BITMAP
FF
FE
00
00
00
18
18
18
18
18
18
18
18
18
18
18
18
18
18
18
18
18
18
ENDCHAR
STARTCHAR Ibreve
ENCODING 300
SWIDTH 231 0
DWIDTH 8 0
BBX 7 30 1 0
BITMAP
82
86
86
84
78
00
00
30
30
30
30
30
30
30
30
30
30
30
30
30
30
30
30
30
30
30
30
30
30
30
ENDCHAR
STARTCHAR ibreve
ENCODING 301
SWIDTH 211 0
DWIDTH 8 0
BBX 7 25 0 0
BITMAP
C2
C2
C2
46
7C
00
00
18
18
18
18
18
18
18
18
18
18
18
18
18
18
18
18
18
18
ENDCHAR
STARTCHAR Iogonek
ENCODING 302
SWIDTH 230 0
DWIDTH 8 0
BBX 4 27 1 -4
BITMAP
30
30
30
30
30
30
30
30
30
30
30
30
30
30
30
30
30
30
30
30
30
30
30
20
40
F0
E0
ENDCHAR
STARTCHAR iogonek
ENCODING 303
SWIDTH 210 0
DWIDTH 8 0
BBX 4 29 1 -4
BITMAP
30
30
30
30
00
00
00
30
30
30
30
30
30
30
30
30
30
30
30
30
30
30
30
30
30
60
40
E0
E0
ENDCHAR
STARTCHAR Idotaccent
ENCODING 304
SWIDTH 230 0
DWIDTH 8 0
BBX 2 28 3 0
BITMAP
C0
C0
C0
C0
00
C0
C0
C0
C0
C0
C0
C0
C0
C0
C0
C0
C0
C0
C0
C0
C0
C0
C0
C0
C0
C0
C0
C0
ENDCHAR
STARTCHAR dotlessi
ENCODING 305
SWIDTH 212 0
DWIDTH 8 0
BBX 2 18 3 0
BITMAP
C0
C0
C0
C0
C0
C0
C0
C0
C0
C0
C0
C0
C0
C0
C0
C0
C0
C0
ENDCHAR
STARTCHAR IJ
ENCODING 306
SWIDTH 721 0
DWIDTH 26 0
BBX 20 23 3 0
BITMAP
C00030
C00030
C00030
C00030
C00030
C00030
C00030
C00030
C00030
C00030
C00030
C00030
C00030
C00030
C00030
C30030
C30030
C30030
C30030
C18030
C18070
C0FFE0
C07FC0
ENDCHAR
STARTCHAR ij
ENCODING 307
SWIDTH 419 0
DWIDTH 15 0
BBX 9 30 3 -5
BITMAP
C180
C180
C180
C180
0000
0000
0000
C180
C180
C180
C180
C180
C180
C180
C180
C180
C180
C180
C180
C180
C180
C180
C180
C180
C180
0180
0180
0180
1F00
1E00
ENDCHAR
STARTCHAR Jcircumflex
ENCODING 308
SWIDTH 494 0
DWIDTH 18 0
BBX 17 30 1 0
BITMAP
000400
000E00
001200
003300
002180
000000
000000
000C00
000C00
000C00
000C00
000C00
000C00
000C00
000C00
000C00
000C00
000C00
000C00
000C00
000C00
000C00
C00C00
C00C00
C00C00
C00C00
400C00
601C00
3FF800
1FE000
ENDCHAR
STARTCHAR jcircumflex
ENCODING 309
SWIDTH 209 0
DWIDTH 8 0
BBX 9 30 -2 -5
BITMAP
0600
0B00
1900
1180
3080
0000
0000
0600
0600
0600
0600
0600
0600
0600
0600
0600
0600
0600
0600
0600
0600
0600
0600
0600
0600
0600
0600
0C00
F800
F000
ENDCHAR
STARTCHAR uni0136
ENCODING 310
SWIDTH 530 0
DWIDTH 19 0
BBX 15 31 3 -8
BITMAP
C00C
C018
C030
C070
C060
C0C0
C180
C380
C300
C600
CE00
DF00
DB00
F180
E0C0
C0C0
C060
C030
C030
C018
C00C
C00C
C006
0000
0180
0180
0100
0100
0100
0100
0100
ENDCHAR
STARTCHAR uni0137
ENCODING 311
SWIDTH 431 0
DWIDTH 16 0
BBX 12 33 3 -8
BITMAP
C000
C000
C000
C000
C000
C000
C000
C060
C060
C0C0
C180
C180
C300
C600
C600
CC00
CC00
C600
C300
C300
C180
C0C0
C0E0
C060
C030
0000
0600
0600
0400
0400
0400
0400
0800
ENDCHAR
STARTCHAR Lacute
ENCODING 313
SWIDTH 451 0
DWIDTH 16 0
BBX 12 30 3 0
BITMAP
1800
3800
3000
6000
C000
0000
0000
C000
C000
C000
C000
C000
C000
C000
C000
C000
C000
C000
C000
C000
C000
C000
C000
C000
C000
C000
C000
C000
FFF0
FFF0
ENDCHAR
STARTCHAR lacute
ENCODING 314
SWIDTH 207 0
DWIDTH 7 0
BBX 5 31 3 0
BITMAP
38
30
60
C0
80
00
C0
C0
C0
C0
C0
C0
C0
C0
C0
C0
C0
C0
C0
C0
C0
C0
C0
C0
C0
C0
C0
C0
C0
C0
C0
ENDCHAR
STARTCHAR uni013B
ENCODING 315
SWIDTH 451 0
DWIDTH 16 0
BBX 12 31 3 -8
BITMAP
C000
C000
C000
C000
C000
C000
C000
C000
C000
C000
C000
C000
C000
C000
C000
C000
C000
C000
C000
C000
C000
FFF0
FFF0
0000
0600
0600
0600
0600
0600
0400
0400
ENDCHAR
STARTCHAR uni013C
ENCODING 316
SWIDTH 211 0
DWIDTH 8 0
BBX 2 33 3 -8
BITMAP
C0
C0
C0
C0
C0
C0
C0
C0
C0
C0
C0
C0
C0
C0
C0
C0
C0
C0
C0
C0
C0
C0
C0
C0
C0
00
C0
C0
C0
80
80
80
80
ENDCHAR
STARTCHAR Lcaron
ENCODING 317
SWIDTH 451 0
DWIDTH 16 0
BBX 12 23 3 0
BITMAP
C0C0
C0C0
C0C0
C0C0
C0C0
C080
C080
C080
C000
C000
C000
C000
C000
C000
C000
C000
C000
C000
C000
C000
C000
FFF0
FFF0
ENDCHAR
STARTCHAR lcaron
ENCODING 318
SWIDTH 274 0
DWIDTH 10 0
BBX 6 25 3 0
BITMAP
CC
CC
CC
CC
CC
CC
C8
C8
C0
C0
C0
C0
C0
C0
C0
C0
C0
C0
C0
C0
C0
C0
C0
C0
C0
ENDCHAR
STARTCHAR Ldot
ENCODING 319
SWIDTH 500 0
DWIDTH 18 0
BBX 12 23 3 0
BITMAP
C000
C000
C000
C000
C000
C000
C000
C000
C000
C180
C180
C180
C180
C180
C000
C000
C000
C000
C000
C000
C000
FFF0
FFF0
ENDCHAR
STARTCHAR ldot
ENCODING 320
SWIDTH 314 0
DWIDTH 11 0
BBX 7 25 3 0
BITMAP
C0
C0
C0
C0
C0
C0
C0
C0
C0
C0
C0
C6
C6
C6
C6
C6
C0
C0
C0
C0
C0
C0
C0
C0
C0
ENDCHAR
STARTCHAR Lslash
ENCODING 321
SWIDTH 504 0
DWIDTH 18 0
BBX 16 23 0 0
BITMAP
1800
1800
1800
1800
1800
1880
1B80
1E00
3800
7800
D800
1800
1800
1800
1800
1800
1800
1800
1800
1800
1800
1FFE
1FFF
ENDCHAR
STARTCHAR lslash
ENCODING 322
SWIDTH 296 0
DWIDTH 11 0
BBX 9 25 1 0
BITMAP
1800
1800
1800
1800
1800
1800
1800
1980
1B80
1E00
3800
F800
D800
1800
1800
1800
1800
1800
1800
1800
1800
1800
1800
1800
1800
ENDCHAR
STARTCHAR Nacute
ENCODING 323
SWIDTH 579 0
DWIDTH 21 0
BBX 15 30 3 0
BITMAP
0030
0060
00E0
00C0
0180
0000
0000
C006
E006
E006
F006
F006
D806
DC06
CC06
C606
C606
C306
C306
C186
C0C6
C0C6
C066
C066
C036
C01E
C01E
C00E
C00E
C006
ENDCHAR
STARTCHAR nacute
ENCODING 324
SWIDTH 507 0
DWIDTH 18 0
BBX 13 25 3 0
BITMAP
00C0
0180
0180
0300
0200
0000
0000
DFC0
FFF0
C030
C018
C018
C018
C018
C018
C018
C018
C018
C018
C018
C018
C018
C018
C018
C018
ENDCHAR
STARTCHAR uni0145
ENCODING 325
SWIDTH 579 0
DWIDTH 21 0
BBX 15 31 3 -8
BITMAP
C006
E006
E006
F006
F006
D806
DC06
CC06
C606
C606
C306
C306
C186
C0C6
C0C6
C066
C066
C036
C01E
C01E
C00E
C00E
C006
0000
0100
0100
0100
0100
0100
0100
0200
ENDCHAR
STARTCHAR uni0146
ENCODING 326
SWIDTH 505 0
DWIDTH 18 0
BBX 13 26 3 -8
BITMAP
DFC0
FFF0
C030
C018
C018
C018
C018
C018
C018
C018
C018
C018
C018
C018
C018
C018
C018
C018
0000
0600
0600
0600
0600
0600
0400
0400
ENDCHAR
STARTCHAR Ncaron
ENCODING 327
SWIDTH 579 0
DWIDTH 21 0
BBX 15 30 3 0
BITMAP
0820
0C60
06C0
0280
0380
0000
0000
C006
E006
E006
F006
F006
D806
DC06
CC06
C606
C606
C306
C306
C186
C0C6
C0C6
C066
C066
C036
C01E
C01E
C00E
C00E
C006
ENDCHAR
STARTCHAR ncaron
ENCODING 328
SWIDTH 507 0
DWIDTH 18 0
BBX 13 25 3 0
BITMAP
10C0
1980
0D00
0700
0600
0000
0000
DFC0
FFF0
C030
C018
C018
C018
C018
C018
C018
C018
C018
C018
C018
C018
C018
C018
C018
C018
ENDCHAR
STARTCHAR Eng
ENCODING 330
SWIDTH 519 0
DWIDTH 19 0
BBX 15 28 3 -5
BITMAP
C006
E006
E006
F006
F006
D806
DC06
CC06
C606
C606
C306
C306
C186
C0C6
C0C6
C066
C066
C036
C01E
C01E
C00E
C00E
C006
0006
0006
000C
007C
00F0
ENDCHAR
STARTCHAR eng
ENCODING 331
SWIDTH 507 0
DWIDTH 18 0
BBX 13 23 3 -5
BITMAP
DFC0
FFF0
C030
C018
C018
C018
C018
C018
C018
C018
C018
C018
C018
C018
C018
C018
C018
C018
0018
0018
0030
01F0
03C0
ENDCHAR
STARTCHAR Omacron
ENCODING 332
SWIDTH 553 0
DWIDTH 20 0
BBX 14 28 3 0
BITMAP
1FE0
1FE0
0000
0000
0000
3FF0
7FF8
C01C
C00C
C00C
C00C
C00C
C00C
C00C
C00C
C00C
C00C
C00C
C00C
C00C
C00C
C00C
C00C
C00C
C00C
C00C
7FF8
3FF0
ENDCHAR
STARTCHAR omacron
ENCODING 333
SWIDTH 496 0
DWIDTH 18 0
BBX 14 23 2 0
BITMAP
1FE0
1FE0
0000
0000
0000
1FE0
3FF0
6018
C018
C00C
C00C
C00C
C00C
C00C
C00C
C00C
C00C
C00C
C00C
C018
6018
3FF0
1FE0
ENDCHAR
STARTCHAR Obreve
ENCODING 334
SWIDTH 553 0
DWIDTH 20 0
BBX 14 30 3 0
BITMAP
0840
1860
1840
0840
0780
0000
0000
3FF0
7FF8
C01C
C00C
C00C
C00C
C00C
C00C
C00C
C00C
C00C
C00C
C00C
C00C
C00C
C00C
C00C
C00C
C00C
C00C
C00C
7FF8
3FF0
ENDCHAR
STARTCHAR obreve
ENCODING 335
SWIDTH 496 0
DWIDTH 18 0
BBX 14 25 2 0
BITMAP
1860
1860
1840
0840
0780
0000
0000
1FE0
3FF0
6018
C018
C00C
C00C
C00C
C00C
C00C
C00C
C00C
C00C
C00C
C00C
C018
6018
3FF0
1FE0
ENDCHAR
STARTCHAR Ohungarumlaut
ENCODING 336
SWIDTH 553 0
DWIDTH 20 0
BBX 14 30 3 0
BITMAP
0318
0330
0620
0460
0CC0
0000
0000
3FF0
7FF8
C01C
C00C
C00C
C00C
C00C
C00C
C00C
C00C
C00C
C00C
C00C
C00C
C00C
C00C
C00C
C00C
C00C
C00C
C00C
7FF8
3FF0
ENDCHAR
STARTCHAR ohungarumlaut
ENCODING 337
SWIDTH 496 0
DWIDTH 18 0
BBX 14 25 2 0
BITMAP
0398
0330
0620
0460
0C40
0000
0000
1FE0
3FF0
6018
C018
C00C
C00C
C00C
C00C
C00C
C00C
C00C
C00C
C00C
C00C
C018
6018
3FF0
1FE0
ENDCHAR
STARTCHAR OE
ENCODING 338
SWIDTH 775 0
DWIDTH 28 0
BBX 22 23 3 0
BITMAP
3FFFFC
7FFFFC
C03000
C03000
C03000
C03000
C03000
C03000
C03000
C03000
C03FF8
C03FF8
C03000
C03000
C03000
C03000
C03000
C03000
C03000
C03000
C03000
7FFFFC
3FFFFC
ENDCHAR
STARTCHAR oe
ENCODING 339
SWIDTH 812 0
DWIDTH 29 0
BBX 25 18 2 0
BITMAP
1FE1FC00
3FF7FF00
601C0300
C01C0180
C00C0180
C00C0180
C00C0180
C00C0180
C00FFF80
C00FFF80
C00C0000
C00C0000
C00C0000
C00C0000
C01C0000
601C0000
3FF7FF00
1FE1FF80
ENDCHAR
STARTCHAR Racute
ENCODING 340
SWIDTH 534 0
DWIDTH 19 0
BBX 14 30 3 0
BITMAP
00C0
0180
0380
0300
0600
0000
0000
FFE0
FFF0
C018
C00C
C00C
C00C
C00C
C00C
C00C
C00C
C018
C038
FFF0
FFC0
C0C0
C060
C060
C030
C030
C018
C018
C00C
C00C
ENDCHAR
STARTCHAR racute
ENCODING 341
SWIDTH 313 0
DWIDTH 11 0
BBX 7 25 3 0
BITMAP
0E
1C
18
30
20
00
00
DE
FE
E0
C0
C0
C0
C0
C0
C0
C0
C0
C0
C0
C0
C0
C0
C0
C0
ENDCHAR
STARTCHAR uni0156
ENCODING 342
SWIDTH 534 0
DWIDTH 19 0
BBX 14 31 3 -8
BITMAP
FFE0
FFF0
C018
C00C
C00C
C00C
C00C
C00C
C00C
C00C
C018
C038
FFF0
FFC0
C0C0
C060
C060
C030
C030
C018
C018
C00C
C00C
0000
0300
0300
0300
0200
0200
0200
0200
ENDCHAR
STARTCHAR uni0157
ENCODING 343
SWIDTH 313 0
DWIDTH 11 0
BBX 7 26 3 -8
BITMAP
DE
FE
E0
C0
C0
C0
C0
C0
C0
C0
C0
C0
C0
C0
C0
C0
C0
C0
00
C0
C0
C0
80
80
80
80
ENDCHAR
STARTCHAR Rcaron
ENCODING 344
SWIDTH 534 0
DWIDTH 19 0
BBX 14 30 3 0
BITMAP
10C0
1880
0980
0F00
0600
0000
0000
FFE0
FFF0
C018
C00C
C00C
C00C
C00C
C00C
C00C
C00C
C018
C038
FFF0
FFC0
C0C0
C060
C060
C030
C030
C018
C018
C00C
C00C
ENDCHAR
STARTCHAR rcaron
ENCODING 345
SWIDTH 313 0
DWIDTH 11 0
BBX 7 25 3 0
BITMAP
C6
4C
68
38
30
00
00
DE
FE
E0
C0
C0
C0
C0
C0
C0
C0
C0
C0
C0
C0
C0
C0
C0
C0
ENDCHAR
STARTCHAR Sacute
ENCODING 346
SWIDTH 562 0
DWIDTH 20 0
BBX 14 30 3 0
BITMAP
0060
00C0
01C0
0180
0300
0000
0000
1FF0
7FF8
E00C
C00C
C00C
C00C
C000
C000
C000
7000
3E00
0FE0
00F8
001C
000C
000C
C00C
C00C
C00C
C00C
E00C
7FF8
1FF0
ENDCHAR
STARTCHAR sacute
ENCODING 347
SWIDTH 427 0
DWIDTH 15 0
BBX 12 25 2 0
BITMAP
0180
0300
0600
0600
0C00
0000
0000
3FE0
7FC0
C000
C000
C000
C000
E000
7800
1F00
03C0
00E0
0060
0020
0030
0030
0060
FFE0
FF80
ENDCHAR
STARTCHAR Scircumflex
ENCODING 348
SWIDTH 562 0
DWIDTH 20 0
BBX 14 30 3 0
BITMAP
0100
0380
0680
0CC0
0860
0000
0000
1FF0
7FF8
E00C
C00C
C00C
C00C
C000
C000
C000
7000
3E00
0FE0
00F8
001C
000C
000C
C00C
C00C
C00C
C00C
E00C
7FF8
1FF0
ENDCHAR
STARTCHAR scircumflex
ENCODING 349
SWIDTH 427 0
DWIDTH 15 0
BBX 12 25 2 0
BITMAP
0E00
0A00
1B00
1180
3080
0000
0000
3FE0
7FC0
C000
C000
C000
C000
E000
7800
1F00
03C0
00E0
0060
0020
0030
0030
0060
FFE0
FF80
ENDCHAR
STARTCHAR uni015E
ENCODING 350
SWIDTH 562 0
DWIDTH 20 0
BBX 14 30 3 -7
BITMAP
1FF0
7FF8
E00C
C00C
C00C
C00C
C000
C000
C000
7000
3E00
0FE0
00F8
001C
000C
000C
C00C
C00C
C00C
C00C
E00C
7FF8
1FF0
0100
0300
07C0
0040
0040
03C0
0300
ENDCHAR
STARTCHAR uni015F
ENCODING 351
SWIDTH 427 0
DWIDTH 15 0
BBX 12 25 2 -7
BITMAP
3FE0
7FC0
C000
C000
C000
C000
E000
7800
1F00
03C0
00E0
0060
0020
0030
0030
0060
FFE0
FFC0
0600
0C00
0F00
0100
0100
0F00
0C00
ENDCHAR
STARTCHAR Scaron
ENCODING 352
SWIDTH 562 0
DWIDTH 20 0
BBX 14 30 3 0
BITMAP
0860
0C40
0480
0780
0300
0000
0000
1FF0
7FF8
E00C
C00C
C00C
C00C
C000
C000
C000
7000
3E00
0FE0
00F8
001C
000C
000C
C00C
C00C
C00C
C00C
E00C
7FF8
1FF0
ENDCHAR
STARTCHAR scaron
ENCODING 353
SWIDTH 427 0
DWIDTH 15 0
BBX 12 25 2 0
BITMAP
3180
1100
1B00
0A00
0400
0000
0000
3FE0
7FC0
C000
C000
C000
C000
E000
7800
1F00
03C0
00E0
0060
0020
0030
0030
0060
FFE0
FF80
ENDCHAR
STARTCHAR uni0162
ENCODING 354
SWIDTH 420 0
DWIDTH 15 0
BBX 13 31 1 -8
BITMAP
FFF8
FFF8
0200
0200
0200
0200
0200
0200
0200
0200
0200
0200
0200
0200
0200
0200
0200
0200
0200
0200
0200
0200
0200
0000
0300
0300
0300
0200
0200
0200
0200
ENDCHAR
STARTCHAR uni0163
ENCODING 355
SWIDTH 347 0
DWIDTH 12 0
BBX 10 30 1 -8
BITMAP
1000
1800
1800
1800
FFC0
FF80
1800
1800
1800
1800
1800
1800
1800
1800
1800
1800
1800
1800
1800
1C00
0FC0
03C0
0000
0200
0200
0200
0200
0200
0200
0400
ENDCHAR
STARTCHAR Tcaron
ENCODING 356
SWIDTH 420 0
DWIDTH 15 0
BBX 13 30 1 0
BITMAP
1040
08C0
0D80
0500
0700
0000
0000
FFF8
FFF8
0200
0200
0200
0200
0200
0200
0200
0200
0200
0200
0200
0200
0200
0200
0200
0200
0200
0200
0200
0200
0200
ENDCHAR
STARTCHAR tcaron
ENCODING 357
SWIDTH 396 0
DWIDTH 14 0
BBX 13 23 1 0
BITMAP
0018
1818
1818
1818
1818
FFD0
FF90
1810
1800
1800
1800
1800
1800
1800
1800
1800
1800
1800
1800
1800
1C00
0FC0
03C0
ENDCHAR
STARTCHAR Tbar
ENCODING 358
SWIDTH 501 0
DWIDTH 18 0
BBX 14 23 1 0
BITMAP
FFFC
FFF8
0300
0300
0300
0300
0300
0300
0300
0300
3FF0
3FF0
0300
0300
0300
0300
0300
0300
0300
0300
0300
0300
0300
ENDCHAR
STARTCHAR tbar
ENCODING 359
SWIDTH 350 0
DWIDTH 13 0
BBX 10 22 1 0
BITMAP
1000
1800
1800
1800
FFC0
FF80
1800
1800
1800
1800
1800
FFC0
FF80
1800
1800
1800
1800
1800
1800
1C00
0FC0
03C0
ENDCHAR
STARTCHAR Utilde
ENCODING 360
SWIDTH 552 0
DWIDTH 20 0
BBX 14 30 3 0
BITMAP
1080
11C0
1360
1220
1E20
0820
0000
C00C
C00C
C00C
C00C
C00C
C00C
C00C
C00C
C00C
C00C
C00C
C00C
C00C
C00C
C00C
C00C
C00C
C00C
C00C
C00C
E018
7FF8
3FE0
ENDCHAR
STARTCHAR utilde
ENCODING 361
SWIDTH 507 0
DWIDTH 18 0
BBX 13 25 3 0
BITMAP
2380
23C0
2640
3C40
1C40
0000
0000
8018
8018
8018
8018
8018
8018
8018
8018
8018
8018
8018
8018
8018
8018
C038
C038
7FD8
3F98
ENDCHAR
STARTCHAR Umacron
ENCODING 362
SWIDTH 552 0
DWIDTH 20 0
BBX 14 28 3 0
BITMAP
1FE0
1FE0
0000
0000
0000
C00C
C00C
C00C
C00C
C00C
C00C
C00C
C00C
C00C
C00C
C00C
C00C
C00C
C00C
C00C
C00C
C00C
C00C
C00C
C00C
E018
7FF8
3FE0
ENDCHAR
STARTCHAR umacron
ENCODING 363
SWIDTH 507 0
DWIDTH 18 0
BBX 13 23 3 0
BITMAP
3FC0
3FC0
0000
0000
0000
8018
8018
8018
8018
8018
8018
8018
8018
8018
8018
8018
8018
8018
8018
C038
C038
7FD8
3F98
ENDCHAR
STARTCHAR Ubreve
ENCODING 364
SWIDTH 552 0
DWIDTH 20 0
BBX 14 30 3 0
BITMAP
0840
1860
1840
0840
0780
0000
0000
C00C
C00C
C00C
C00C
C00C
C00C
C00C
C00C
C00C
C00C
C00C
C00C
C00C
C00C
C00C
C00C
C00C
C00C
C00C
C00C
E018
7FF8
3FE0
ENDCHAR
STARTCHAR ubreve
ENCODING 365
SWIDTH 507 0
DWIDTH 18 0
BBX 13 25 3 0
BITMAP
30C0
30C0
1080
1080
0F00
0000
0000
8018
8018
8018
8018
8018
8018
8018
8018
8018
8018
8018
8018
8018
8018
C038
C038
7FD8
3F98
ENDCHAR
STARTCHAR Uring
ENCODING 366
SWIDTH 552 0
DWIDTH 20 0
BBX 14 31 3 0
BITMAP
0780
0FC0
0840
0840
0840
08C0
0F80
0300
C00C
C00C
C00C
C00C
C00C
C00C
C00C
C00C
C00C
C00C
C00C
C00C
C00C
C00C
C00C
C00C
C00C
C00C
C00C
C00C
E018
7FF8
3FE0
ENDCHAR
STARTCHAR uring
ENCODING 367
SWIDTH 507 0
DWIDTH 18 0
BBX 13 26 3 0
BITMAP
1F00
1F00
1100
1100
1F00
1F00
0000
0000
8018
8018
8018
8018
8018
8018
8018
8018
8018
8018
8018
8018
8018
8018
C038
C038
7FD8
3F98
ENDCHAR
STARTCHAR Uhungarumlaut
ENCODING 368
SWIDTH 552 0
DWIDTH 20 0
BBX 14 30 3 0
BITMAP
0318
0230
0660
0C60
08C0
0000
0000
C00C
C00C
C00C
C00C
C00C
C00C
C00C
C00C
C00C
C00C
C00C
C00C
C00C
C00C
C00C
C00C
C00C
C00C
C00C
C00C
E018
7FF8
3FE0
ENDCHAR
STARTCHAR uhungarumlaut
ENCODING 369
SWIDTH 507 0
DWIDTH 18 0
BBX 13 25 3 0
BITMAP
0730
0660
0C60
08C0
1880
0000
0000
8018
8018
8018
8018
8018
8018
8018
8018
8018
8018
8018
8018
8018
8018
C038
C038
7FD8
3F98
ENDCHAR
STARTCHAR Uogonek
ENCODING 370
SWIDTH 552 0
DWIDTH 20 0
BBX 14 27 3 -4
BITMAP
C00C
C00C
C00C
C00C
C00C
C00C
C00C
C00C
C00C
C00C
C00C
C00C
C00C
C00C
C00C
C00C
C00C
C00C
C00C
C00C
E018
7FF8
3FE0
0100
0200
0700
0700
ENDCHAR
STARTCHAR uogonek
ENCODING 371
SWIDTH 503 0
DWIDTH 18 0
BBX 13 22 3 -4
BITMAP
8018
8018
8018
8018
8018
8018
8018
8018
8018
8018
8018
8018
8018
8018
C038
C038
7FD8
3F98
0020
0040
00E0
00E0
ENDCHAR
STARTCHAR Wcircumflex
ENCODING 372
SWIDTH 795 0
DWIDTH 29 0
BBX 26 30 1 0
BITMAP
00040000
000E0000
001A0000
00130000
00318000
00000000
00000000
C00C00C0
C00E00C0
600E00C0
601A00C0
601B00C0
60130180
20330180
30310180
30318180
30218300
30618300
10608300
1860C300
1840C300
18C04600
08C04600
0CC06600
0C806600
0D802400
0D803C00
05003C00
07003C00
07001C00
ENDCHAR
STARTCHAR wcircumflex
ENCODING 373
SWIDTH 682 0
DWIDTH 25 0
BBX 23 25 1 0
BITMAP
003000
006800
004C00
00C400
008600
000000
000000
C03006
C03806
C0380C
60680C
60680C
604C18
204C18
30C418
30C410
308630
108630
198230
198320
090360
0F0160
0F0140
0F01C0
0601C0
ENDCHAR
STARTCHAR Ycircumflex
ENCODING 374
SWIDTH 493 0
DWIDTH 18 0
BBX 16 30 1 0
BITMAP
0100
0380
02C0
0660
0C20
0000
0000
C003
E006
6006
700C
300C
3018
1818
1830
0C30
0C60
0660
06C0
03C0
0380
0180
0180
0180
0180
0180
0180
0180
0180
0180
ENDCHAR
STARTCHAR ycircumflex
ENCODING 375
SWIDTH 459 0
DWIDTH 17 0
BBX 15 30 1 -5
BITMAP
0380
0280
06C0
0440
0C60
0000
0000
C006
C00C
600C
6008
2018
3018
3030
1030
1830
1860
0860
0C60
0CC0
06C0
06C0
0780
0380
0100
0300
0300
0600
7C00
7800
ENDCHAR
STARTCHAR Ydieresis
ENCODING 376
SWIDTH 493 0
DWIDTH 18 0
BBX 16 30 1 0
BITMAP
0C30
0C30
0C30
0C30
0C30
0000
0000
C003
E006
6006
700C
300C
3018
1818
1830
0C30
0C60
0660
06C0
03C0
0380
0180
0180
0180
0180
0180
0180
0180
0180
0180
ENDCHAR
STARTCHAR Zacute
ENCODING 377
SWIDTH 482 0
DWIDTH 17 0
BBX 14 30 2 0
BITMAP
0060
00E0
00C0
0180
0300
0000
0000
FFF8
FFF8
0018
0038
0030
0060
00E0
00C0
0180
0180
0300
0700
0600
0C00
0C00
1800
3800
3000
6000
6000
C000
FFFC
FFFC
ENDCHAR
STARTCHAR zacute
ENCODING 378
SWIDTH 405 0
DWIDTH 15 0
BBX 12 25 1 0
BITMAP
0060
00C0
0180
0180
0300
0000
0000
FFF0
7FF0
0060
0060
00C0
01C0
0180
0300
0700
0600
0C00
0C00
1800
3800
3000
6000
FFF0
FFF0
ENDCHAR
STARTCHAR Zdotaccent
ENCODING 379
SWIDTH 482 0
DWIDTH 17 0
BBX 14 29 2 0
BITMAP
0300
0300
0300
0300
0000
0000
FFF8
FFF8
0018
0038
0030
0060
00E0
00C0
0180
0180
0300
0700
0600
0C00
0C00
1800
3800
3000
6000
6000
C000
FFFC
FFFC
ENDCHAR
STARTCHAR zdotaccent
ENCODING 380
SWIDTH 405 0
DWIDTH 15 0
BBX 12 25 1 0
BITMAP
0300
0300
0300
0300
0000
0000
0000
FFF0
7FF0
0060
0060
00C0
01C0
0180
0300
0700
0600
0C00
0C00
1800
3800
3000
6000
FFF0
FFF0
ENDCHAR
STARTCHAR Zcaron
ENCODING 381
SWIDTH 482 0
DWIDTH 17 0
BBX 14 30 2 0
BITMAP
0820
0C40
04C0
0680
0380
0000
0000
FFF8
FFF8
0018
0038
0030
0060
00E0
00C0
0180
0180
0300
0700
0600
0C00
0C00
1800
3800
3000
6000
6000
C000
FFFC
FFFC
ENDCHAR
STARTCHAR zcaron
ENCODING 382
SWIDTH 405 0
DWIDTH 15 0
BBX 12 25 1 0
BITMAP
0860
0CC0
0480
0780
0300
0000
0000
FFF0
7FF0
0060
0060
00C0
01C0
0180
0300
0700
0600
0C00
0C00
1800
3800
3000
6000
FFF0
FFF0
ENDCHAR
STARTCHAR florin
ENCODING 402
SWIDTH 494 0
DWIDTH 18 0
BBX 16 30 1 -5
BITMAP
000F
001F
0030
0020
0060
0060
0060
0040
00C0
00C0
00C0
0FFC
0FFC
0180
0180
0180
0180
0300
0300
0300
0300
0200
0600
0600
0600
0600
0C00
0C00
F800
F000
ENDCHAR
STARTCHAR AEacute
ENCODING 508
SWIDTH 773 0
DWIDTH 28 0
BBX 25 30 0 0
BITMAP
00006000
0000E000
0000C000
00018000
00030000
00000000
00000000
000FFF80
000FFF80
001A0000
001A0000
00320000
00720000
00620000
00C20000
00C20000
01820000
0183FF00
0303FF00
03020000
06020000
06020000
0FFE0000
1FFE0000
18020000
30020000
30020000
60020000
6003FF80
C003FF80
ENDCHAR
STARTCHAR aeacute
ENCODING 509
SWIDTH 795 0
DWIDTH 29 0
BBX 24 25 2 0
BITMAP
000380
000300
000600
000C00
000800
000000
000000
3FE3FC
3FF7FE
001C03
001C03
001801
001801
001801
1FF801
7FF801
601FFF
C01FFF
C01800
C01800
C01800
C01C00
603C00
3FF7FF
1FC3FF
ENDCHAR
STARTCHAR Oslashacute
ENCODING 510
SWIDTH 558 0
DWIDTH 20 0
BBX 16 30 2 0
BITMAP
0030
0060
00E0
00C0
0180
0000
0000
1FF9
3FFD
6007
6006
600E
600A
601A
6032
6062
6042
60C2
6182
6102
6302
6602
6C02
6802
7802
7006
6006
6006
FFFC
9FF8
ENDCHAR
STARTCHAR oslashacute
ENCODING 511
SWIDTH 521 0
DWIDTH 19 0
BBX 17 25 1 0
BITMAP
003800
003000
006000
00C000
008000
000000
000000
0FF000
1FFD80
300F00
300600
300E00
301E00
303600
306600
30C600
318600
330600
360600
3C0600
380600
300600
700C00
DFFC00
0FF000
ENDCHAR
STARTCHAR uni0218
ENCODING 536
SWIDTH 562 0
DWIDTH 20 0
BBX 14 31 3 -8
BITMAP
1FF0
7FF8
E00C
C00C
C00C
C00C
C000
C000
C000
7000
3E00
0FE0
00F8
001C
000C
000C
C00C
C00C
C00C
C00C
E00C
7FF8
1FF0
0000
0100
0100
0100
0100
0100
0100
0200
ENDCHAR
STARTCHAR uni0219
ENCODING 537
SWIDTH 427 0
DWIDTH 15 0
BBX 12 26 2 -8
BITMAP
3FE0
7FC0
C000
C000
C000
C000
E000
7800
1F00
03C0
00E0
0060
0020
0030
0030
0060
FFE0
FF80
0000
0600
0600
0600
0600
0600
0400
0400
ENDCHAR
STARTCHAR circumflex
ENCODING 710
SWIDTH 326 0
DWIDTH 12 0
BBX 7 4 2 21
BITMAP
18
3C
64
C6
ENDCHAR
STARTCHAR caron
ENCODING 711
SWIDTH 326 0
DWIDTH 12 0
BBX 7 4 2 21
BITMAP
C2
66
2C
38
ENDCHAR
STARTCHAR uni02C9
ENCODING 713
SWIDTH 358 0
DWIDTH 13 0
BBX 9 2 2 21
BITMAP
FF80
7F00
ENDCHAR
STARTCHAR breve
ENCODING 728
SWIDTH 332 0
DWIDTH 12 0
BBX 8 4 2 21
BITMAP
C3
C3
42
7C
ENDCHAR
STARTCHAR dotaccent
ENCODING 729
SWIDTH 183 0
DWIDTH 7 0
BBX 2 4 2 21
BITMAP
C0
C0
C0
C0
ENDCHAR
STARTCHAR ring
ENCODING 730
SWIDTH 297 0
DWIDTH 11 0
BBX 6 7 2 20
BITMAP
70
F8
8C
84
84
FC
78
ENDCHAR
STARTCHAR ogonek
ENCODING 731
SWIDTH 243 0
DWIDTH 9 0
BBX 4 5 2 -4
BITMAP
10
20
60
E0
70
ENDCHAR
STARTCHAR tilde
ENCODING 732
SWIDTH 369 0
DWIDTH 13 0
BBX 8 6 2 19
BITMAP
86
8F
89
D9
71
21
ENDCHAR
STARTCHAR hungarumlaut
ENCODING 733
SWIDTH 377 0
DWIDTH 14 0
BBX 9 5 2 20
BITMAP
1980
3100
2300
6600
C400
ENDCHAR
STARTCHAR Mu
ENCODING 924
SWIDTH 527 0
DWIDTH 19 0
BBX 13 24 3 -5
BITMAP
C018
C018
C018
C018
C018
C018
C018
C018
C018
C018
C018
C018
C018
C018
C018
C018
E038
FFF8
DFD8
C000
C000
C000
C000
C000
ENDCHAR
STARTCHAR Pi
ENCODING 928
SWIDTH 605 0
DWIDTH 22 0
BBX 19 24 1 0
BITMAP
7FFFE0
FFFFE0
0C0300
0C0300
0C0300
0C0300
0C0300
0C0300
0C0300
0C0300
0C0300
0C0300
0C0300
0C0300
0C0300
0C0300
0C0300
0C0300
0C0300
0C0300
0C0300
0C0300
0C0300
0C0300
ENDCHAR
STARTCHAR Sigma
ENCODING 931
SWIDTH 481 0
DWIDTH 17 0
BBX 13 24 2 0
BITMAP
7FF8
FFF8
E000
6000
3000
3000
1800
1C00
0C00
0600
0600
0300
0300
0300
0600
0600
0C00
1800
1800
3000
7000
6000
FFF8
FFF8
ENDCHAR
STARTCHAR uni0901
ENCODING 2305
SWIDTH 0 0
DWIDTH 0 0
BBX 12 7 -10 25
BITMAP
0600
0600
C030
C030
4060
7FE0
3FC0
ENDCHAR
STARTCHAR uni0902
ENCODING 2306
SWIDTH 0 0
DWIDTH 0 0
BBX 2 2 -5 27
BITMAP
C0
C0
ENDCHAR
STARTCHAR uni0903
ENCODING 2307
SWIDTH 247 0
DWIDTH 9 0
BBX 2 13 3 3
BITMAP
C0
C0
00
00
00
00
00
00
00
00
00
C0
C0
ENDCHAR
STARTCHAR uni0905
ENCODING 2309
SWIDTH 598 0
DWIDTH 22 0
BBX 21 23 1 0
BITMAP
3F00F8
3F81F8
00C180
00C180
004180
004180
004180
004180
00C180
018180
3F0180
1F8180
00FF80
00FF80
004180
004180
004180
004180
00C180
01C180
FF8180
7C0180
000180
ENDCHAR
STARTCHAR uni0906
ENCODING 2310
SWIDTH 828 0
DWIDTH 30 0
BBX 29 23 1 0
BITMAP
7F01FFF8
3F81FFF8
00C180C0
00C180C0
004180C0
004180C0
004180C0
00C180C0
00C180C0
018180C0
3F0180C0
1F8180C0
00FF80C0
00FF80C0
004180C0
004180C0
004180C0
00C180C0
00C180C0
018180C0
FF8180C0
7C0180C0
000180C0
ENDCHAR
STARTCHAR uni0907
ENCODING 2311
SWIDTH 478 0
DWIDTH 17 0
BBX 19 25 -1 -2
BITMAP
FFFFE0
7FFFC0
000600
000600
000600
00FE00
07FE00
0C0000
080000
080000
080000
080000
0C0000
07FC00
00FE00
000300
000300
180300
180300
180300
1C0700
1FFE00
18F000
180000
180000
ENDCHAR
STARTCHAR uni0908
ENCODING 2312
SWIDTH 478 0
DWIDTH 17 0
BBX 19 34 -1 -2
BITMAP
000F80
001F80
003800
003000
003000
003000
003000
003000
003000
FFFFE0
7FFFC0
000600
000600
000600
00FE00
07FE00
0C0000
080000
080000
080000
080000
0C0000
07FC00
00FE00
000300
000300
180300
180300
180300
1C0700
1FFE00
18F000
180000
180000
ENDCHAR
STARTCHAR uni0909
ENCODING 2313
SWIDTH 471 0
DWIDTH 17 0
BBX 18 23 -1 0
BITMAP
FFFFC0
7FFFC0
000600
000600
000200
000200
000200
000200
000600
000600
00FC00
00FC00
000E00
000600
000200
100300
100300
100300
100200
180600
180600
0FFC00
07F800
ENDCHAR
STARTCHAR uni090A
ENCODING 2314
SWIDTH 661 0
DWIDTH 24 0
BBX 25 23 -1 0
BITMAP
FFFFFF80
7FFFFF80
00060000
00060000
00020000
00020000
00020000
00020000
00060000
00060000
00FC0000
00FFF800
000FFE00
00060600
00020200
10030300
10030300
10030300
18020300
18060600
18060600
0FFC3C00
07F82000
ENDCHAR
STARTCHAR uni090B
ENCODING 2315
SWIDTH 753 0
DWIDTH 27 0
BBX 29 23 -1 0
BITMAP
FFFFFFF8
7FFFFFF0
00020000
00020000
00020000
00020000
00020000
03F20380
0FFE0680
0C060C80
18063880
18027080
1802E080
18038080
08030780
000E0C00
001E1800
00321800
00621800
01C21800
03821800
06020F80
0C0207C0
ENDCHAR
STARTCHAR uni090C
ENCODING 2316
SWIDTH 676 0
DWIDTH 24 0
BBX 26 31 -1 -8
BITMAP
FFFFFFC0
7FFFFFC0
00000C00
00000C00
00000C00
00000C00
00000C00
03E1EC00
07F7FC00
0C1C0C00
0C0C0C00
080C0C00
080C0C00
080C0C00
080C0C00
08080C00
08000C00
08000C00
0C000C00
0E000C00
07E00C00
01E03C00
0000FC00
0000C000
00008000
00008000
00008000
0000C080
0000C1C0
00007F80
00000800
ENDCHAR
STARTCHAR uni090D
ENCODING 2317
SWIDTH 521 0
DWIDTH 19 0
BBX 20 31 -1 1
BITMAP
060100
060100
020300
03FF00
01FC00
000000
000000
000000
000000
FFFFF0
7FFFF0
0C0080
0C0080
0C0080
0C0080
0C0080
0C0080
0C0080
0C0180
0C0380
0C1F00
0C1800
0C0000
0C0000
0C0000
0C0000
0C0000
040000
060000
03FF00
01FF00
ENDCHAR
STARTCHAR uni090E
ENCODING 2318
SWIDTH 522 0
DWIDTH 19 0
BBX 20 31 -1 1
BITMAP
00C000
00C000
00C000
006000
003800
000E00
000380
000180
000080
FFFFF0
7FFFF0
0C0080
0C0080
0C0080
0C0080
0C0080
0C0080
0C0080
0C0180
0C0380
0C1F00
0C1800
0C0000
0C0000
0C0000
0C0000
0C0000
040000
060000
03FF00
01FF00
ENDCHAR
STARTCHAR uni090F
ENCODING 2319
SWIDTH 526 0
DWIDTH 19 0
BBX 20 22 -1 1
BITMAP
FFFFF0
7FFFF0
0C0080
0C0080
0C0080
0C0080
0C0080
0C0080
0C0080
0C0180
0C0380
0C1F00
0C1800
0C0000
0C0000
0C0000
0C0000
0C0000
040000
060000
03FF00
01FF00
ENDCHAR
STARTCHAR uni0910
ENCODING 2320
SWIDTH 526 0
DWIDTH 19 0
BBX 20 31 -1 1
BITMAP
003000
003000
001800
000C00
000C00
000600
000300
000100
000180
FFFFF0
7FFFF0
0C0080
0C0080
0C0080
0C0080
0C0080
0C0080
0C0080
0C0180
0C0380
0C1F00
0C1800
0C0000
0C0000
0C0000
0C0000
0C0000
040000
060000
03FF00
01FF00
ENDCHAR
STARTCHAR uni0911
ENCODING 2321
SWIDTH 829 0
DWIDTH 30 0
BBX 29 30 1 0
BITMAP
00018040
000180C0
0000C0C0
0000FF80
00001C00
00000000
00000000
3F00FFF8
3F81FFF8
00C180C0
00C180C0
004180C0
004180C0
004180C0
004180C0
00C180C0
018180C0
3F0180C0
1F8180C0
00FF80C0
00FF80C0
004180C0
004180C0
004180C0
004180C0
00C180C0
01C180C0
FF8180C0
7C0180C0
000180C0
ENDCHAR
STARTCHAR uni0912
ENCODING 2322
SWIDTH 828 0
DWIDTH 30 0
BBX 29 32 1 0
BITMAP
0000C000
0000C000
0000C000
00006000
00003800
00000E00
00000380
00000180
000000C0
3F00FFF8
3F81FFF8
00C180C0
00C180C0
004180C0
004180C0
004180C0
004180C0
00C180C0
018180C0
3F0180C0
1F8180C0
00FF80C0
00FF80C0
004180C0
004180C0
004180C0
004180C0
00C180C0
01C180C0
FF8180C0
7C0180C0
000180C0
ENDCHAR
STARTCHAR uni0913
ENCODING 2323
SWIDTH 829 0
DWIDTH 30 0
BBX 29 32 1 0
BITMAP
00003000
00003800
00001800
00000C00
00000E00
00000600
00000300
00000180
00000080
3F00FFF8
3F81FFF8
00C180C0
00C180C0
004180C0
004180C0
004180C0
004180C0
00C180C0
018180C0
3F0180C0
1F8180C0
00FF80C0
00FF80C0
004180C0
004180C0
004180C0
004180C0
00C180C0
01C180C0
FF8180C0
7C0180C0
000180C0
ENDCHAR
STARTCHAR uni0914
ENCODING 2324
SWIDTH 829 0
DWIDTH 30 0
BBX 29 32 1 0
BITMAP
000070C0
000030C0
000018C0
000018C0
00000CC0
000006C0
000002C0
000003C0
000001C0
3F00FFF8
3F81FFF8
00C180C0
00C180C0
004180C0
004180C0
004180C0
004180C0
00C180C0
018180C0
3F0180C0
1F8180C0
00FF80C0
00FF80C0
004180C0
004180C0
004180C0
004180C0
00C180C0
01C180C0
FF8180C0
7C0180C0
000180C0
ENDCHAR
STARTCHAR uni0915
ENCODING 2325
SWIDTH 725 0
DWIDTH 26 0
BBX 28 23 -1 0
BITMAP
FFFFFFF0
7FFFFFE0
00060000
00060000
00060000
00C63000
07E7FE00
0C070300
08060180
18060180
18060180
18060180
18060180
18060180
18060180
18060180
08060180
0C0E0300
07FE3E00
00C63000
00060000
00060000
00060000
ENDCHAR
STARTCHAR uni0916
ENCODING 2326
SWIDTH 696 0
DWIDTH 25 0
BBX 27 23 -1 0
BITMAP
FFFFFFE0
7FFFFFC0
00C00600
00C00600
00C00600
00C00600
00C1C600
00C3C600
00C60600
00C40600
01CC0600
3F8C0600
3C0C0600
18040600
0C040600
0C060E00
0603FE00
0301F600
03000600
01800600
00C00600
00C00600
00600600
ENDCHAR
STARTCHAR uni0917
ENCODING 2327
SWIDTH 494 0
DWIDTH 18 0
BBX 19 23 -1 0
BITMAP
FFFFE0
7FFFE0
030200
030200
030200
030200
030200
030200
030200
030200
030200
020200
060200
3E0200
380200
000200
000200
000200
000200
000200
000200
000200
000200
ENDCHAR
STARTCHAR uni0918
ENCODING 2328
SWIDTH 559 0
DWIDTH 20 0
BBX 22 23 -1 0
BITMAP
FFFFFC
7FFFF8
0C00C0
0800C0
0800C0
0800C0
0800C0
0C00C0
0C00C0
07E0C0
07E0C0
0C00C0
0800C0
0800C0
0800C0
0800C0
0C00C0
0C01C0
07FFC0
03FEC0
0000C0
0000C0
0000C0
ENDCHAR
STARTCHAR uni0919
ENCODING 2329
SWIDTH 505 0
DWIDTH 18 0
BBX 20 23 -1 0
BITMAP
FFFFF0
7FFFE0
000600
000600
000600
000600
03FE00
0FFC00
0C0000
080000
0800C0
0C00C0
0C0000
07FC00
00FE00
000300
000300
000300
080300
080300
0C0300
0FFE00
07FC00
ENDCHAR
STARTCHAR uni091A
ENCODING 2330
SWIDTH 563 0
DWIDTH 20 0
BBX 22 23 -1 0
BITMAP
FFFFFC
7FFFF8
0000C0
0000C0
0000C0
0000C0
0000C0
3FF8C0
3FF0C0
0600C0
0600C0
0600C0
0600C0
0600C0
0600C0
0600C0
0601C0
03FFC0
01FEC0
0000C0
0000C0
0000C0
0000C0
ENDCHAR
STARTCHAR uni091B
ENCODING 2331
SWIDTH 581 0
DWIDTH 21 0
BBX 22 22 -1 1
BITMAP
FFFFFC
7FFFFC
0C0040
0C0040
0C0040
0C0040
0C0040
0C07C0
0C07C0
0E0060
07C060
07C020
0C0020
0C0020
0C0020
0C0020
0C0020
0C0060
0C0060
0E00C0
07FFC0
00FE00
ENDCHAR
STARTCHAR uni091C
ENCODING 2332
SWIDTH 547 0
DWIDTH 20 0
BBX 21 23 -1 0
BITMAP
FFFFF8
7FFFF8
000080
000080
000080
000080
000080
0FFF80
0FFF80
00C080
006080
006080
006080
006080
006080
006080
006080
006080
00C080
3FC080
3E0080
000080
000080
ENDCHAR
STARTCHAR uni091D
ENCODING 2333
SWIDTH 664 0
DWIDTH 24 0
BBX 25 24 -1 -1
BITMAP
FFFFFF80
7FFFFF80
000C0C00
000C0C00
000C0C00
03FC0C00
0FF80C00
0C000C00
08000C00
08000C00
08000C00
0C000C00
07FFFC00
00FFFC00
00040C00
00060C00
18060C00
18060C00
18060C00
1C0C0C00
1FFC0C00
18E00C00
18000C00
18000000
ENDCHAR
STARTCHAR uni091E
ENCODING 2334
SWIDTH 592 0
DWIDTH 21 0
BBX 23 23 -1 0
BITMAP
FFFFFE
7FFFFC
000060
000060
000060
000060
1F8060
1FC060
006060
002060
002060
002060
003FE0
003FE0
002060
002060
006060
006060
1FC060
1E0060
000060
000060
000060
ENDCHAR
STARTCHAR uni091F
ENCODING 2335
SWIDTH 485 0
DWIDTH 17 0
BBX 19 22 -1 1
BITMAP
FFFFE0
7FFFE0
000600
000600
000600
000600
000600
03FE00
07FC00
0C0000
080000
180000
180000
180000
180100
180180
180180
180180
0C0300
0E0300
07FE00
00F000
ENDCHAR
STARTCHAR uni0920
ENCODING 2336
SWIDTH 512 0
DWIDTH 18 0
BBX 20 22 -1 1
BITMAP
FFFFF0
7FFFF0
000600
000600
000600
000600
000600
03FC00
07FE00
0C0300
080180
180180
180180
180180
180180
180180
180180
180180
0C0300
0E0300
07FE00
00F000
ENDCHAR
STARTCHAR uni0921
ENCODING 2337
SWIDTH 475 0
DWIDTH 17 0
BBX 19 23 -1 0
BITMAP
FFFFE0
7FFFC0
000600
000600
000600
000600
03FE00
0FFC00
0C0000
080000
080000
0C0000
0C0000
07FC00
00FE00
000300
000300
000300
080300
080300
0C0300
0FFE00
03FC00
ENDCHAR
STARTCHAR uni0922
ENCODING 2338
SWIDTH 485 0
DWIDTH 17 0
BBX 19 22 -1 1
BITMAP
FFFFE0
7FFFE0
000600
000600
000600
000600
00FE00
07FE00
0E0000
0C0000
080000
180000
181E00
183F00
182180
182180
182180
080180
0C0180
0E0300
07FE00
00F800
ENDCHAR
STARTCHAR uni0923
ENCODING 2339
SWIDTH 681 0
DWIDTH 25 0
BBX 26 23 -1 0
BITMAP
FFFFFFC0
7FFFFFC0
0C040400
0C040400
0C040400
0C040400
0C040400
0C040400
0C040400
0C040400
0C040400
0C040400
0C040400
0C0C0400
061C0400
07F80400
00C00400
00000400
00000400
00000400
00000400
00000400
00000400
ENDCHAR
STARTCHAR uni0924
ENCODING 2340
SWIDTH 496 0
DWIDTH 18 0
BBX 19 23 -1 0
BITMAP
FFFFE0
7FFFE0
000300
000300
000300
000300
000300
000300
03FF00
0FFF00
0C0300
180300
180300
180300
180300
180300
180300
180300
180300
180300
0C0300
0F8300
03C300
ENDCHAR
STARTCHAR uni0925
ENCODING 2341
SWIDTH 593 0
DWIDTH 21 0
BBX 20 23 2 0
BITMAP
1F03F0
3F83F0
60C300
60C300
60C300
60C300
00C300
00C300
018300
7F8300
FF0300
C00300
C00300
C00300
C00300
400300
600700
3FFF00
1FFB00
000300
000300
000300
000300
ENDCHAR
STARTCHAR uni0926
ENCODING 2342
SWIDTH 489 0
DWIDTH 18 0
BBX 19 23 -1 0
BITMAP
FFFFE0
7FFFE0
000200
000200
000200
000200
03FE00
07FE00
0C0000
080000
180000
180000
180000
180000
180300
180300
080300
0C0300
07FF00
03FB00
000300
000300
000300
ENDCHAR
STARTCHAR uni0927
ENCODING 2343
SWIDTH 560 0
DWIDTH 20 0
BBX 22 23 -1 0
BITMAP
FF8FFC
7F87F8
0C00C0
0800C0
0800C0
0800C0
0800C0
0C00C0
0C00C0
07E0C0
07E0C0
0C00C0
0C00C0
0800C0
0800C0
0800C0
0800C0
0C00C0
0E03C0
07FEC0
00F8C0
0000C0
0000C0
ENDCHAR
STARTCHAR uni0928
ENCODING 2344
SWIDTH 473 0
DWIDTH 17 0
BBX 19 23 -1 0
BITMAP
FFFFE0
7FFFC0
000600
000600
000600
000600
000600
000600
000600
0FFE00
1FFE00
180600
100600
100600
180600
180600
000600
000600
000600
000600
000600
000600
000600
ENDCHAR
STARTCHAR uni0928093C
ENCODING 2345
SWIDTH 473 0
DWIDTH 17 0
BBX 19 24 -1 -1
BITMAP
FFFFE0
7FFFC0
000600
000600
000600
000600
000600
000600
000600
0FFE00
1FFE00
180600
100600
100600
180600
180600
000600
000600
000600
000600
000600
000600
030600
010000
ENDCHAR
STARTCHAR uni092A
ENCODING 2346
SWIDTH 503 0
DWIDTH 18 0
BBX 20 23 -1 0
BITMAP
FFFFF0
7FFFE0
0C0300
0C0300
0C0300
0C0300
0C0300
0C0300
0C0300
0C0300
0C0300
0C0300
0C0300
0C0300
060700
03FF00
00F300
000300
000300
000300
000300
000300
000300
ENDCHAR
STARTCHAR uni092B
ENCODING 2347
SWIDTH 739 0
DWIDTH 27 0
BBX 28 23 -1 0
BITMAP
FFFFFFF0
7FFFFFF0
0C020000
0C020000
0C020000
0C021800
0C02FF00
0C038380
0C030180
0C020080
0C020080
0C020080
0C060080
0E060080
07FA0080
01F20080
00020180
00020380
00023F00
00023800
00020000
00020000
00020000
ENDCHAR
STARTCHAR uni092C
ENCODING 2348
SWIDTH 491 0
DWIDTH 18 0
BBX 19 23 -1 0
BITMAP
FFFFE0
7FFFE0
000200
000200
000200
03E200
07E200
0C0200
1E0200
1B0200
198200
18C200
186200
183200
181A00
180E00
180600
0C0600
07FA00
03F200
000200
000200
000200
ENDCHAR
STARTCHAR uni092D
ENCODING 2349
SWIDTH 491 0
DWIDTH 18 0
BBX 19 23 -1 0
BITMAP
F03FE0
783FE0
180200
0C0200
0C0200
0C0200
0C0200
0C0200
0C0200
0C0200
0FFE00
0FFE00
0C0200
0C0200
0C0200
0C0200
080200
000200
000200
000200
000200
000200
000200
ENDCHAR
STARTCHAR uni092E
ENCODING 2350
SWIDTH 490 0
DWIDTH 18 0
BBX 19 23 -1 0
BITMAP
FFFFE0
7FFFE0
0C0200
0C0200
0C0200
0C0200
0C0200
0C0200
0C0200
0C0200
0FFE00
0FFE00
0C0200
0C0200
0C0200
0C0200
080200
000200
000200
000200
000200
000200
000200
ENDCHAR
STARTCHAR uni092F
ENCODING 2351
SWIDTH 564 0
DWIDTH 20 0
BBX 22 23 -1 0
BITMAP
FFFFFC
7FFFF8
00C0C0
0040C0
0060C0
0060C0
0040C0
00C0C0
0FC0C0
1F00C0
1800C0
1800C0
1800C0
1800C0
0800C0
0C00C0
0C01C0
07FFC0
03FEC0
0000C0
0000C0
0000C0
0000C0
ENDCHAR
STARTCHAR uni0930
ENCODING 2352
SWIDTH 337 0
DWIDTH 12 0
BBX 14 23 -1 0
BITMAP
FFFC
7FF8
00C0
00C0
00C0
00C0
00C0
00C0
00C0
00C0
01C0
3F80
3C00
1800
0C00
0C00
0600
0300
0300
0180
0180
00C0
0060
ENDCHAR
STARTCHAR uni0930093C
ENCODING 2353
SWIDTH 347 0
DWIDTH 12 0
BBX 14 24 -1 -1
BITMAP
FFFC
7FFC
0060
0060
0060
0060
0060
0060
0060
00C0
00C0
1F80
1E00
1800
0C00
0600
0600
0300
0300
0180
00C0
00C0
2060
2000
ENDCHAR
STARTCHAR uni0932
ENCODING 2354
SWIDTH 676 0
DWIDTH 24 0
BBX 26 23 -1 0
BITMAP
FFFFFFC0
7FFFFF80
00000C00
00000C00
00000C00
00000C00
00000C00
03E3EC00
07F7FC00
0C1C0C00
0C0C0C00
080C0C00
080C0C00
080C0C00
080C0C00
08080C00
08000C00
08000C00
0C000C00
0E000C00
07E00C00
01E00C00
00000C00
ENDCHAR
STARTCHAR uni0933
ENCODING 2355
SWIDTH 672 0
DWIDTH 24 0
BBX 26 22 -1 1
BITMAP
FFFFFFC0
7FFFFF80
00004000
00004000
00004000
00004000
01C0E000
07F3F800
0C1E0C00
0C0C0C00
180C0600
180C0600
180C0600
180C0600
180C0600
180C0600
180C0600
180C0600
0C0C0C00
0C1E0C00
07F3F800
00C0C000
ENDCHAR
STARTCHAR uni0933093C
ENCODING 2356
SWIDTH 672 0
DWIDTH 24 0
BBX 26 25 -1 -2
BITMAP
FFFFFFC0
7FFFFF80
00004000
00004000
00004000
00004000
01C0E000
07F3F800
0C1E0C00
0C0C0C00
180C0600
180C0600
180C0600
180C0600
180C0600
180C0600
180C0600
180C0600
0C0C0C00
0C1E0C00
07F3F800
00C0C000
00000000
00800000
01800000
ENDCHAR
STARTCHAR uni0935
ENCODING 2357
SWIDTH 484 0
DWIDTH 17 0
BBX 19 23 -1 0
BITMAP
FFFFE0
7FFFE0
000600
000600
000600
01C600
07E600
0C0600
0C0600
180600
180600
180600
180600
180600
180600
180600
080600
0C0E00
07FE00
00C600
000600
000600
000600
ENDCHAR
STARTCHAR uni0936
ENCODING 2358
SWIDTH 614 0
DWIDTH 22 0
BBX 21 23 2 0
BITMAP
1F01F8
3F81F0
60C180
40C180
40C180
40C180
40C180
00C180
00C180
00C180
00C180
FF8180
FF0180
C00180
600180
600180
300180
180180
180180
0C0180
060180
060180
030180
ENDCHAR
STARTCHAR uni0937
ENCODING 2359
SWIDTH 505 0
DWIDTH 18 0
BBX 20 23 -1 0
BITMAP
FFFFF0
7FFFE0
0C0300
0E0300
0F0300
0D8300
0CC300
0C6300
0C3300
0C1300
0C0B00
0C0F00
0C0700
0C0300
060700
03FF00
00E300
000300
000300
000300
000300
000300
000300
ENDCHAR
STARTCHAR uni0938
ENCODING 2360
SWIDTH 575 0
DWIDTH 21 0
BBX 22 23 -1 0
BITMAP
FFFFFC
7FFFFC
008040
008040
008040
008040
008040
008040
008040
018040
018040
3FFFC0
3FFFC0
180040
180040
0C0040
060040
060040
030040
030040
018040
018040
00C040
ENDCHAR
STARTCHAR uni0939
ENCODING 2361
SWIDTH 481 0
DWIDTH 17 0
BBX 19 25 -1 -2
BITMAP
FFFFE0
7FFFC0
000600
000600
000600
01FE00
07FE00
0E0000
0C0000
0C0000
0C0000
0C0000
0E0000
07FC00
07FE00
0C0600
0C0300
080300
080300
080000
080000
0C0000
0E0000
07FE00
00FE00
ENDCHAR
STARTCHAR uni093C
ENCODING 2364
SWIDTH 0 0
DWIDTH 0 0
BBX 2 2 -6 -3
BITMAP
40
C0
ENDCHAR
STARTCHAR uni093D
ENCODING 2365
SWIDTH 529 0
DWIDTH 19 0
BBX 13 23 3 0
BITMAP
1FE0
3FE0
3000
6000
6000
2000
3000
3000
1C00
0E00
0780
01E0
0070
0038
0018
0018
0018
0018
C018
E018
7030
3FF0
0FE0
ENDCHAR
STARTCHAR uni093E
ENCODING 2366
SWIDTH 231 0
DWIDTH 8 0
BBX 9 23 0 0
BITMAP
FF80
FF80
1800
1800
1800
1800
1800
1800
1800
1800
1800
1800
1800
1800
1800
1800
1800
1800
1800
1800
1800
1800
1800
ENDCHAR
STARTCHAR uni093F
ENCODING 2367
SWIDTH 231 0
DWIDTH 8 0
BBX 23 32 0 0
BITMAP
03FFF0
0FFFFC
0C000C
180004
180006
180006
180004
180000
180000
FF8000
FF8000
180000
180000
180000
180000
180000
180000
180000
180000
180000
180000
180000
180000
180000
180000
180000
180000
180000
180000
180000
180000
180000
ENDCHAR
STARTCHAR uni0940
ENCODING 2368
SWIDTH 231 0
DWIDTH 8 0
BBX 14 32 -5 0
BITMAP
3F00
7F80
C0C0
C0C0
C0C0
C0C0
80C0
00C0
00C0
07FC
07FC
00C0
00C0
00C0
00C0
00C0
00C0
00C0
00C0
00C0
00C0
00C0
00C0
00C0
00C0
00C0
00C0
00C0
00C0
00C0
00C0
00C0
ENDCHAR
STARTCHAR uni0941
ENCODING 2369
SWIDTH 0 0
DWIDTH 0 0
BBX 14 10 -13 -9
BITMAP
00C0
00F8
400C
C00C
600C
200C
300C
180C
0FF8
07F0
ENDCHAR
STARTCHAR uni0942
ENCODING 2370
SWIDTH 0 0
DWIDTH 0 0
BBX 13 10 -9 -9
BITMAP
1E00
7F80
C1C0
C060
8060
8030
8030
C010
F818
7C00
ENDCHAR
STARTCHAR uni0943
ENCODING 2371
SWIDTH 0 0
DWIDTH 0 0
BBX 11 10 -10 -9
BITMAP
1C00
7E00
6000
C000
C000
C000
C020
40E0
7FC0
3F00
ENDCHAR
STARTCHAR uni0945
ENCODING 2373
SWIDTH 0 0
DWIDTH 0 0
BBX 12 6 -10 25
BITMAP
4020
C030
C020
6060
7FE0
3F80
ENDCHAR
STARTCHAR uni0946
ENCODING 2374
SWIDTH 0 0
DWIDTH 0 0
BBX 10 11 -13 21
BITMAP
C000
C000
4000
7000
3800
0E00
0380
0180
00C0
01C0
01C0
ENDCHAR
STARTCHAR uni0947
ENCODING 2375
SWIDTH 0 0
DWIDTH 0 0
BBX 8 11 -11 21
BITMAP
C0
60
60
30
38
18
0C
0E
06
03
01
ENDCHAR
STARTCHAR uni0948
ENCODING 2376
SWIDTH 0 0
DWIDTH 0 0
BBX 8 11 -11 21
BITMAP
C3
C3
63
73
33
1B
1F
0F
07
03
03
ENDCHAR
STARTCHAR uni0949
ENCODING 2377
SWIDTH 231 0
DWIDTH 8 0
BBX 11 30 -1 0
BITMAP
8060
8060
C0C0
7FC0
1E00
0000
0000
7FC0
7FC0
0C00
0C00
0C00
0C00
0C00
0C00
0C00
0C00
0C00
0C00
0C00
0C00
0C00
0C00
0C00
0C00
0C00
0C00
0C00
0C00
0C00
ENDCHAR
STARTCHAR uni094A
ENCODING 2378
SWIDTH 231 0
DWIDTH 8 0
BBX 13 32 -4 0
BITMAP
8000
8000
C000
E000
7800
1E00
0700
0180
0180
0FF8
0FF8
0180
0180
0180
0180
0180
0180
0180
0180
0180
0180
0180
0180
0180
0180
0180
0180
0180
0180
0180
0180
0180
ENDCHAR
STARTCHAR uni094B
ENCODING 2379
SWIDTH 231 0
DWIDTH 8 0
BBX 12 32 -3 0
BITMAP
C000
6000
3000
3000
1800
0C00
0C00
0600
0300
1FF0
1FF0
0300
0300
0300
0300
0300
0300
0300
0300
0300
0300
0300
0300
0300
0300
0300
0300
0300
0300
0300
0300
0300
ENDCHAR
STARTCHAR uni094C
ENCODING 2380
SWIDTH 231 0
DWIDTH 8 0
BBX 12 32 -3 0
BITMAP
C300
6300
6300
3300
1B00
1B00
0D00
0500
0300
1FF0
1FF0
0300
0300
0300
0300
0300
0300
0300
0300
0300
0300
0300
0300
0300
0300
0300
0300
0300
0300
0300
0300
0300
ENDCHAR
STARTCHAR uni094D
ENCODING 2381
SWIDTH 0 0
DWIDTH 0 0
BBX 5 6 -5 -8
BITMAP
C0
60
60
30
30
18
ENDCHAR
STARTCHAR uni0950
ENCODING 2384
SWIDTH 847 0
DWIDTH 30 0
BBX 26 28 2 1
BITMAP
00004000
0000C000
00000000
00000000
00000080
00000180
1F80FF00
1FC07C00
00600000
00200000
00300000
00300000
00307800
0020FF00
00600180
0FC00180
0FC000C0
00E000C0
007F80C0
003F80C0
0030C0C0
C030C0C0
C030C0C0
C030C0C0
C060C080
60E0E180
3FC07F00
06000C00
ENDCHAR
STARTCHAR uni0951
ENCODING 2385
SWIDTH 0 0
DWIDTH 0 0
BBX 2 7 -5 25
BITMAP
C0
C0
C0
C0
C0
C0
C0
ENDCHAR
STARTCHAR uni0952
ENCODING 2386
SWIDTH 0 0
DWIDTH 0 0
BBX 12 2 -15 -4
BITMAP
FFE0
FFF0
ENDCHAR
STARTCHAR uni0953
ENCODING 2387
SWIDTH 0 0
DWIDTH 0 0
BBX 6 7 -9 25
BITMAP
C0
C0
60
30
30
18
0C
ENDCHAR
STARTCHAR uni0954
ENCODING 2388
SWIDTH 0 0
DWIDTH 0 0
BBX 6 7 -5 25
BITMAP
0C
18
30
30
60
60
C0
ENDCHAR
STARTCHAR uni0915093C
ENCODING 2392
SWIDTH 725 0
DWIDTH 26 0
BBX 28 25 -1 -2
BITMAP
FFFFFFF0
7FFFFFE0
00060000
00060000
00060000
00C63000
07E7FE00
0C070300
08060180
18060180
18060180
18060180
18060180
18060180
18060180
18060180
08060180
0C0E0300
07FE3E00
00C63000
00060000
00060000
00060000
03000000
03000000
ENDCHAR
STARTCHAR uni0916093C
ENCODING 2393
SWIDTH 696 0
DWIDTH 25 0
BBX 27 25 -1 -2
BITMAP
FFFFFFE0
7FFFFFC0
00C00600
00C00600
00C00600
00C00600
00C1C600
00C3C600
00C60600
00C40600
01CC0600
3F8C0600
3C0C0600
18040600
0C040600
0C060E00
0603FE00
0601F600
03000600
01800600
01800600
00C00600
00600600
18000000
10000000
ENDCHAR
STARTCHAR uni0917093C
ENCODING 2394
SWIDTH 494 0
DWIDTH 18 0
BBX 19 24 -1 -1
BITMAP
FFFFE0
7FFFE0
030200
030200
030200
030200
030200
030200
030200
030200
030200
020200
060200
3E0200
380200
000200
000200
000200
000200
000200
000200
000200
040200
040000
ENDCHAR
STARTCHAR uni091C093C
ENCODING 2395
SWIDTH 547 0
DWIDTH 20 0
BBX 21 25 -1 -2
BITMAP
FFFFF8
7FFFF8
000080
000080
000080
000080
000080
0FFF80
0FFF80
00C080
006080
006080
006080
006080
006080
006080
006080
006080
00C080
3FC080
3E0080
000080
000080
0C0000
0C0000
ENDCHAR
STARTCHAR uni0921093C
ENCODING 2396
SWIDTH 475 0
DWIDTH 17 0
BBX 19 28 -1 -5
BITMAP
FFFFE0
7FFFC0
000600
000600
000600
000600
03FE00
0FFC00
0C0000
080000
080000
0C0000
0C0000
07FC00
00FE00
000300
000300
000300
080300
080300
0C0300
0FFE00
03FC00
000000
000000
000000
006000
004000
ENDCHAR
STARTCHAR uni0922093C
ENCODING 2397
SWIDTH 485 0
DWIDTH 17 0
BBX 19 27 -1 -4
BITMAP
FFFFE0
7FFFE0
000600
000600
000600
000600
00FE00
07FE00
0E0000
0C0000
080000
180000
181E00
183F00
182180
182180
182180
080180
0C0180
0E0300
07FE00
00F800
000000
000000
000000
006000
006000
ENDCHAR
STARTCHAR uni092B093C
ENCODING 2398
SWIDTH 739 0
DWIDTH 27 0
BBX 28 24 -1 -1
BITMAP
FFFFFFF0
7FFFFFF0
0C020000
0C020000
0C020000
0C021800
0C02FF00
0C038380
0C030180
0C020080
0C020080
0C020080
0C060080
0E060080
07FA0080
01F20080
00020180
00020380
00023F00
00023800
00020000
00020000
03020000
03000000
ENDCHAR
STARTCHAR uni092F093C
ENCODING 2399
SWIDTH 564 0
DWIDTH 20 0
BBX 22 25 -1 -2
BITMAP
FFFFFC
7FFFF8
00C0C0
0040C0
0060C0
0060C0
0040C0
00C0C0
0FC0C0
1F00C0
1800C0
1800C0
1800C0
1800C0
0800C0
0C00C0
0C01C0
07FFC0
03FEC0
0000C0
0000C0
0000C0
0000C0
060000
040000
ENDCHAR
STARTCHAR uni0960
ENCODING 2400
SWIDTH 753 0
DWIDTH 27 0
BBX 29 28 -1 -5
BITMAP
FFFFFFF8
7FFFFFF0
00020000
00020000
00020000
00020000
00020000
03F20380
0FFE0680
0C060C80
18063880
18027080
1802E080
18038F80
18031E00
00061800
001E1800
00321800
00621800
01C20FC0
03820F80
06021800
0C021800
00001800
00001800
00001800
00000FC0
000001C0
ENDCHAR
STARTCHAR uni0961
ENCODING 2401
SWIDTH 676 0
DWIDTH 24 0
BBX 26 31 -1 -8
BITMAP
FFFFFFC0
7FFFFF80
00000C00
00000C00
00000C00
00000C00
00000C00
03E3EC00
07F7FC00
0C1C0C00
0C0C0C00
080C0C00
080C0C00
080C0C00
080C0C00
08000C00
08001C00
08007C00
0C00C000
0E008000
07E08000
01E08000
0000C000
00007E00
0000FC00
0000C000
00008000
00008000
0000C000
0000FE00
00007E00
ENDCHAR
STARTCHAR uni0964
ENCODING 2404
SWIDTH 286 0
DWIDTH 10 0
BBX 2 23 5 0
BITMAP
C0
C0
C0
C0
C0
C0
C0
C0
C0
C0
C0
C0
C0
C0
C0
C0
C0
C0
C0
C0
C0
C0
C0
ENDCHAR
STARTCHAR uni0965
ENCODING 2405
SWIDTH 518 0
DWIDTH 19 0
BBX 10 23 5 0
BITMAP
C0C0
C0C0
C0C0
C0C0
C0C0
C0C0
C0C0
C0C0
C0C0
C0C0
C0C0
C0C0
C0C0
C0C0
C0C0
C0C0
C0C0
C0C0
C0C0
C0C0
C0C0
C0C0
C0C0
ENDCHAR
STARTCHAR uni0966
ENCODING 2406
SWIDTH 519 0
DWIDTH 19 0
BBX 14 24 2 0
BITMAP
07C0
3FF0
7018
600C
400C
C00C
C00C
C00C
C00C
C00C
C00C
C00C
C00C
C00C
C00C
C00C
C00C
C00C
C00C
400C
600C
600C
3FF8
1FF0
ENDCHAR
STARTCHAR uni0967
ENCODING 2407
SWIDTH 288 0
DWIDTH 10 0
BBX 8 24 0 0
BITMAP
02
0F
1F
73
C3
03
03
03
03
03
03
03
03
03
03
03
03
03
03
03
03
03
03
03
ENDCHAR
STARTCHAR uni0968
ENCODING 2408
SWIDTH 453 0
DWIDTH 16 0
BBX 13 24 2 0
BITMAP
0F00
7FE0
6030
C010
C018
C018
C018
8018
0018
0030
0070
00E0
01C0
0300
0E00
1C00
3000
6000
C000
C000
C000
C000
FFF8
FFF8
ENDCHAR
STARTCHAR uni0969
ENCODING 2409
SWIDTH 489 0
DWIDTH 18 0
BBX 13 24 2 0
BITMAP
0F80
3FE0
6030
C018
C018
C018
C018
0018
0018
0018
0010
03F0
07E0
0030
0018
0018
0018
C018
C018
C018
C018
E018
7FF0
1FC0
ENDCHAR
STARTCHAR uni096A
ENCODING 2410
SWIDTH 453 0
DWIDTH 16 0
BBX 15 24 1 0
BITMAP
0070
0070
00D0
00D0
0190
0310
0310
0610
0610
0C10
0810
1810
3010
3010
6010
6010
C010
FFFE
FFFE
0010
0010
0010
0010
0010
ENDCHAR
STARTCHAR uni096B
ENCODING 2411
SWIDTH 480 0
DWIDTH 17 0
BBX 13 24 2 0
BITMAP
7FF8
FFF8
C000
C000
C000
C000
C000
C000
C000
DFE0
FFF0
E018
0018
0008
0008
0008
0008
C008
C008
C008
4018
6018
3FF0
1FE0
ENDCHAR
STARTCHAR uni096C
ENCODING 2412
SWIDTH 495 0
DWIDTH 18 0
BBX 14 24 2 0
BITMAP
07F8
3FF8
7000
6000
4000
C000
C000
C000
C000
C780
DFF0
F018
E00C
C00C
C00C
C00C
C00C
C00C
C00C
400C
600C
6018
3FF8
1FE0
ENDCHAR
STARTCHAR uni096D
ENCODING 2413
SWIDTH 380 0
DWIDTH 14 0
BBX 12 24 1 0
BITMAP
FFF0
FFF0
0030
0060
0060
0060
00C0
00C0
00C0
0180
0180
0180
0300
0300
0600
0600
0600
0C00
0C00
0C00
1800
1800
3000
3000
ENDCHAR
STARTCHAR uni096E
ENCODING 2414
SWIDTH 523 0
DWIDTH 19 0
BBX 14 24 2 0
BITMAP
07C0
3FF8
701C
600C
400C
C004
C004
C004
4004
600C
600C
3FF8
1FF0
7018
600C
400C
C004
C004
C004
C004
400C
600C
3FF8
1FF0
ENDCHAR
STARTCHAR uni096F
ENCODING 2415
SWIDTH 493 0
DWIDTH 18 0
BBX 13 24 2 0
BITMAP
0F80
3FF0
6030
C018
C018
C018
C018
C018
C018
C018
C018
C018
6018
7FF8
0FF8
0018
0018
0018
0018
0018
0018
0018
7FF0
7FE0
ENDCHAR
STARTCHAR uni0970
ENCODING 2416
SWIDTH 391 0
DWIDTH 14 0
BBX 12 12 1 5
BITMAP
1F80
3FC0
6060
4020
C030
C030
C030
C030
4020
6060
3FC0
1F80
ENDCHAR
STARTCHAR uni0972
ENCODING 2418
SWIDTH 598 0
DWIDTH 22 0
BBX 22 30 1 0
BITMAP
00100C
00180C
00181C
000FF8
0001C0
000000
000000
3F00F8
3F81F8
00C180
00C180
004180
004180
004180
004180
00C180
018180
3F0180
1F8180
00FF80
00FF80
004180
004180
004180
004180
00C180
01C180
FF8180
7C0180
000180
ENDCHAR
STARTCHAR Wgrave
ENCODING 7808
SWIDTH 795 0
DWIDTH 29 0
BBX 26 30 1 0
BITMAP
00600000
00300000
00300000
00180000
000C0000
00000000
00000000
C00C00C0
C00E00C0
600E00C0
601A00C0
601B00C0
60130180
20330180
30310180
30318180
30218300
30618300
10608300
1860C300
1840C300
18C04600
08C04600
0CC06600
0C806600
0D802400
0D803C00
05003C00
07003C00
07001C00
ENDCHAR
STARTCHAR wgrave
ENCODING 7809
SWIDTH 682 0
DWIDTH 25 0
BBX 23 25 1 0
BITMAP
01C000
00C000
006000
002000
003000
000000
000000
C03006
C03806
C0380C
60680C
60680C
604C18
204C18
30C418
30C410
308630
108630
198230
198320
090360
0F0160
0F0140
0F01C0
0601C0
ENDCHAR
STARTCHAR Wacute
ENCODING 7810
SWIDTH 795 0
DWIDTH 29 0
BBX 26 30 1 0
BITMAP
0000C000
00018000
00030000
00020000
00060000
00000000
00000000
C00C00C0
C00E00C0
600E00C0
601A00C0
601B00C0
60130180
20330180
30310180
30318180
30218300
30618300
10608300
1860C300
1840C300
18C04600
08C04600
0CC06600
0C806600
0D802400
0D803C00
05003C00
07003C00
07001C00
ENDCHAR
STARTCHAR wacute
ENCODING 7811
SWIDTH 682 0
DWIDTH 25 0
BBX 23 25 1 0
BITMAP
000700
000E00
000C00
001800
001000
000000
000000
C03006
C03806
C0380C
60680C
60680C
604C18
204C18
30C418
30C410
308630
108630
198230
198320
090360
0F0160
0F0140
0F01C0
0601C0
ENDCHAR
STARTCHAR Wdieresis
ENCODING 7812
SWIDTH 795 0
DWIDTH 29 0
BBX 26 30 1 0
BITMAP
00618000
00618000
00618000
00618000
00618000
00000000
00000000
C00C00C0
C00E00C0
600E00C0
601A00C0
601B00C0
60130180
20330180
30310180
30318180
30218300
30618300
10608300
1860C300
1840C300
18C04600
08C04600
0CC06600
0C806600
0D802400
0D803C00
05003C00
07003C00
07001C00
ENDCHAR
STARTCHAR wdieresis
ENCODING 7813
SWIDTH 682 0
DWIDTH 25 0
BBX 23 25 1 0
BITMAP
018600
018600
018600
018600
018600
000000
000000
C03006
C03806
C0380C
60680C
60680C
604C18
204C18
30C418
30C410
308630
108630
198230
198320
090360
0F0160
0F0140
0F01C0
0601C0
ENDCHAR
STARTCHAR uni1E9E
ENCODING 7838
SWIDTH 542 0
DWIDTH 20 0
BBX 14 23 3 0
BITMAP
1FFC
7FFC
E018
C018
C030
C030
C060
C060
C0C0
C0C0
C0F0
C0FC
C00C
C00C
C004
C004
C004
C004
C004
C00C
C00C
C3F8
C3F0
ENDCHAR
STARTCHAR Ygrave
ENCODING 7922
SWIDTH 493 0
DWIDTH 18 0
BBX 16 30 1 0
BITMAP
0C00
0E00
0600
0300
0180
0000
0000
C003
E006
6006
700C
300C
3018
1818
1830
0C30
0C60
0660
06C0
03C0
0380
0180
0180
0180
0180
0180
0180
0180
0180
0180
ENDCHAR
STARTCHAR ygrave
ENCODING 7923
SWIDTH 459 0
DWIDTH 17 0
BBX 15 30 1 -5
BITMAP
0C00
0600
0700
0300
0100
0000
0000
C006
C00C
600C
6008
2018
3018
3030
1030
1830
1860
0860
0C60
0CC0
06C0
06C0
0780
0380
0100
0300
0300
0600
7C00
7800
ENDCHAR
STARTCHAR uni200B
ENCODING 8203
SWIDTH 0 0
DWIDTH 0 0
BBX 1 1 0 0
BITMAP
00
ENDCHAR
STARTCHAR uni200C
ENCODING 8204
SWIDTH 0 0
DWIDTH 0 0
BBX 2 37 -1 -8
BITMAP
C0
C0
C0
C0
C0
C0
C0
C0
C0
C0
C0
C0
C0
C0
C0
C0
C0
C0
C0
C0
C0
C0
C0
C0
C0
C0
C0
C0
C0
C0
C0
C0
C0
C0
C0
C0
C0
ENDCHAR
STARTCHAR uni200D
ENCODING 8205
SWIDTH 0 0
DWIDTH 0 0
BBX 10 37 -5 -8
BITMAP
4080
E1C0
3300
1E00
0C00
1E00
3F00
EDC0
4C80
0C00
0C00
0C00
0C00
0C00
0C00
0C00
0C00
0C00
0C00
0C00
0C00
0C00
0C00
0C00
0C00
0C00
0C00
0C00
0C00
0C00
0C00
0C00
0C00
0C00
0C00
0C00
0C00
ENDCHAR
STARTCHAR endash
ENCODING 8211
SWIDTH 408 0
DWIDTH 15 0
BBX 12 2 1 11
BITMAP
7FF0
FFF0
ENDCHAR
STARTCHAR emdash
ENCODING 8212
SWIDTH 537 0
DWIDTH 19 0
BBX 17 2 1 11
BITMAP
7FFF80
FFFF80
ENDCHAR
STARTCHAR quoteleft
ENCODING 8216
SWIDTH 179 0
DWIDTH 6 0
BBX 2 9 2 14
BITMAP
40
40
40
40
40
C0
C0
C0
C0
ENDCHAR
STARTCHAR quoteright
ENCODING 8217
SWIDTH 179 0
DWIDTH 6 0
BBX 2 9 2 14
BITMAP
C0
C0
C0
C0
C0
C0
80
80
80
ENDCHAR
STARTCHAR quotesinglbase
ENCODING 8218
SWIDTH 187 0
DWIDTH 7 0
BBX 2 8 2 -4
BITMAP
C0
C0
C0
C0
C0
C0
80
80
ENDCHAR
STARTCHAR quotedblleft
ENCODING 8220
SWIDTH 329 0
DWIDTH 12 0
BBX 8 9 2 14
BITMAP
41
41
43
43
43
C3
C3
C3
C3
ENDCHAR
STARTCHAR quotedblright
ENCODING 8221
SWIDTH 329 0
DWIDTH 12 0
BBX 8 9 2 14
BITMAP
C3
C3
C3
C3
C2
C2
82
82
84
ENDCHAR
STARTCHAR quotedblbase
ENCODING 8222
SWIDTH 337 0
DWIDTH 12 0
BBX 8 9 2 -5
BITMAP
C3
C3
C3
C3
C2
C2
C2
82
80
ENDCHAR
STARTCHAR dagger
ENCODING 8224
SWIDTH 427 0
DWIDTH 15 0
BBX 12 23 2 0
BITMAP
0600
0600
0600
0400
0400
0400
0400
FFF0
0400
0400
0600
0600
0600
0600
0600
0400
0400
0400
0400
0400
0400
0400
0400
ENDCHAR
STARTCHAR daggerdbl
ENCODING 8225
SWIDTH 427 0
DWIDTH 15 0
BBX 12 23 2 0
BITMAP
0600
0600
0600
0400
0400
0400
0400
FFF0
0400
0400
0600
0600
0600
0600
0400
FFF0
FFF0
0400
0400
0400
0400
0600
0600
ENDCHAR
STARTCHAR bullet
ENCODING 8226
SWIDTH 273 0
DWIDTH 10 0
BBX 4 6 3 8
BITMAP
E0
F0
F0
F0
F0
E0
ENDCHAR
STARTCHAR ellipsis
ENCODING 8230
SWIDTH 591 0
DWIDTH 21 0
BBX 17 5 2 0
BITMAP
C0C180
C0C180
C0C180
C0C180
C0C180
ENDCHAR
STARTCHAR perthousand
ENCODING 8240
SWIDTH 1027 0
DWIDTH 37 0
BBX 34 23 2 0
BITMAP
3E01800000
FF03000000
C183000000
8182000000
8186000000
8184000000
818C000000
8188000000
C198000000
7F18000000
1810000000
0030000000
0020000000
0061F03F00
0047186180
00C60C40C0
00C40440C0
01840440C0
01840440C0
01040C40C0
03060C60C0
0207F87F80
0601F03F00
ENDCHAR
STARTCHAR guilsinglleft
ENCODING 8249
SWIDTH 290 0
DWIDTH 10 0
BBX 6 12 2 3
BITMAP
04
0C
18
30
60
C0
C0
60
30
18
0C
04
ENDCHAR
STARTCHAR guilsinglright
ENCODING 8250
SWIDTH 290 0
DWIDTH 10 0
BBX 6 12 2 3
BITMAP
80
C0
60
30
18
0C
0C
18
30
60
C0
80
ENDCHAR
STARTCHAR fraction
ENCODING 8260
SWIDTH 117 0
DWIDTH 4 0
BBX 18 23 -7 0
BITMAP
0000C0
000080
000180
000300
000600
000400
000C00
001800
003000
002000
006000
00C000
018000
010000
030000
060000
0C0000
0C0000
180000
300000
200000
600000
C00000
ENDCHAR
STARTCHAR Euro
ENCODING 8364
SWIDTH 523 0
DWIDTH 19 0
BBX 15 23 1 0
BITMAP
03F8
0FFC
1C06
1806
1802
1802
1802
1800
1800
FFE0
7FE0
1800
1800
FFE0
7FE0
1800
1800
1802
1802
1806
1C06
0FFC
07F8
ENDCHAR
STARTCHAR uni20B9
ENCODING 8377
SWIDTH 414 0
DWIDTH 15 0
BBX 13 23 1 0
BITMAP
FFF8
7FF0
0300
0180
0180
7FF0
FFF8
0180
0180
0180
0300
7F00
FC00
6000
3000
3000
1800
0C00
0C00
0600
0300
0180
0180
ENDCHAR
STARTCHAR trademark
ENCODING 8482
SWIDTH 591 0
DWIDTH 21 0
BBX 17 9 2 16
BITMAP
7E4080
FE6180
106180
107280
105280
105C80
104C80
104080
104080
ENDCHAR
STARTCHAR uni2126
ENCODING 8486
SWIDTH 629 0
DWIDTH 23 0
BBX 20 24 1 0
BITMAP
01F800
0FFF00
1C0180
1800C0
1000C0
3000C0
3000C0
3000C0
3000C0
3000C0
3000C0
3000C0
3000C0
3000C0
3000C0
3000C0
3000C0
3000C0
3000C0
1000C0
1800C0
180180
7F8FF0
FF8FF0
ENDCHAR
STARTCHAR partialdiff
ENCODING 8706
SWIDTH 481 0
DWIDTH 17 0
BBX 13 24 2 0
BITMAP
3E00
1F80
01C0
0060
0030
0010
0018
0018
0018
1FD8
7FF8
6038
C018
C018
C018
C018
C018
C018
C018
C018
C018
6038
7FF0
1FC0
ENDCHAR
STARTCHAR uni2206
ENCODING 8710
SWIDTH 594 0
DWIDTH 21 0
BBX 19 24 1 0
BITMAP
004000
00E000
00F000
01B000
01B000
019800
031800
031800
030C00
060C00
060400
040600
0C0600
0C0300
180300
180300
180180
300180
300180
3000C0
6000C0
600060
FFFFE0
FFFFE0
ENDCHAR
STARTCHAR minus
ENCODING 8722
SWIDTH 523 0
DWIDTH 19 0
BBX 13 2 3 11
BITMAP
FFF8
FFF8
ENDCHAR
STARTCHAR approxequal
ENCODING 8776
SWIDTH 523 0
DWIDTH 19 0
BBX 13 9 3 8
BITMAP
3008
FFF8
83F0
0000
0000
0000
3008
FFF8
83F0
ENDCHAR
STARTCHAR notequal
ENCODING 8800
SWIDTH 523 0
DWIDTH 19 0
BBX 13 16 3 4
BITMAP
00C0
0080
0080
0180
FFF8
FFF8
0300
0200
0600
0600
FFF8
FFF8
0C00
0800
1800
1800
ENDCHAR
STARTCHAR lessequal
ENCODING 8804
SWIDTH 523 0
DWIDTH 19 0
BBX 13 14 3 5
BITMAP
0008
00F8
07C0
3E00
F000
E000
7C00
0F80
01F8
0018
0000
0000
FFF8
FFF8
ENDCHAR
STARTCHAR greaterequal
ENCODING 8805
SWIDTH 523 0
DWIDTH 19 0
BBX 13 14 3 5
BITMAP
8000
F800
3F00
03E0
0078
0038
01F0
1F80
F800
C000
0000
0000
FFF8
FFF8
ENDCHAR
STARTCHAR uni25CC
ENCODING 9676
SWIDTH 701 0
DWIDTH 25 0
BBX 20 21 3 2
BITMAP
00CE00
1DCE00
1CCE00
1C00C0
0001C0
0000C0
E00000
E00070
E00070
000070
C00000
E00000
C00060
000070
300060
780000
300380
030380
073380
033800
003000
ENDCHAR
STARTCHAR commaaccent
ENCODING 63171
SWIDTH 0 0
DWIDTH 0 0
BBX 2 8 7 -9
BITMAP
C0
C0
C0
C0
C0
80
80
80
ENDCHAR
STARTCHAR .notdef
ENCODING -1
SWIDTH 600 0
DWIDTH 22 0
BBX 13 22 4 0
BITMAP
FFF8
FFF8
C018
C018
C018
C018
C018
C018
C018
C018
C018
C018
C018
C018
C018
C018
C018
C018
C018
C018
FFF8
FFF8
ENDCHAR
STARTCHAR .null
ENCODING -1
SWIDTH 0 0
DWIDTH 0 0
BBX 1 1 0 0
BITMAP
00
ENDCHAR
STARTCHAR nonmarkingreturn
ENCODING -1
SWIDTH 333 0
DWIDTH 12 0
BBX 1 1 0 0
BITMAP
00
ENDCHAR
STARTCHAR uni0915094D
ENCODING -1
SWIDTH 519 0
DWIDTH 19 0
BBX 24 23 -1 0
BITMAP
FFFFFF
7FFFFF
000600
000600
000600
00C638
07E7FE
0C0703
080601
180600
180600
180600
180600
180600
180600
180600
080600
0C0E00
07FE00
00C600
000600
000600
000600
ENDCHAR
STARTCHAR uni0916094D
ENCODING -1
SWIDTH 468 0
DWIDTH 17 0
BBX 22 23 -1 0
BITMAP
FFFFFC
7FFFF8
00C000
00C000
00C000
00C000
00C1C0
00C3C0
00C600
00C400
01CC00
3F8C00
3C0C00
180400
0C0400
0C060C
0603F8
0301F0
030000
018000
00C000
00C000
006000
ENDCHAR
STARTCHAR uni0917094D
ENCODING -1
SWIDTH 264 0
DWIDTH 10 0
BBX 11 15 -1 8
BITMAP
FFE0
7FE0
0300
0300
0300
0300
0300
0300
0300
0300
0300
0200
0600
3E00
3800
ENDCHAR
STARTCHAR uni0918094D
ENCODING -1
SWIDTH 321 0
DWIDTH 12 0
BBX 17 20 -1 3
BITMAP
FFFF80
7FFF80
0C0000
080000
080000
080000
080000
0C0000
0C0000
07E000
07E000
0C0000
080000
080000
080000
080000
0C0080
0C0180
07FF00
03FE00
ENDCHAR
STARTCHAR uni0919094D
ENCODING -1
SWIDTH 505 0
DWIDTH 18 0
BBX 20 31 -1 -8
BITMAP
FFFFF0
7FFFE0
000600
000600
000600
000600
03FE00
0FFC00
0C0000
080000
0800C0
0C00C0
0C0000
07FC00
00FE00
000300
000300
000300
080300
080300
0C0300
0FFE00
07FC00
000000
000000
006000
003000
003000
001800
000C00
000400
ENDCHAR
STARTCHAR uni091A094D
ENCODING -1
SWIDTH 330 0
DWIDTH 12 0
BBX 17 19 -1 4
BITMAP
FFFF80
7FFF80
000000
000000
000000
000000
000000
3FF800
3FF000
060000
060000
060000
060000
060000
060000
060080
060180
03FF00
01FE00
ENDCHAR
STARTCHAR uni091B094D
ENCODING -1
SWIDTH 581 0
DWIDTH 21 0
BBX 22 22 -1 1
BITMAP
FFFFFC
7FFFFC
0C0000
0C0000
0C0000
0C0600
0C07C0
0C0060
0C0060
0E0020
07C020
07C020
0C0020
0C0020
0C0020
0C0020
0C0020
0C0060
0C0060
0E00C0
07FFC0
00FE00
ENDCHAR
STARTCHAR uni091C094D
ENCODING -1
SWIDTH 309 0
DWIDTH 11 0
BBX 16 21 -1 2
BITMAP
FFFF
7FFF
0000
0000
0000
0000
0000
0FFF
0FFF
00C0
0060
0060
0060
0060
0060
0060
0060
0060
00C0
3FC0
3E00
ENDCHAR
STARTCHAR uni091D094D
ENCODING -1
SWIDTH 432 0
DWIDTH 16 0
BBX 20 24 -1 -1
BITMAP
FFFFF0
7FFFF0
000C00
000C00
000C00
03FC00
0FF800
0C0000
080000
080000
080000
0C0000
07FFF0
00FFF0
000600
180600
180600
180600
180600
1C0C00
1FFC00
18E000
180000
180000
ENDCHAR
STARTCHAR uni091E094D
ENCODING -1
SWIDTH 359 0
DWIDTH 13 0
BBX 18 20 -1 3
BITMAP
FFFFC0
7FFF80
000000
000000
000000
000000
1F8000
1FC000
006000
002000
002000
002000
003FC0
003F80
002000
002000
006000
006000
1FC000
1E0000
ENDCHAR
STARTCHAR uni091F094D
ENCODING -1
SWIDTH 485 0
DWIDTH 17 0
BBX 19 30 -1 -7
BITMAP
FFFFE0
7FFFE0
000600
000600
000600
000600
000600
03FE00
07FC00
0C0000
080000
180000
180000
180000
180100
180180
180180
180180
0C0300
0E0300
07FE00
00F000
000000
000000
006000
003000
003000
001800
000C00
000C00
ENDCHAR
STARTCHAR uni0920094D
ENCODING -1
SWIDTH 512 0
DWIDTH 18 0
BBX 20 30 -1 -7
BITMAP
FFFFF0
7FFFF0
000600
000600
000600
000600
000600
03FC00
07FE00
0C0300
080180
180180
180180
180180
180180
180180
180180
180180
0C0300
0E0300
07FE00
00F000
000000
000000
006000
006000
003000
001800
001800
000C00
ENDCHAR
STARTCHAR uni0921094D
ENCODING -1
SWIDTH 475 0
DWIDTH 17 0
BBX 19 31 -1 -8
BITMAP
FFFFE0
7FFFC0
000600
000600
000600
000600
03FE00
0FFC00
0C0000
080000
080000
0C0000
0C0000
07FC00
00FE00
000300
000300
000300
080300
080300
0C0300
0FFE00
03FC00
000000
000000
006000
003000
001000
001800
000C00
000400
ENDCHAR
STARTCHAR uni0922094D
ENCODING -1
SWIDTH 485 0
DWIDTH 17 0
BBX 19 30 -1 -7
BITMAP
FFFFE0
7FFFE0
000600
000600
000600
000600
00FE00
07FE00
0E0000
0C0000
080000
180000
181E00
183F00
182180
182180
182180
080180
0C0180
0E0300
07FE00
00F800
000000
000000
006000
003000
003000
001800
000C00
000C00
ENDCHAR
STARTCHAR uni0923094D
ENCODING -1
SWIDTH 454 0
DWIDTH 16 0
BBX 18 17 -1 6
BITMAP
FFFFC0
7FFFC0
0C0400
0C0400
0C0400
0C0400
0C0400
0C0400
0C0400
0C0400
0C0400
0C0400
0C0400
0C0C00
061C00
07F800
00C000
ENDCHAR
STARTCHAR uni0924094D
ENCODING -1
SWIDTH 263 0
DWIDTH 9 0
BBX 14 23 -1 0
BITMAP
FFFC
7FFC
0000
0000
0000
0000
0000
00FC
07FC
0C00
0800
1800
1800
1800
1800
1800
1800
1800
1800
0800
0C00
0F80
03C0
ENDCHAR
STARTCHAR uni0925094D
ENCODING -1
SWIDTH 359 0
DWIDTH 13 0
BBX 15 19 2 4
BITMAP
1F00
3F80
60C0
60C0
60C0
60C0
00C0
00C0
0180
7F80
FF00
C000
C000
C000
C000
4002
6006
3FFC
1FF0
ENDCHAR
STARTCHAR uni0926094D
ENCODING -1
SWIDTH 489 0
DWIDTH 18 0
BBX 19 29 -1 -6
BITMAP
FFFFE0
7FFFE0
000200
000200
000200
000200
03FE00
07FE00
0C0000
080000
180000
180000
180000
180000
180300
180300
080300
0C0300
07FF00
03FB00
000300
000300
000300
006000
003000
003000
001800
000C00
000400
ENDCHAR
STARTCHAR uni0927094D
ENCODING -1
SWIDTH 321 0
DWIDTH 12 0
BBX 17 20 -1 3
BITMAP
FFCF80
7F8780
0C0000
080000
080000
080000
080000
0C0000
0C0000
07E000
07E000
0C0000
080000
080000
080000
080000
0C0080
0C0180
07FF00
03FE00
ENDCHAR
STARTCHAR uni0928094D
ENCODING -1
SWIDTH 233 0
DWIDTH 8 0
BBX 13 16 -1 7
BITMAP
FFF8
7FF8
0000
0000
0000
0000
0000
0000
0000
0FF8
1FF8
3000
3000
3000
1000
1800
ENDCHAR
STARTCHAR uni092A094D
ENCODING -1
SWIDTH 269 0
DWIDTH 10 0
BBX 15 17 -1 6
BITMAP
FFFE
7FFE
0C00
0C00
0C00
0C00
0C00
0C00
0C00
0C00
0C00
0C00
0C00
0C02
0606
03FC
00E0
ENDCHAR
STARTCHAR uni092B094D
ENCODING -1
SWIDTH 530 0
DWIDTH 19 0
BBX 25 23 -1 0
BITMAP
FFFFFF80
7FFFFF80
0C020000
0C020000
0C020000
0C021800
0C02FF00
0C038300
0C030180
0C020000
0C020000
0C020000
0C060000
0E060000
07FA0000
01F20000
00020000
00020000
00020000
00020000
00020000
00020000
00020000
ENDCHAR
STARTCHAR uni092C094D
ENCODING -1
SWIDTH 265 0
DWIDTH 10 0
BBX 15 20 -1 3
BITMAP
FFFE
7FFE
0000
0000
0000
03E0
07E0
0C00
1E00
1B00
1980
18C0
1860
1832
181A
180A
0806
0C06
07FC
03F8
ENDCHAR
STARTCHAR uni092D094D
ENCODING -1
SWIDTH 261 0
DWIDTH 9 0
BBX 14 17 -1 6
BITMAP
F03C
783C
1800
0C00
0C00
0C00
0C00
0C00
0C00
0C00
0FFC
0FFC
0C00
0C00
0C00
0C00
0800
ENDCHAR
STARTCHAR uni092E094D
ENCODING -1
SWIDTH 261 0
DWIDTH 9 0
BBX 14 17 -1 6
BITMAP
FFFC
7FFC
0C00
0C00
0C00
0C00
0C00
0C00
0C00
0C00
0FFC
0FFC
0C00
0C00
0C00
0C00
0800
ENDCHAR
STARTCHAR uni092F094D
ENCODING -1
SWIDTH 323 0
DWIDTH 12 0
BBX 17 19 -1 4
BITMAP
FFFF00
7FFF00
00C000
004000
006000
006000
004000
00C000
0FC000
1F0000
180000
180000
180000
180000
080000
0C0080
0C0180
07FF00
03FE00
ENDCHAR
STARTCHAR uni0930094D
ENCODING -1
SWIDTH 337 0
DWIDTH 12 0
BBX 14 31 -1 -8
BITMAP
FFFC
7FF8
00C0
00C0
00C0
00C0
00C0
00C0
00C0
00C0
01C0
3F80
3C00
1800
0C00
0C00
0600
0700
0300
0180
0180
00C0
0060
0000
0000
0300
0180
0180
00C0
0060
0020
ENDCHAR
STARTCHAR uni0932094D
ENCODING -1
SWIDTH 431 0
DWIDTH 16 0
BBX 21 22 -1 1
BITMAP
FFFFF8
7FFFF8
000000
000000
000000
000000
000000
03E3E0
07F7F8
0C1C08
0C0C00
080C00
080C00
080C00
080C00
080800
080000
080000
0C0000
0E0000
07E000
01E000
ENDCHAR
STARTCHAR uni0933094D
ENCODING -1
SWIDTH 677 0
DWIDTH 24 0
BBX 26 22 -1 1
BITMAP
FFFFFFC0
7FFFFFC0
00000000
00000000
00000000
00000000
01C0C000
07F3F800
0C1E0C00
0C0C0C00
180C0600
180C0600
180C0600
180C0600
180C0600
180C0600
180C0600
180C0600
0C0C0C00
0C1E0C00
07F3F800
00C0C000
ENDCHAR
STARTCHAR uni0935094D
ENCODING -1
SWIDTH 255 0
DWIDTH 9 0
BBX 15 20 -1 3
BITMAP
FFFE
7FFE
0000
0000
0000
03E0
07E0
0C00
1800
1800
1800
1800
1800
1802
1802
1802
0806
0C06
07FC
03F8
ENDCHAR
STARTCHAR uni0936094D
ENCODING -1
SWIDTH 378 0
DWIDTH 14 0
BBX 10 23 2 0
BITMAP
1F00
3F80
60C0
40C0
40C0
40C0
40C0
00C0
00C0
00C0
00C0
FF80
FF00
C000
6000
6000
3000
1800
1800
0C00
0600
0600
0300
ENDCHAR
STARTCHAR uni0937094D
ENCODING -1
SWIDTH 282 0
DWIDTH 10 0
BBX 16 17 -1 6
BITMAP
FFFF
7FFE
0C00
0E00
0F00
0D80
0CC0
0C60
0C30
0C10
0C08
0C0C
0C07
0C03
060E
03FC
00F0
ENDCHAR
STARTCHAR uni0938094D
ENCODING -1
SWIDTH 338 0
DWIDTH 12 0
BBX 17 23 -1 0
BITMAP
FFFF80
7FFF80
008000
008000
008000
008000
008000
008000
008000
018000
018000
3FFF80
3FFF80
180000
180000
0C0000
060000
060000
030000
030000
018000
018000
00C000
ENDCHAR
STARTCHAR uni0939094D
ENCODING -1
SWIDTH 457 0
DWIDTH 16 0
BBX 21 25 -1 -2
BITMAP
FFFFE0
7FFFC0
000600
000600
000600
01FE00
07FE00
0E0000
0C0000
0C0000
0C0000
0C0000
0E0000
07FFF8
07FFF8
0C0000
0C0000
0C0000
080000
080000
080000
0C0000
0E0000
07FE00
00FE00
ENDCHAR
STARTCHAR uni0915093C094D
ENCODING -1
SWIDTH 519 0
DWIDTH 19 0
BBX 24 25 -1 -2
BITMAP
FFFFFF
7FFFFF
000600
000600
000600
00C638
07E7FE
0C0703
080601
180600
180600
180600
180600
180600
180600
180600
080600
0C0E00
07FE00
00C600
000600
000600
000600
060000
060000
ENDCHAR
STARTCHAR uni0916093C094D
ENCODING -1
SWIDTH 463 0
DWIDTH 17 0
BBX 22 25 -1 -2
BITMAP
FFFFFC
7FFFF8
00C000
00C000
00C000
00C000
00C1C0
00C3C0
00C600
00C400
01CC00
3F8C00
3C0C00
180400
0C0400
0C060C
0603F8
0301F0
030000
018000
018000
00C000
006000
180000
080000
ENDCHAR
STARTCHAR uni0917093C094D
ENCODING -1
SWIDTH 264 0
DWIDTH 10 0
BBX 11 24 -1 -1
BITMAP
FFE0
7FE0
0300
0300
0300
0300
0300
0300
0300
0300
0300
0200
0600
3E00
3800
0000
0000
0000
0000
0000
0000
0000
0600
0400
ENDCHAR
STARTCHAR uni091C093C094D
ENCODING -1
SWIDTH 314 0
DWIDTH 11 0
BBX 16 26 -1 -3
BITMAP
FFFF
7FFF
0000
0000
0000
0000
0000
0FFF
0FFF
00C0
0060
0060
0060
0060
0060
0060
0060
0060
00C0
3FC0
3E00
0000
0000
0000
0C00
0400
ENDCHAR
STARTCHAR uni0928093C094D
ENCODING -1
SWIDTH 241 0
DWIDTH 9 0
BBX 12 24 0 -1
BITMAP
FFF0
FFF0
0000
0000
0000
0000
0000
0000
0000
1FF0
3FF0
3000
2000
2000
3000
3000
0000
0000
0000
0000
0000
0000
0C00
0400
ENDCHAR
STARTCHAR uni092B093C094D
ENCODING -1
SWIDTH 530 0
DWIDTH 19 0
BBX 25 24 -1 -1
BITMAP
FFFFFF80
7FFFFF80
0C020000
0C020000
0C020000
0C021800
0C02FF00
0C038300
0C030180
0C020000
0C020000
0C020000
0C060000
0E060000
07FA0000
01F20000
00020000
00020000
00020000
00020000
00020000
00020000
03020000
03000000
ENDCHAR
STARTCHAR uni092F093C094D
ENCODING -1
SWIDTH 325 0
DWIDTH 12 0
BBX 17 25 -1 -2
BITMAP
FFFF00
7FFF00
00C000
004000
006000
006000
004000
00C000
0FC000
1F0000
180000
180000
180000
180000
080000
0C0080
0C0180
07FF00
03FE00
000000
000000
000000
000000
030000
010000
ENDCHAR
STARTCHAR uni09080902
ENCODING -1
SWIDTH 478 0
DWIDTH 17 0
BBX 19 34 -1 -2
BITMAP
000F80
001F80
003800
003000
003100
003300
003000
003000
003000
FFFFE0
7FFFC0
000600
000600
000600
00FE00
07FE00
0C0000
080000
080000
080000
080000
0C0000
07FC00
00FE00
000300
000300
180300
180300
180300
1C0700
1FFE00
18F000
180000
180000
ENDCHAR
STARTCHAR uni09300941
ENCODING -1
SWIDTH 533 0
DWIDTH 19 0
BBX 21 23 -1 0
BITMAP
FFFFF8
7FFFF0
00C000
00C000
00C000
00C000
00FF00
00FF80
00C0C0
00C0C0
01C0C0
3F80C0
3C00C0
1800C0
0C0180
0C0180
060700
030E00
030800
018000
018000
00C000
006000
ENDCHAR
STARTCHAR uni09300942
ENCODING -1
SWIDTH 645 0
DWIDTH 23 0
BBX 25 23 -1 0
BITMAP
FFFFFF80
7FFFFF00
00C00000
00C00000
00C00000
00C00000
00C1F000
00C7F800
00C60C00
00C60C00
01C40C00
3F840C00
3C040C00
18000C00
0C000C00
0C001800
06007000
0301C000
03038000
01800000
01800000
00C00000
00600000
ENDCHAR
STARTCHAR uni09390941
ENCODING -1
SWIDTH 495 0
DWIDTH 18 0
BBX 19 32 -1 -9
BITMAP
FFFFE0
7FFFE0
000600
000600
000600
03FE00
07FC00
0C0000
0C0000
0C0000
0C0000
0C0000
07F000
03FE00
060600
0C0300
0C0300
080300
080000
080000
0C0000
0C0000
07F800
03FF00
000300
000100
180180
180180
0C0100
060300
03FE00
00FC00
ENDCHAR
STARTCHAR uni09390942
ENCODING -1
SWIDTH 492 0
DWIDTH 18 0
BBX 19 32 -1 -9
BITMAP
FFFFE0
7FFFC0
000600
000600
000600
000600
03FE00
07FC00
0C0000
0C0000
0C0000
0C0000
0E0000
07FC00
07FE00
0C0600
0C0300
0C0300
080300
080000
0C0000
0C0000
07E000
07FC00
060E00
0C0600
0C0300
0C0300
0C0180
040180
07C080
03C000
ENDCHAR
STARTCHAR uni09260943
ENCODING -1
SWIDTH 390 0
DWIDTH 14 0
BBX 16 21 -1 2
BITMAP
FFFF
7FFE
0030
0030
0030
03F0
0FF0
0C00
0800
0800
0C00
0C00
07E0
07E0
0C00
0800
0800
0800
0C00
0FF8
03F8
ENDCHAR
STARTCHAR uni09390943
ENCODING -1
SWIDTH 519 0
DWIDTH 19 0
BBX 20 28 -1 -5
BITMAP
FFFFF0
7FFFF0
000600
000600
000600
00FE00
07FE00
0C0000
080000
080000
080000
0C0000
07FE00
07FF80
0C20C0
0C60C0
1860C0
186000
186000
186000
183000
183F80
180780
180000
0C0000
0E0000
07FE00
00FE00
ENDCHAR
STARTCHAR uni094D0930
ENCODING -1
SWIDTH 0 0
DWIDTH 0 0
BBX 11 7 -15 -6
BITMAP
0600
0F00
1B80
1980
30C0
6060
E060
ENDCHAR
STARTCHAR uni0930094D.1
ENCODING -1
SWIDTH 192 0
DWIDTH 7 0
BBX 14 10 -3 13
BITMAP
3FC0
1FC0
0000
0000
0000
0000
4008
E00C
7FF8
1FE0
ENDCHAR
STARTCHAR uni0930094D.2
ENCODING -1
SWIDTH 0 0
DWIDTH 0 0
BBX 6 10 -5 22
BITMAP
3C
78
C0
C0
C0
C0
C0
C0
C0
C0
ENDCHAR
STARTCHAR uni0930094D0902
ENCODING -1
SWIDTH 0 0
DWIDTH 0 0
BBX 6 10 -5 22
BITMAP
3C
78
C0
C0
C8
C8
C0
C0
C0
C0
ENDCHAR
STARTCHAR uni093E0930094D
ENCODING -1
SWIDTH 231 0
DWIDTH 8 0
BBX 9 32 0 0
BITMAP
0780
0F80
0C00
1800
1800
1800
1800
1800
1800
FF80
FF80
1800
1800
1800
1800
1800
1800
1800
1800
1800
1800
1800
1800
1800
1800
1800
1800
1800
1800
1800
1800
1800
ENDCHAR
STARTCHAR uni093E0930094D0902
ENCODING -1
SWIDTH 231 0
DWIDTH 8 0
BBX 9 32 0 0
BITMAP
0780
0F80
0C00
1800
1880
1980
1800
1800
1800
FF80
FF80
1800
1800
1800
1800
1800
1800
1800
1800
1800
1800
1800
1800
1800
1800
1800
1800
1800
1800
1800
1800
1800
ENDCHAR
STARTCHAR uni0930094D.aMatraI
ENCODING -1
SWIDTH 0 0
DWIDTH 0 0
BBX 6 8 -2 23
BITMAP
0C
7C
60
C0
C0
C0
C0
C0
ENDCHAR
STARTCHAR uni0902.aMatraI
ENCODING -1
SWIDTH 0 0
DWIDTH 0 0
BBX 2 2 1 27
BITMAP
C0
C0
ENDCHAR
STARTCHAR uni0930094D0902.aMatraI
ENCODING -1
SWIDTH 0 0
DWIDTH 0 0
BBX 6 8 -2 23
BITMAP
0C
7C
60
C0
C8
CC
C0
C0
ENDCHAR
STARTCHAR uni09400930094D
ENCODING -1
SWIDTH 231 0
DWIDTH 8 0
BBX 14 32 -5 0
BITMAP
3F1C
7FFC
C0E0
C0C0
C0C0
C0C0
80C0
00C0
00C0
07FC
07FC
00C0
00C0
00C0
00C0
00C0
00C0
00C0
00C0
00C0
00C0
00C0
00C0
00C0
00C0
00C0
00C0
00C0
00C0
00C0
00C0
00C0
ENDCHAR
STARTCHAR uni09400902
ENCODING -1
SWIDTH 231 0
DWIDTH 8 0
BBX 14 32 -5 0
BITMAP
3F00
7F80
C0C0
C0CC
C0CC
C0C0
80C0
00C0
00C0
07FC
07FC
00C0
00C0
00C0
00C0
00C0
00C0
00C0
00C0
00C0
00C0
00C0
00C0
00C0
00C0
00C0
00C0
00C0
00C0
00C0
00C0
00C0
ENDCHAR
STARTCHAR uni09400930094D0902
ENCODING -1
SWIDTH 231 0
DWIDTH 8 0
BBX 14 32 -5 0
BITMAP
3F1C
7FFC
C0E0
C0C0
C0C4
C0C4
00C0
00C0
00C0
07FC
07FC
00C0
00C0
00C0
00C0
00C0
00C0
00C0
00C0
00C0
00C0
00C0
00C0
00C0
00C0
00C0
00C0
00C0
00C0
00C0
00C0
00C0
ENDCHAR
STARTCHAR uni0940.aLong
ENCODING -1
SWIDTH 231 0
DWIDTH 8 0
BBX 23 32 -14 0
BITMAP
3FFF80
7FFFC0
C00060
C00060
C00060
C00060
C00060
000060
000060
0003FE
0003FE
000060
000060
000060
000060
000060
000060
000060
000060
000060
000060
000060
000060
000060
000060
000060
000060
000060
000060
000060
000060
000060
ENDCHAR
STARTCHAR uni09400930094D.aLong
ENCODING -1
SWIDTH 231 0
DWIDTH 8 0
BBX 23 32 -14 0
BITMAP
3FFF9E
7FFFFE
C00070
C00060
C00060
C00060
C00060
000060
000060
0003FE
0003FE
000060
000060
000060
000060
000060
000060
000060
000060
000060
000060
000060
000060
000060
000060
000060
000060
000060
000060
000060
000060
000060
ENDCHAR
STARTCHAR uni09400902.aLong
ENCODING -1
SWIDTH 231 0
DWIDTH 8 0
BBX 23 32 -14 0
BITMAP
3FFF80
7FFFC0
C00060
C00066
C00066
C00060
000060
000060
000060
0003FE
0003FE
000060
000060
000060
000060
000060
000060
000060
000060
000060
000060
000060
000060
000060
000060
000060
000060
000060
000060
000060
000060
000060
ENDCHAR
STARTCHAR uni09400930094D0902.aLong
ENCODING -1
SWIDTH 231 0
DWIDTH 8 0
BBX 23 32 -14 0
BITMAP
3FFF9E
7FFFFE
C00070
C00060
C00062
C00062
000060
000060
000060
0003FE
0003FE
000060
000060
000060
000060
000060
000060
000060
000060
000060
000060
000060
000060
000060
000060
000060
000060
000060
000060
000060
000060
000060
ENDCHAR
STARTCHAR uni09470930094D
ENCODING -1
SWIDTH 0 0
DWIDTH 0 0
BBX 12 10 -11 22
BITMAP
C0F0
61E0
6300
3300
1B00
1B00
0F00
0700
0300
0300
ENDCHAR
STARTCHAR uni09470902
ENCODING -1
SWIDTH 0 0
DWIDTH 0 0
BBX 11 11 -11 21
BITMAP
C000
E000
6000
3000
3860
1860
0C00
0E00
0600
0300
0100
ENDCHAR
STARTCHAR uni09470901
ENCODING -1
SWIDTH 0 0
DWIDTH 0 0
BBX 18 11 -11 21
BITMAP
C01800
600800
6100C0
3100C0
3980C0
1981C0
0CFF80
0E1C00
060000
030000
010000
ENDCHAR
STARTCHAR uni09470930094D0902
ENCODING -1
SWIDTH 0 0
DWIDTH 0 0
BBX 12 10 -11 22
BITMAP
C0F0
61E0
6300
3300
1B00
1B20
0F20
0700
0300
0300
ENDCHAR
STARTCHAR uni09480930094D
ENCODING -1
SWIDTH 0 0
DWIDTH 0 0
BBX 13 10 -12 22
BITMAP
C338
6378
23C0
3380
1B80
1B80
0D80
0780
0380
0180
ENDCHAR
STARTCHAR uni09480902
ENCODING -1
SWIDTH 0 0
DWIDTH 0 0
BBX 12 10 -11 22
BITMAP
C300
C300
6300
3300
3330
1B30
0B00
0F00
0700
0300
ENDCHAR
STARTCHAR uni09480901
ENCODING -1
SWIDTH 0 0
DWIDTH 0 0
BBX 21 10 -11 22
BITMAP
C30300
C30100
636018
332018
333018
1B3FF0
0B1FE0
0F0000
070000
030000
ENDCHAR
STARTCHAR uni09480930094D0902
ENCODING -1
SWIDTH 0 0
DWIDTH 0 0
BBX 13 10 -12 22
BITMAP
C338
6378
23C0
3380
1B90
1B90
0D80
0780
0380
0180
ENDCHAR
STARTCHAR uni094B0930094D
ENCODING -1
SWIDTH 231 0
DWIDTH 8 0
BBX 12 32 -3 0
BITMAP
C0F0
61F0
3180
3300
1B00
0F00
0F00
0700
0300
1FF0
1FF0
0300
0300
0300
0300
0300
0300
0300
0300
0300
0300
0300
0300
0300
0300
0300
0300
0300
0300
0300
0300
0300
ENDCHAR
STARTCHAR uni094B0902
ENCODING -1
SWIDTH 231 0
DWIDTH 8 0
BBX 12 32 -3 0
BITMAP
C000
6000
3000
3040
1840
0C00
0C00
0600
0300
1FF0
1FF0
0300
0300
0300
0300
0300
0300
0300
0300
0300
0300
0300
0300
0300
0300
0300
0300
0300
0300
0300
0300
0300
ENDCHAR
STARTCHAR uni094B0930094D0902
ENCODING -1
SWIDTH 231 0
DWIDTH 8 0
BBX 12 32 -3 0
BITMAP
C0F0
61F0
3180
3B00
1B10
0F10
0F00
0700
0300
1FF0
1FF0
0300
0300
0300
0300
0300
0300
0300
0300
0300
0300
0300
0300
0300
0300
0300
0300
0300
0300
0300
0300
0300
ENDCHAR
STARTCHAR uni094C0930094D
ENCODING -1
SWIDTH 231 0
DWIDTH 8 0
BBX 12 32 -3 0
BITMAP
C670
C6F0
6680
2780
3700
1B00
0B00
0F00
0700
1FF0
1FF0
0300
0300
0300
0300
0300
0300
0300
0300
0300
0300
0300
0300
0300
0300
0300
0300
0300
0300
0300
0300
0300
ENDCHAR
STARTCHAR uni094C0902
ENCODING -1
SWIDTH 231 0
DWIDTH 8 0
BBX 12 32 -3 0
BITMAP
C300
6300
6300
3330
1B30
1B00
0D00
0700
0300
1FF0
1FF0
0300
0300
0300
0300
0300
0300
0300
0300
0300
0300
0300
0300
0300
0300
0300
0300
0300
0300
0300
0300
0300
ENDCHAR
STARTCHAR uni094C0930094D0902
ENCODING -1
SWIDTH 231 0
DWIDTH 8 0
BBX 12 32 -3 0
BITMAP
C670
C6F0
6680
2780
3710
1B30
0B00
0F00
0700
1FF0
1FF0
0300
0300
0300
0300
0300
0300
0300
0300
0300
0300
0300
0300
0300
0300
0300
0300
0300
0300
0300
0300
0300
ENDCHAR
STARTCHAR uni0915094D0937
ENCODING -1
SWIDTH 656 0
DWIDTH 24 0
BBX 22 23 2 0
BITMAP
07C0FC
1FE0FC
1830C0
3030C0
3030C0
3030C0
3030C0
1820C0
0FFFC0
3FFFC0
6000C0
C000C0
C000C0
C000C0
C030C0
C030C0
C030C0
C030C0
6070C0
3FF0C0
0630C0
0030C0
003040
ENDCHAR
STARTCHAR uni0915094D0937094D
ENCODING -1
SWIDTH 429 0
DWIDTH 15 0
BBX 18 23 2 0
BITMAP
07C000
1FE000
183000
303000
303000
303000
303000
303000
186000
1FFFC0
7FFF80
600000
C00000
C00000
C03000
C03000
C03000
C03000
607000
3FF000
063000
003000
003000
ENDCHAR
STARTCHAR uni0915094D0937094D092E
ENCODING -1
SWIDTH 933 0
DWIDTH 34 0
BBX 32 23 2 0
BITMAP
07C1FFFF
1FE1FFFF
18306010
30306010
30306010
30306010
30306010
18206010
0FFFE010
3FFFE010
60007FF0
C0007FF0
C0006010
C0006010
C0306010
C0306010
C0304010
C0300010
60700010
3FF00010
06300010
00300010
00300010
ENDCHAR
STARTCHAR uni0915094D0937094D092E094D
ENCODING -1
SWIDTH 717 0
DWIDTH 26 0
BBX 28 23 2 0
BITMAP
07C1FFF0
1FE1FFE0
18306000
30306000
30306000
30306000
30306000
18206000
0FFFE000
3FFFE000
60007FF0
C0007FF0
C0006000
C0006000
C0306000
C0306000
C0304000
C0300000
60700000
3FF00000
06300000
00300000
00300000
ENDCHAR
STARTCHAR uni0915094D0937094D092E094D092F
ENCODING -1
SWIDTH 1283 0
DWIDTH 46 0
BBX 45 23 2 0
BITMAP
07C1FFFFFFF8
1FE1FFFFFFF0
183060018180
303060008180
303060008180
303060008180
303060008180
182060018180
0FFFE01F8180
3FFFE03E0180
60007FF00180
C0007FF00180
C00060300180
C00060300180
C03060300180
C03060180180
C03000180380
C030000FFF80
60700007FD80
3FF000000180
063000000180
003000000180
003000000180
ENDCHAR
STARTCHAR uni0915094D0937094D092F
ENCODING -1
SWIDTH 989 0
DWIDTH 36 0
BBX 34 23 2 0
BITMAP
07C1FFFFC0
1FE1FFFFC0
1830040400
3030060400
3030060400
3030060400
3030060400
3030060400
18600C0400
1FFFFC0400
7FFFE00400
6000800400
C000800400
C000800400
C030C00C00
C030C00C00
C030601C00
C0307FF400
60701FE400
3FF0000400
0630000400
0030000400
0030000400
ENDCHAR
STARTCHAR uni0915094D0937094D0935
ENCODING -1
SWIDTH 936 0
DWIDTH 34 0
BBX 32 23 2 0
BITMAP
07C1FFFF
1FE1FFFF
18300010
30300010
30300010
30300F10
30303F10
18207010
0FFFE010
3FFFC010
60004010
C0004010
C0004010
C0004010
C0304010
C0304010
C0306030
C0307070
60703FD0
3FF00E10
06300010
00300010
00300010
ENDCHAR
STARTCHAR uni091C094D091E
ENCODING -1
SWIDTH 629 0
DWIDTH 23 0
BBX 23 25 0 -2
BITMAP
FFFFFE
FFFFFE
000060
000060
000060
000060
07FFE0
1FFFE0
180060
100060
100060
180060
180060
0FF860
01FC60
000C60
100460
100660
100460
180C60
1FFC60
17F860
100060
100000
100000
ENDCHAR
STARTCHAR uni091C094D091E094D
ENCODING -1
SWIDTH 398 0
DWIDTH 14 0
BBX 19 25 -1 -2
BITMAP
FFFFE0
7FFFE0
000000
000000
000000
000000
03FFE0
0FFFE0
0C0000
080000
080000
0C0000
0C0000
07FC00
00FE00
000600
080200
080300
080200
0C0600
0FFE00
0BFC00
080000
080000
080000
ENDCHAR
STARTCHAR uni091C094D091E094D092F
ENCODING -1
SWIDTH 975 0
DWIDTH 35 0
BBX 37 25 -1 -2
BITMAP
FFFFFFFFF8
7FFFFFFFF0
0000018180
0000018180
0000008180
0000008180
03FFC08180
0FFFE18180
0C00318180
08003F0180
08003E0180
0C00300180
0C00300180
07FC300180
00FE300180
0006300180
0802180380
08030FFF80
080207F980
0C06000180
0FFE000180
0BFC000180
0800000180
0800000000
0800000000
ENDCHAR
STARTCHAR uni0915094D0928
ENCODING -1
SWIDTH 1003 0
DWIDTH 36 0
BBX 38 23 -1 0
BITMAP
FFFFFFFFFC
7FFFFFFFF8
00060000C0
00060000C0
00060000C0
00C63000C0
07E7FE00C0
0C070300C0
08060100C0
180601FFC0
180603FFC0
18060300C0
18060200C0
18060200C0
18060300C0
18060300C0
08060000C0
0C0E0000C0
07FE0000C0
00C60000C0
00060000C0
00060000C0
00060000C0
ENDCHAR
STARTCHAR uni0916094D0928
ENCODING -1
SWIDTH 958 0
DWIDTH 34 0
BBX 36 23 -1 0
BITMAP
FFFFFFFFF0
7FFFFFFFF0
00C0000300
00C0000300
00C0000300
00C0000300
00C1F00300
00C3F80300
00C60C0300
00C4040300
01CC07FF00
3F8C07FF00
3C040C0300
18060C0300
0C060C0300
0C03FC0300
06007C0300
0300060300
0300000300
0180000300
00C0000300
00C0000300
0060000300
ENDCHAR
STARTCHAR uni0917094D0928
ENCODING -1
SWIDTH 736 0
DWIDTH 27 0
BBX 28 23 -1 0
BITMAP
FFFFFFF0
7FFFFFF0
03000300
03000300
03000300
03000300
03000300
03000300
03000300
0303FF00
0307FF00
020C0300
060C0300
3E0C0300
380C0300
00040300
00000300
00000300
00000300
00000300
00000300
00000300
00000300
ENDCHAR
STARTCHAR uni0918094D0928
ENCODING -1
SWIDTH 814 0
DWIDTH 29 0
BBX 31 23 -1 0
BITMAP
FFFFFFFE
7FFFFFFC
0C000060
08000060
08000060
08000060
0C000060
0C000060
07E00060
07E03FE0
0C00FFE0
08018060
08018060
08018060
0C018060
0E038060
07FE8060
00F08060
00000060
00000060
00000060
00000060
00000060
ENDCHAR
STARTCHAR uni091A094D0928
ENCODING -1
SWIDTH 829 0
DWIDTH 30 0
BBX 31 23 -1 0
BITMAP
FFFFFFFE
7FFFFFFE
00000030
00000030
00000030
00000030
00000030
3FF80030
3FF00030
06003FF0
0600FFF0
0600C030
06018030
06018030
06008030
06018030
03FFC030
01FEC030
00000030
00000030
00000030
00000030
00000030
ENDCHAR
STARTCHAR uni091B094D0928
ENCODING -1
SWIDTH 977 0
DWIDTH 35 0
BBX 37 23 -1 0
BITMAP
FFFFFFFFF8
7FFFFFFFF0
0C00000180
0C00000180
0C00000180
0C06000180
0C07C00180
0C00600180
0C00600180
0E0023FF80
07C027FF80
07C0260180
0C00260180
0C00260180
0C00260180
0C00260180
0C00200180
0C00600180
0C00600180
0E00C00180
07FFC00180
00FE000180
0000000180
ENDCHAR
STARTCHAR uni091C094D0928
ENCODING -1
SWIDTH 831 0
DWIDTH 30 0
BBX 31 23 -1 0
BITMAP
FFFFFFFE
7FFFFFFE
00000030
00000030
00000030
00000030
00000030
00000030
00000030
0FFFFFF0
0FFFFFF0
0040C030
00618030
00608030
0060C030
0060C030
00600030
00600030
00600030
00C00030
3FC00030
3E000030
00000030
ENDCHAR
STARTCHAR uni091D094D0928
ENCODING -1
SWIDTH 935 0
DWIDTH 34 0
BBX 35 24 -1 -1
BITMAP
FFFFFFFFE0
7FFFFFFFE0
000C000200
000C000200
000C000200
03FC000200
0FF8000200
0C00000200
0800000200
080003FE00
08000FFE00
0C000C0200
07FFF80200
00FFF80200
0006180200
1806080200
1806000200
1806000200
1806000200
1C0C000200
1FFC000200
18E0000200
1800000200
1800000000
ENDCHAR
STARTCHAR uni091F094D0928
ENCODING -1
SWIDTH 494 0
DWIDTH 18 0
BBX 19 32 -1 -9
BITMAP
FFFFE0
7FFFE0
000600
000600
000600
000600
000600
00FE00
07FE00
0E0000
0C0000
180000
180000
180180
180180
180180
0C0180
0E0300
07FE00
00FE00
000600
000600
000600
01FE00
0FFE00
0C0600
080600
080600
080600
0C0600
000600
000600
ENDCHAR
STARTCHAR uni0920094D0928
ENCODING -1
SWIDTH 516 0
DWIDTH 19 0
BBX 20 32 -1 -9
BITMAP
FFFFF0
7FFFF0
000200
000200
000600
000600
000600
03FC00
07FE00
0C0300
080180
180180
180180
180180
180180
180180
0C0180
0E0300
07FE00
00F600
000600
000600
000600
01FE00
0FFE00
0C0600
080600
080600
080600
0C0600
000600
000600
ENDCHAR
STARTCHAR uni0921094D0928
ENCODING -1
SWIDTH 481 0
DWIDTH 17 0
BBX 19 32 -1 -9
BITMAP
FFFFE0
7FFFC0
000600
000600
000600
00FE00
07FE00
0C0000
0C0000
080000
0C0000
0C0000
07FC00
00FE00
000300
080300
080300
080300
0C0700
07FE00
01F600
000600
000600
01FE00
0FFE00
0C0600
080600
080600
0C0600
0C0600
000600
000600
ENDCHAR
STARTCHAR uni0924094D0928
ENCODING -1
SWIDTH 756 0
DWIDTH 27 0
BBX 29 23 -1 0
BITMAP
FFFFFFF8
7FFFFFF0
00000180
00000180
00000180
00000180
00000180
00F00180
07FE0180
0C07FF80
0807FF80
18060180
18060180
18060180
18060180
18020180
18000180
18000180
18000180
08000180
0C000180
0F800180
03C00180
ENDCHAR
STARTCHAR uni0925094D0928
ENCODING -1
SWIDTH 855 0
DWIDTH 31 0
BBX 29 23 2 0
BITMAP
1F0FFFF8
3F8FFFF8
60C00080
60C00080
60C00080
60C00080
00C00080
00C00080
01800080
7F80FF80
FF03FF80
C0030080
C0060080
C0060080
C0060080
60060080
3FFF0080
1FF00080
00000080
00000080
00000080
00000080
00000080
ENDCHAR
STARTCHAR uni0926094D0928
ENCODING -1
SWIDTH 955 0
DWIDTH 34 0
BBX 36 31 -1 -8
BITMAP
FFFFFFFFF0
7FFFFFFFF0
0002000300
0002000300
0002000300
0002000300
03FE000300
07FE000300
0C00000300
080003FF00
180007FF00
18000C0300
18000C0300
18000C0300
18030C0300
18030C0300
0803000300
0C03000300
07FF000300
03FB000300
0003000300
0003000300
0003000300
0000000000
0000000000
0003000000
0001800000
0000C00000
0000C00000
0000600000
0000200000
ENDCHAR
STARTCHAR uni0927094D0928
ENCODING -1
SWIDTH 814 0
DWIDTH 29 0
BBX 31 23 -1 0
BITMAP
FFC3FFFE
7FC3FFFC
0C000060
08000060
08000060
08000060
0C000060
0C000060
07E00060
07E03FE0
0C00FFE0
08018060
08018060
08018060
0C018060
0C038060
07FF8060
03FC8060
00000060
00000060
00000060
00000060
00000060
ENDCHAR
STARTCHAR uni0928094D0928
ENCODING -1
SWIDTH 738 0
DWIDTH 27 0
BBX 28 23 -1 0
BITMAP
FFFFFFF0
7FFFFFF0
00000100
00000100
00000100
00000100
00000100
00000100
00000100
0FFFFF00
1FFFFF00
180C0100
100C0100
100C0100
180C0100
18040100
00000100
00000100
00000100
00000100
00000100
00000100
00000100
ENDCHAR
STARTCHAR uni092A094D0928
ENCODING -1
SWIDTH 782 0
DWIDTH 28 0
BBX 30 23 -1 0
BITMAP
FFFFFFFC
7FFFFFF8
0C0000C0
0C0000C0
0C0000C0
0C0000C0
0C0000C0
0C0000C0
0C0000C0
0C007FC0
0C01FFC0
0C0300C0
0C0300C0
060700C0
03FF00C0
00E300C0
000000C0
000000C0
000000C0
000000C0
000000C0
000000C0
000000C0
ENDCHAR
STARTCHAR uni092B094D0928
ENCODING -1
SWIDTH 1013 0
DWIDTH 36 0
BBX 38 23 -1 0
BITMAP
FFFFFFFFFC
7FFFFFFFFC
0C020000C0
0C020000C0
0C020000C0
0C021800C0
0C02FE00C0
0C038300C0
0C030180C0
0C0201FFC0
0C0201FFC0
0C020300C0
0C060300C0
0E060300C0
07FA0300C0
01F20100C0
00020000C0
00020000C0
00020000C0
00020000C0
00020000C0
00020000C0
00020000C0
ENDCHAR
STARTCHAR uni092C094D0928
ENCODING -1
SWIDTH 810 0
DWIDTH 29 0
BBX 31 23 -1 0
BITMAP
FFFFFFFE
7FFFFFFC
00000060
00000060
00000060
03E00060
07E00060
0C000060
1E000060
1B00FFE0
1981FFE0
18C18060
18618060
18318060
18198060
180D8060
08040060
0C0E0060
07FC0060
03F00060
00000060
00000060
00000060
ENDCHAR
STARTCHAR uni092D094D0928
ENCODING -1
SWIDTH 757 0
DWIDTH 27 0
BBX 29 23 -1 0
BITMAP
F03FFFF8
783FFFF0
18000180
0C000180
0C000180
0C000180
0C000180
0C000180
0C000180
0C03FF80
0FFFFF80
0FFE0180
0C060180
0C060180
0C060180
0C020180
00000180
00000180
00000180
00000180
00000180
00000180
00000180
ENDCHAR
STARTCHAR uni092E094D0928
ENCODING -1
SWIDTH 757 0
DWIDTH 27 0
BBX 29 23 -1 0
BITMAP
FFFFFFF8
7FFFFFF0
0C000180
0C000180
0C000180
0C000180
0C000180
0C000180
0C000180
0C03FF80
0FFFFF80
0FFE0180
0C060180
0C060180
0C060180
0C020180
00000180
00000180
00000180
00000180
00000180
00000180
00000180
ENDCHAR
STARTCHAR uni092F094D0928
ENCODING -1
SWIDTH 829 0
DWIDTH 30 0
BBX 31 23 -1 0
BITMAP
FFFFFFFE
7FFFFFFE
00C00030
00400030
00600030
00600030
00400030
00C00030
0FC00030
1F003FF0
1800FFF0
1800C030
18018030
08018030
0C018030
0C038030
07FFC030
03FC4030
00000030
00000030
00000030
00000030
00000030
ENDCHAR
STARTCHAR uni0935094D0928
ENCODING -1
SWIDTH 798 0
DWIDTH 29 0
BBX 30 23 -1 0
BITMAP
FFFFFFFC
7FFFFFFC
00000040
00000040
00000040
03E00040
07E00040
0C000040
18000040
1800FFC0
1801FFC0
18030040
18030040
18030040
18010040
18018040
08060040
0C060040
07FC0040
03F00040
00000040
00000040
00000040
ENDCHAR
STARTCHAR uni0936094D0928
ENCODING -1
SWIDTH 845 0
DWIDTH 30 0
BBX 29 23 2 0
BITMAP
1F07FFF8
7F87FFF8
60C00180
40C00180
40C00180
40C00180
40C00180
00C00180
00C00180
00C1FF80
00C3FF80
FF860180
FF060180
C0060180
60060180
60020180
30000180
18000180
18000180
0C000180
06000180
06000180
03000180
ENDCHAR
STARTCHAR uni0938094D0928
ENCODING -1
SWIDTH 831 0
DWIDTH 30 0
BBX 31 23 -1 0
BITMAP
FFFFFFFE
7FFFFFFE
00800030
00800030
00800030
00800030
00800030
00800030
00800030
01807FF0
0180FFF0
3FFFC030
3FFF8030
18008030
1800C030
0C00C030
06000030
06000030
03000030
03000030
01800030
01800030
00C00030
ENDCHAR
STARTCHAR uni0939094D0928
ENCODING -1
SWIDTH 500 0
DWIDTH 18 0
BBX 20 27 -1 -4
BITMAP
FFFFF0
7FFFE0
000300
000300
000300
01FF00
07FF00
0E0000
0C0000
0C0000
0C0000
0C0000
0E0000
07FF80
07FF80
0C0780
0C0D80
081980
083180
082180
082180
083080
081000
0C0000
0E0000
07FE00
00FE00
ENDCHAR
STARTCHAR uni0915094D0930
ENCODING -1
SWIDTH 725 0
DWIDTH 26 0
BBX 28 25 -1 -2
BITMAP
FFFFFFF0
7FFFFFE0
00060000
00060000
00060000
00C63000
07E7FE00
0C070300
08060180
18060180
18060180
18060180
18060180
18060180
18060180
18060180
18060180
0C0E0300
07FE3E00
00F63000
00660000
00C60000
01860000
03000000
06000000
ENDCHAR
STARTCHAR uni0916094D0930
ENCODING -1
SWIDTH 698 0
DWIDTH 25 0
BBX 27 25 -1 -2
BITMAP
FFFFFFE0
7FFFFFC0
00C00600
00C00600
00C00600
00C00600
00C1E600
00C3C600
00C60600
00C60600
01C40600
3F840600
3C040600
18040600
0C060600
0C060E00
0603FE00
0301F600
03002600
01806600
01C0C600
00C18600
00630600
00070000
00060000
ENDCHAR
STARTCHAR uni0917094D0930
ENCODING -1
SWIDTH 494 0
DWIDTH 18 0
BBX 19 23 -1 0
BITMAP
FFFFE0
7FFFE0
030200
030200
030200
030200
030200
030200
030200
030200
030200
020200
060600
3E0E00
381E00
001A00
003200
006200
00C200
018200
030200
070200
0E0200
ENDCHAR
STARTCHAR uni0918094D0930
ENCODING -1
SWIDTH 559 0
DWIDTH 20 0
BBX 22 25 -1 -2
BITMAP
FFFFFC
7FFFF8
0C00C0
0800C0
0800C0
0800C0
0800C0
0C00C0
0C00C0
07E0C0
07E0C0
0C00C0
0800C0
0800C0
0800C0
0800C0
0C00C0
0C01C0
07FFC0
03FEC0
001CC0
0030C0
0060C0
00C000
038000
ENDCHAR
STARTCHAR uni0919094D0930
ENCODING -1
SWIDTH 505 0
DWIDTH 18 0
BBX 20 29 -1 -6
BITMAP
FFFFF0
7FFFE0
000600
000600
000600
000600
03FE00
0FFC00
0C0000
080000
0800C0
0C00C0
0C0000
07FC00
00FE00
000300
000300
000300
080300
080300
0C0300
0FFE00
07FC00
01B000
01B800
031800
070C00
060E00
0C0600
ENDCHAR
STARTCHAR uni091A094D0930
ENCODING -1
SWIDTH 563 0
DWIDTH 20 0
BBX 22 24 -1 -1
BITMAP
FFFFFC
7FFFF8
0000C0
0000C0
0000C0
0000C0
0000C0
3FF8C0
3FF0C0
0600C0
0600C0
0600C0
0600C0
0600C0
0600C0
0600C0
0601C0
03FFC0
01FEC0
000CC0
0038C0
0070C0
00E0C0
018000
ENDCHAR
STARTCHAR uni091B094D0930
ENCODING -1
SWIDTH 581 0
DWIDTH 21 0
BBX 22 27 -1 -4
BITMAP
FFFFFC
7FFFFC
0C0040
0C0040
0C0040
0C0040
0C0040
0C07C0
0C07C0
0E0060
07C060
07C020
0C0020
0C0020
0C0020
0C0020
0C0020
0C0060
0C0060
0E00C0
07FFC0
00FE00
006C00
00C600
018300
018380
030080
ENDCHAR
STARTCHAR uni091C094D0930
ENCODING -1
SWIDTH 547 0
DWIDTH 20 0
BBX 21 24 -1 -1
BITMAP
FFFFF8
7FFFF8
000080
000080
000080
000080
000080
0FFF80
0FFF80
00C080
006080
006080
006080
006080
006080
006080
006180
00E380
3FC680
3F8C80
001C80
003880
007080
00E000
ENDCHAR
STARTCHAR uni091D094D0930
ENCODING -1
SWIDTH 684 0
DWIDTH 25 0
BBX 26 24 -1 -1
BITMAP
FFFFFFC0
7FFFFFC0
000C0400
000C0400
000C0400
03FC0400
0FF80400
0C000400
08000400
08000400
08000400
0C000400
07FFFC00
00FFFC00
00040400
18060C00
18060C00
18061C00
18063400
1C0C6400
1FFCC400
18E1C400
18038400
18070000
ENDCHAR
STARTCHAR uni091E094D0930
ENCODING -1
SWIDTH 598 0
DWIDTH 22 0
BBX 23 24 -1 -1
BITMAP
FFFFFE
7FFFFE
000020
000020
000020
000020
1F8020
1FC020
006020
002020
002020
002020
003FE0
003FE0
002020
002060
0060E0
0061A0
1FC320
1E0620
000C20
001820
003020
002000
ENDCHAR
STARTCHAR uni091F094D0930
ENCODING -1
SWIDTH 485 0
DWIDTH 17 0
BBX 19 27 -1 -4
BITMAP
FFFFE0
7FFFE0
000600
000600
000600
000600
000600
03FE00
07FC00
0C0000
080000
180000
180000
180000
180000
180180
180180
180180
0C0100
0E0300
07FE00
00F800
00D800
018C00
030C00
030600
060300
ENDCHAR
STARTCHAR uni0920094D0930
ENCODING -1
SWIDTH 512 0
DWIDTH 18 0
BBX 20 27 -1 -4
BITMAP
FFFFF0
7FFFF0
000600
000600
000600
000600
000600
03FC00
07FE00
0C0300
080180
180180
180180
180180
180180
180180
180180
180180
0C0300
0E0300
07FE00
00F800
00D800
018C00
030C00
030600
060300
ENDCHAR
STARTCHAR uni0921094D0930
ENCODING -1
SWIDTH 475 0
DWIDTH 17 0
BBX 19 29 -1 -6
BITMAP
FFFFE0
7FFFC0
000600
000600
000600
000600
03FE00
0FFC00
0C0000
080000
080000
0C0000
0C0000
07FC00
00FE00
000300
000300
000300
080300
080300
0C0300
0FFE00
07FC00
00F000
019800
031C00
030C00
060600
0C0600
ENDCHAR
STARTCHAR uni0922094D0930
ENCODING -1
SWIDTH 485 0
DWIDTH 17 0
BBX 19 27 -1 -4
BITMAP
FFFFE0
7FFFE0
000600
000600
000600
000600
00FE00
07FE00
0E0000
0C0000
080000
180000
181E00
183F00
182180
182180
182180
080180
0C0180
0E0300
07FF00
00F800
00D800
018C00
030C00
030600
060300
ENDCHAR
STARTCHAR uni0923094D0930
ENCODING -1
SWIDTH 681 0
DWIDTH 25 0
BBX 26 23 -1 0
BITMAP
FFFFFFC0
7FFFFFC0
0C040400
0C040400
0C040400
0C040400
0C040400
0C040400
0C040400
0C040400
0C040400
0C040400
0C040C00
0C0C1C00
061C1C00
07F83400
00C06400
0000C400
00018400
00030400
00060400
000E0400
001C0400
ENDCHAR
STARTCHAR uni0924094D0930
ENCODING -1
SWIDTH 493 0
DWIDTH 18 0
BBX 19 23 -1 0
BITMAP
FFFFE0
7FFFE0
000200
000200
000200
000200
000200
03F200
0FFE00
0C0600
180600
180200
180200
180200
080200
000E00
001E00
003200
006200
01C200
038200
060200
0C0200
ENDCHAR
STARTCHAR uni0925094D0930
ENCODING -1
SWIDTH 593 0
DWIDTH 21 0
BBX 20 25 2 -2
BITMAP
1F03F0
3F83F0
60C300
60C300
60C300
60C300
00C300
00C300
018300
7F8300
FF0300
C00300
C00300
C00300
C00300
C00300
600700
3FFF00
1FFB00
007300
00E300
018300
030300
0E0000
080000
ENDCHAR
STARTCHAR uni0926094D0930
ENCODING -1
SWIDTH 489 0
DWIDTH 18 0
BBX 19 24 -1 -1
BITMAP
FFFFE0
7FFFE0
000200
000200
000200
000200
03FE00
07FE00
0C0000
080000
180000
180000
180000
180000
180300
180300
080300
0C0300
07FF00
03FB00
003300
006300
00C300
018000
ENDCHAR
STARTCHAR uni0927094D0930
ENCODING -1
SWIDTH 560 0
DWIDTH 20 0
BBX 22 24 -1 -1
BITMAP
FF8FFC
7F87F8
0C00C0
0800C0
0800C0
0800C0
0800C0
0C00C0
0C00C0
07E0C0
07E0C0
0C00C0
0800C0
0800C0
0800C0
0800C0
0C00C0
0E01C0
07FFC0
00FEC0
0018C0
0030C0
00E0C0
01C000
ENDCHAR
STARTCHAR uni0928094D0930
ENCODING -1
SWIDTH 473 0
DWIDTH 17 0
BBX 19 23 -1 0
BITMAP
FFFFE0
7FFFC0
000600
000600
000600
000600
000600
000600
000600
0FFE00
1FFE00
180600
100E00
101E00
181E00
183600
006600
00C600
018600
030600
070600
060600
0C0600
ENDCHAR
STARTCHAR uni092A094D0930
ENCODING -1
SWIDTH 503 0
DWIDTH 18 0
BBX 20 24 -1 -1
BITMAP
FFFFF0
7FFFE0
0C0300
0C0300
0C0300
0C0300
0C0300
0C0300
0C0300
0C0300
0C0300
0C0300
0C0300
0C0300
060700
07FF00
00FB00
003300
006300
00C300
018300
030300
060300
0C0000
ENDCHAR
STARTCHAR uni092B094D0930
ENCODING -1
SWIDTH 741 0
DWIDTH 27 0
BBX 28 24 -1 -1
BITMAP
FFFFFFF0
7FFFFFF0
0C020000
0C020000
0C020000
0C021800
0C02FF00
0C038380
0C030180
0C030080
0C020080
0C020080
0C060080
0E060080
07FE0080
03FA0080
00320180
00620380
00C23F00
01823800
03020000
07020000
06020000
0C000000
ENDCHAR
STARTCHAR uni092C094D0930
ENCODING -1
SWIDTH 491 0
DWIDTH 18 0
BBX 19 25 -1 -2
BITMAP
FFFFE0
7FFFE0
000200
000200
000200
03E200
07E200
0C0200
1E0200
1B0200
198200
18C200
186200
183200
181A00
180E00
080600
0C0E00
07FA00
00F200
006200
00C200
018200
030000
060000
ENDCHAR
STARTCHAR uni092D094D0930
ENCODING -1
SWIDTH 491 0
DWIDTH 18 0
BBX 19 23 -1 0
BITMAP
F03FE0
783FE0
180200
0C0200
0C0200
0C0200
0C0200
0C0200
0C0200
0C0200
0FFE00
0FFE00
0C0600
0C0E00
0C0E00
0C1A00
003200
006200
00C200
018200
030200
030200
060200
ENDCHAR
STARTCHAR uni092E094D0930
ENCODING -1
SWIDTH 490 0
DWIDTH 18 0
BBX 19 23 -1 0
BITMAP
FFFFE0
7FFFE0
0C0200
0C0200
0C0200
0C0200
0C0200
0C0200
0C0200
0C0200
0FFE00
0FFE00
0C0600
0C0E00
0C1E00
0C1A00
003200
006200
00C200
018200
030200
070200
0E0200
ENDCHAR
STARTCHAR uni092F094D0930
ENCODING -1
SWIDTH 564 0
DWIDTH 20 0
BBX 22 24 -1 -1
BITMAP
FFFFFC
7FFFF8
00C0C0
0040C0
0060C0
0060C0
0040C0
00C0C0
0FC0C0
1F00C0
1800C0
1800C0
1800C0
1800C0
0800C0
0C00C0
0C01C0
07FFC0
03FEC0
001CC0
0030C0
0060C0
01C0C0
038000
ENDCHAR
STARTCHAR uni0935094D0930
ENCODING -1
SWIDTH 484 0
DWIDTH 17 0
BBX 19 24 -1 -1
BITMAP
FFFFE0
7FFFE0
000600
000600
000600
01C600
07E600
0C0600
0C0600
180600
180600
180600
180600
180600
180600
180600
080600
0C0E00
07FE00
00F600
006600
00C600
038600
070000
ENDCHAR
STARTCHAR uni0936094D0930
ENCODING -1
SWIDTH 558 0
DWIDTH 20 0
BBX 19 23 1 0
BITMAP
0F83E0
3FC3E0
306300
606300
606300
606300
206300
306300
18C300
1D8300
070300
0F8300
38E300
707700
C01F00
003B00
006300
01C300
038300
0E0300
040300
000300
000300
ENDCHAR
STARTCHAR uni0938094D0930
ENCODING -1
SWIDTH 604 0
DWIDTH 22 0
BBX 23 23 -1 0
BITMAP
FFFFFE
7FFFFE
008020
008020
008020
008020
008020
008020
008020
018020
018020
3FFFE0
3FFFE0
1801A0
180320
0C0320
060620
060C20
031820
030020
018020
018020
00C020
ENDCHAR
STARTCHAR uni0939094D0930
ENCODING -1
SWIDTH 505 0
DWIDTH 18 0
BBX 20 26 -1 -3
BITMAP
FFFFF0
7FFFE0
000300
000300
000300
00FF00
07FF00
0C0000
080000
180000
080000
080000
0C0000
07FF80
07FF80
0C0780
180D80
181980
183180
186180
18C180
180000
180000
0C0000
07FE00
03FE00
ENDCHAR
STARTCHAR uni0915093C094D0930
ENCODING -1
SWIDTH 725 0
DWIDTH 26 0
BBX 28 27 -1 -4
BITMAP
FFFFFFF0
7FFFFFE0
00060000
00060000
00060000
00C63000
07E7FE00
0C070300
08060180
18060180
18060180
18060180
18060180
18060180
18060180
18060180
18060180
0C0E0300
07FE3E00
00F63000
00660000
00C60000
01860000
03000000
06000000
00600000
00400000
ENDCHAR
STARTCHAR uni0916093C094D0930
ENCODING -1
SWIDTH 698 0
DWIDTH 25 0
BBX 27 27 -1 -4
BITMAP
FFFFFFE0
7FFFFFC0
00C00600
00C00600
00C00600
00C00600
00C1E600
00C3C600
00C60600
00C60600
01C40600
3F840600
3C040600
18040600
0C060600
0C060E00
0603FE00
0701F600
03002600
01806600
0180C600
00C18600
00630600
00030000
00060000
00004000
00004000
ENDCHAR
STARTCHAR uni0917093C094D0930
ENCODING -1
SWIDTH 494 0
DWIDTH 18 0
BBX 19 27 -1 -4
BITMAP
FFFFE0
7FFFE0
030200
030200
030200
030200
030200
030200
030200
030200
030200
020200
060600
3E0E00
380E00
001A00
003200
006200
00C200
018200
018200
030200
060200
080000
000000
004000
004000
ENDCHAR
STARTCHAR uni091C093C094D0930
ENCODING -1
SWIDTH 547 0
DWIDTH 20 0
BBX 21 25 -1 -2
BITMAP
FFFFF8
7FFFF8
000080
000080
000080
000080
000080
0FFF80
0FFF80
00C080
006080
006080
006080
006080
006080
006080
006180
006380
3FC680
3F8C80
001880
003080
006080
30C000
300000
ENDCHAR
STARTCHAR uni0921093C094D0930
ENCODING -1
SWIDTH 475 0
DWIDTH 17 0
BBX 19 29 -1 -6
BITMAP
FFFFE0
7FFFC0
000600
000600
000600
000600
03FE00
0FFC00
0C0000
080000
080000
0C0000
0C0000
07FC00
00FE00
000300
000300
000300
080300
080300
0C0300
0FFE00
07FC00
00F000
619800
231C00
030C00
060600
0C0600
ENDCHAR
STARTCHAR uni0922093C094D0930
ENCODING -1
SWIDTH 485 0
DWIDTH 17 0
BBX 19 27 -1 -4
BITMAP
FFFFE0
7FFFE0
000600
000600
000600
000600
00FE00
07FE00
0E0000
0C0000
080000
180000
181E00
183F00
182180
182180
182180
080180
0C0180
0E0300
07FF00
00F800
60D800
618C00
030C00
030600
060300
ENDCHAR
STARTCHAR uni0928093C094D0930
ENCODING -1
SWIDTH 473 0
DWIDTH 17 0
BBX 19 27 -1 -4
BITMAP
FFFFE0
7FFFC0
000600
000600
000600
000600
000600
000600
000600
0FFE00
1FFE00
180600
100E00
101E00
181E00
183600
006600
00C600
018600
038600
030600
060600
0C0600
000000
000000
018000
018000
ENDCHAR
STARTCHAR uni092B093C094D0930
ENCODING -1
SWIDTH 741 0
DWIDTH 27 0
BBX 28 26 -1 -3
BITMAP
FFFFFFF0
7FFFFFF0
0C020000
0C020000
0C020000
0C021800
0C02FF00
0C038380
0C030180
0C030080
0C020080
0C020080
0C060080
0E060080
07FE0080
03FA0080
00320180
00620380
00C23F00
01823800
03020000
06020000
0C020000
00000000
00C00000
00400000
ENDCHAR
STARTCHAR uni092F093C094D0930
ENCODING -1
SWIDTH 564 0
DWIDTH 20 0
BBX 22 27 -1 -4
BITMAP
FFFFFC
7FFFF8
00C0C0
0040C0
0060C0
0060C0
0040C0
00C0C0
0FC0C0
1F00C0
1800C0
1800C0
1800C0
1800C0
0800C0
0C00C0
0C01C0
07FFC0
03FEC0
001CC0
0038C0
0070C0
00E0C0
01C000
030000
001800
001000
ENDCHAR
STARTCHAR uni0915094D0930094D
ENCODING -1
SWIDTH 518 0
DWIDTH 19 0
BBX 24 25 -1 -2
BITMAP
FFFFFF
7FFFFF
000600
000600
000600
00C638
07E7FE
0C0703
080601
180600
180600
180600
180600
180600
180600
180600
180600
0C0E00
07FE00
00F600
006600
00C600
018600
030000
060000
ENDCHAR
STARTCHAR uni0916094D0930094D
ENCODING -1
SWIDTH 469 0
DWIDTH 17 0
BBX 22 25 -1 -2
BITMAP
FFFFFC
7FFFF8
00C000
00C000
00C000
00C000
00C1E0
00C3C0
00C600
00C600
01C400
3F8400
3C0400
180400
0C0604
0C060C
0603F8
0301F0
030030
018060
01C0C0
00C180
006300
000700
000600
ENDCHAR
STARTCHAR uni0917094D0930094D
ENCODING -1
SWIDTH 264 0
DWIDTH 10 0
BBX 15 23 -1 0
BITMAP
FFE0
7FE0
0300
0300
0300
0300
0300
0300
0300
0300
0300
0200
0606
3E0C
3818
0018
0030
0060
00C0
0180
0300
0700
0E00
ENDCHAR
STARTCHAR uni0918094D0930094D
ENCODING -1
SWIDTH 319 0
DWIDTH 11 0
BBX 17 25 -1 -2
BITMAP
FFFF00
7FFF00
0C0000
080000
080000
080000
080000
0C0000
0C0000
07E000
07E000
0C0000
080000
080000
080000
080000
0C0180
0E0380
07FE00
00FC00
001800
007000
00E000
018000
030000
ENDCHAR
STARTCHAR uni091A094D0930094D
ENCODING -1
SWIDTH 331 0
DWIDTH 12 0
BBX 17 24 -1 -1
BITMAP
FFFF00
7FFF00
000000
000000
000000
000000
000000
3FF800
3FF000
060000
060000
060000
060000
060000
060000
060080
060180
03FF00
01FE00
000C00
003800
007000
00E000
018000
ENDCHAR
STARTCHAR uni091C094D0930094D
ENCODING -1
SWIDTH 312 0
DWIDTH 11 0
BBX 17 24 -1 -1
BITMAP
FFFF00
7FFF00
000000
000000
000000
000000
000000
0FFF00
0FFF00
00C000
006000
006000
006000
006000
006000
006000
006180
006300
3FC600
3F8C00
001C00
003800
007000
00E000
ENDCHAR
STARTCHAR uni091D094D0930094D
ENCODING -1
SWIDTH 441 0
DWIDTH 16 0
BBX 21 24 -1 -1
BITMAP
FFFFF8
7FFFF0
000C00
000C00
000C00
03FC00
0FF800
0C0000
080000
080000
080000
0C0000
07FFF8
00FFF8
000408
180608
180608
180618
180630
1C0C60
1FFCC0
18E180
180380
180700
ENDCHAR
STARTCHAR uni091E094D0930094D
ENCODING -1
SWIDTH 374 0
DWIDTH 13 0
BBX 19 24 -1 -1
BITMAP
FFFFC0
7FFFC0
000000
000000
000000
000000
1F8000
1FC000
006000
002000
002000
002000
003FE0
003FE0
002060
002060
006060
0060C0
1FC180
1E0300
000600
000C00
001800
003000
ENDCHAR
STARTCHAR uni091F094D0930094D
ENCODING -1
SWIDTH 485 0
DWIDTH 17 0
BBX 19 33 -1 -10
BITMAP
FFFFE0
7FFFE0
000600
000600
000600
000600
000600
03FE00
07FC00
0C0000
080000
180000
180000
180000
180180
180180
180180
180180
0C0300
0E0700
07FE00
00F800
00D800
018C00
030C00
070600
060300
006000
003000
001800
001800
000C00
000600
ENDCHAR
STARTCHAR uni0920094D0930094D
ENCODING -1
SWIDTH 512 0
DWIDTH 18 0
BBX 20 33 -1 -10
BITMAP
FFFFF0
7FFFF0
000600
000600
000600
000600
000600
03FC00
07FE00
0C0300
080180
180180
180180
180180
180180
180180
180180
180180
0C0300
0E0300
07FE00
00F800
00D800
018C00
030C00
030600
060300
002000
003000
001800
001800
000C00
000600
ENDCHAR
STARTCHAR uni0921094D0930094D
ENCODING -1
SWIDTH 475 0
DWIDTH 17 0
BBX 19 35 -1 -12
BITMAP
FFFFE0
7FFFC0
000600
000600
000600
000600
03FE00
0FFC00
0C0000
080000
080000
0C0000
0C0000
07FC00
00FE00
000300
000300
000300
080300
080300
0C0300
0FFE00
07FC00
00F000
019800
031C00
030C00
060600
0C0200
006000
003000
001000
001800
000C00
000400
ENDCHAR
STARTCHAR uni0922094D0930094D
ENCODING -1
SWIDTH 485 0
DWIDTH 17 0
BBX 19 33 -1 -10
BITMAP
FFFFE0
7FFFE0
000600
000600
000600
000600
00FE00
07FE00
0E0000
0C0000
080000
180000
181E00
183F00
182180
182180
182180
080180
0C0180
0E0300
07FF00
00FC00
00D800
018C00
038E00
030600
060300
002000
003000
001800
001800
000C00
000600
ENDCHAR
STARTCHAR uni0923094D0930094D
ENCODING -1
SWIDTH 457 0
DWIDTH 16 0
BBX 22 23 -1 0
BITMAP
FFFFC0
7FFFC0
0C0400
0C0400
0C0400
0C0400
0C0400
0C0400
0C0400
0C0400
0C0400
0C0400
0C040C
0C0C18
061C30
07F830
00C060
0000C0
000180
000300
000600
000E00
001C00
ENDCHAR
STARTCHAR uni0924094D0930094D
ENCODING -1
SWIDTH 268 0
DWIDTH 10 0
BBX 16 23 -1 0
BITMAP
FFFF
7FFF
0000
0000
0000
0000
0000
03F8
0FFC
0C06
1806
1802
1802
1802
0802
000E
001C
0030
0060
01C0
0380
0600
0C00
ENDCHAR
STARTCHAR uni0925094D0930094D
ENCODING -1
SWIDTH 358 0
DWIDTH 13 0
BBX 15 25 2 -2
BITMAP
1F00
3F80
60C0
60C0
60C0
60C0
00C0
00C0
0180
7F80
FF00
C000
C000
C000
C000
C002
6006
3FFC
1FF8
0070
00E0
0180
0300
0E00
0C00
ENDCHAR
STARTCHAR uni0926094D0930094D
ENCODING -1
SWIDTH 489 0
DWIDTH 18 0
BBX 19 30 -1 -7
BITMAP
FFFFE0
7FFFE0
000200
000200
000200
000200
03FE00
07FE00
0C0000
080000
180000
180000
180000
180000
180300
180300
080300
0C0300
07FF00
03FB00
003300
006300
00C300
018000
001800
000800
000C00
000600
000600
000300
ENDCHAR
STARTCHAR uni0927094D0930094D
ENCODING -1
SWIDTH 322 0
DWIDTH 12 0
BBX 17 24 -1 -1
BITMAP
FF8F00
7F8700
0C0000
080000
080000
080000
080000
0C0000
0C0000
07E000
07E000
0C0000
080000
080000
080000
080000
0C0080
0E0380
07FF00
00FE00
001800
003000
00E000
01C000
ENDCHAR
STARTCHAR uni0928094D0930094D
ENCODING -1
SWIDTH 247 0
DWIDTH 9 0
BBX 15 23 -1 0
BITMAP
FFFE
7FFC
0000
0000
0000
0000
0000
0000
0000
0FFE
1FFE
1806
1004
100C
1818
1830
0060
00C0
01C0
0380
0300
0600
0C00
ENDCHAR
STARTCHAR uni092A094D0930094D
ENCODING -1
SWIDTH 270 0
DWIDTH 10 0
BBX 15 24 -1 -1
BITMAP
FFF8
7FF8
0C00
0C00
0C00
0C00
0C00
0C00
0C00
0C00
0C00
0C00
0C00
0C02
060E
07FC
00F8
0030
0060
00C0
0180
0300
0600
0C00
ENDCHAR
STARTCHAR uni092B094D0930094D
ENCODING -1
SWIDTH 523 0
DWIDTH 19 0
BBX 24 24 -1 -1
BITMAP
FFFFFF
FFFFFF
080600
080600
080600
080638
0806FE
080703
080601
080600
080600
080600
080600
0C0E00
07FE00
03F600
002600
006600
00C600
018600
030600
060600
0C0600
080000
ENDCHAR
STARTCHAR uni092C094D0930094D
ENCODING -1
SWIDTH 267 0
DWIDTH 10 0
BBX 15 25 -1 -2
BITMAP
FFFE
7FFE
0000
0000
0000
03E0
07E0
0C00
1E00
1B00
1980
18C0
1860
1830
181A
180E
0806
0C0C
07F8
00F0
0060
00C0
0180
0300
0600
ENDCHAR
STARTCHAR uni092D094D0930094D
ENCODING -1
SWIDTH 257 0
DWIDTH 9 0
BBX 15 23 -1 0
BITMAP
F03E
783C
1800
0C00
0C00
0C00
0C00
0C00
0C00
0C00
0FFC
0FFE
0C06
0C0C
0C18
0C38
0030
0060
00C0
0180
0300
0700
0600
ENDCHAR
STARTCHAR uni092E094D0930094D
ENCODING -1
SWIDTH 261 0
DWIDTH 9 0
BBX 15 23 -1 0
BITMAP
FFFE
7FFC
0C00
0C00
0C00
0C00
0C00
0C00
0C00
0C00
0FFC
0FFE
0C06
0C0C
0C18
0C38
0030
0060
00C0
0180
0300
0700
0600
ENDCHAR
STARTCHAR uni092F094D0930094D
ENCODING -1
SWIDTH 323 0
DWIDTH 12 0
BBX 17 24 -1 -1
BITMAP
FFFE00
7FFE00
00C000
004000
006000
006000
004000
00C000
0FC000
1F8000
180000
180000
180000
180000
080000
0C0080
0C0180
07FF00
03FE00
001C00
003000
006000
01C000
038000
ENDCHAR
STARTCHAR uni0935094D0930094D
ENCODING -1
SWIDTH 255 0
DWIDTH 9 0
BBX 15 24 -1 -1
BITMAP
FFF8
7FF0
0000
0000
0000
03E0
07C0
0C00
1800
1800
1800
1800
1800
1800
1800
1800
0806
0C0C
07F8
00F0
0060
00C0
0380
0700
ENDCHAR
STARTCHAR uni0938094D0930094D
ENCODING -1
SWIDTH 347 0
DWIDTH 12 0
BBX 18 23 -1 0
BITMAP
FFFF80
7FFF00
008000
008000
008000
008000
008000
008000
008000
018000
018000
3FFFC0
3FFFC0
180180
180300
0C0600
060E00
060C00
031800
033000
018000
018000
00C000
ENDCHAR
STARTCHAR uni0915093C094D0930094D
ENCODING -1
SWIDTH 518 0
DWIDTH 19 0
BBX 24 27 -1 -4
BITMAP
FFFFFF
7FFFFF
000600
000600
000600
00C638
07E7FE
0C0703
080601
180600
180600
180600
180600
180600
180600
180600
180600
0C0E00
07FE00
00F600
006600
00C600
018600
030000
060000
004000
004000
ENDCHAR
STARTCHAR uni0916093C094D0930094D
ENCODING -1
SWIDTH 466 0
DWIDTH 17 0
BBX 22 27 -1 -4
BITMAP
FFFFFC
7FFFF8
00C000
00C000
00C000
00C000
00C1E0
00C3C0
00C600
00C600
01C400
3F8400
3C0400
180400
0C0604
0C060C
0603F8
0601F0
030030
018060
0180C0
00C180
006380
000300
000600
000060
000040
ENDCHAR
STARTCHAR uni0917093C094D0930094D
ENCODING -1
SWIDTH 264 0
DWIDTH 10 0
BBX 15 27 -1 -4
BITMAP
FFE0
7FE0
0300
0300
0300
0300
0300
0300
0300
0300
0300
0200
0606
3E0C
380C
0018
0030
0060
00C0
0180
0180
0300
0600
0800
0000
0060
0040
ENDCHAR
STARTCHAR uni091C093C094D0930094D
ENCODING -1
SWIDTH 320 0
DWIDTH 12 0
BBX 17 26 -1 -3
BITMAP
FFFF00
7FFF00
000000
000000
000000
000000
000000
0FFF00
0FFF00
00C000
006000
006000
006000
006000
006000
006000
006080
006180
3FC300
3F8600
000C00
001800
003000
00E000
300000
300000
ENDCHAR
STARTCHAR uni0928093C094D0930094D
ENCODING -1
SWIDTH 247 0
DWIDTH 9 0
BBX 15 26 -1 -3
BITMAP
FFFE
7FFC
0000
0000
0000
0000
0000
0000
0000
0FFE
1FFE
1806
1004
100C
1818
1830
0070
00E0
00C0
0180
0300
0600
0C00
0000
0080
0080
ENDCHAR
STARTCHAR uni092B093C094D0930094D
ENCODING -1
SWIDTH 523 0
DWIDTH 19 0
BBX 24 26 -1 -3
BITMAP
FFFFFF
FFFFFF
080600
080600
080600
080638
0806FE
080703
080601
080600
080600
080600
080600
0C0E00
07FE00
03F600
002600
006600
00C600
018600
030600
060600
0C0600
080000
008000
00C000
ENDCHAR
STARTCHAR uni092F093C094D0930094D
ENCODING -1
SWIDTH 323 0
DWIDTH 12 0
BBX 17 27 -1 -4
BITMAP
FFFE00
7FFE00
00C000
004000
006000
006000
004000
00C000
0FC000
1F8000
180000
180000
180000
180000
080000
0C0080
0C0180
07FF00
03FE00
001C00
003800
007000
00E000
01C000
030000
001800
001800
ENDCHAR
STARTCHAR uni0915094D0915
ENCODING -1
SWIDTH 1255 0
DWIDTH 45 0
BBX 47 23 -1 0
BITMAP
FFFFFFFFFFFE
7FFFFFFFFFFC
00060000C000
00060000C000
00060000C000
00C63018C600
07E7FEFCDFC0
0C070380E060
08060100C030
18060300C030
18060300C030
18060300C030
18060300C030
18060300C030
18060300C030
18060300C030
08060100C030
0C0E0181C060
07FE00FFC7C0
00C60018C600
00060000C000
00060000C000
00060000C000
ENDCHAR
STARTCHAR uni0915094D0916
ENCODING -1
SWIDTH 1256 0
DWIDTH 45 0
BBX 47 23 -1 0
BITMAP
FFFFFFFFFFFE
7FFFFFFFFFFC
000600040060
000600040060
000600040060
00C630040060
07E7FC041E60
0C0706043C60
080603046060
1806030C6060
1806030C4060
180603F84060
180603C04060
180601804060
180600C06060
180600C060E0
080600603FE0
0C0E00301F60
07FE00300060
00C600180060
0006000C0060
0006000C0060
000600060060
ENDCHAR
STARTCHAR uni0915094D091A
ENCODING -1
SWIDTH 1086 0
DWIDTH 39 0
BBX 41 23 -1 0
BITMAP
FFFFFFFFFF80
7FFFFFFFFF00
000600001800
000600001800
000600001800
00C630001800
07E7FC001800
0C070FFE1800
080607FE1800
180600601800
180600C01800
180600801800
180600801800
180600801800
180600801800
180600C01800
080600C03800
0C0E007FF800
07FE003FD800
00C600001800
000600001800
000600001800
000600001800
ENDCHAR
STARTCHAR uni0915094D091C
ENCODING -1
SWIDTH 1071 0
DWIDTH 39 0
BBX 40 23 -1 0
BITMAP
FFFFFFFFFF
7FFFFFFFFF
0006000010
0006000010
0006000010
00C6000010
07E6000010
0C06F9FFF0
0807F8FFF0
1807001810
1806000C10
1806000C10
1806000C10
1806000C10
1806000C10
1806000C10
0806000C10
0C0E000C10
07FE001810
00C607F010
000607C010
0006000010
0006000010
ENDCHAR
STARTCHAR uni0915094D091F
ENCODING -1
SWIDTH 984 0
DWIDTH 35 0
BBX 37 23 -1 0
BITMAP
FFFFFFFFF8
7FFFFFFFF8
0006000180
0006000180
0006000180
00C6380180
07E7FE0180
0C0703FF80
080601FF00
1806030000
1806020000
1806060000
1806060000
1806060000
1806060040
1806060060
0806060060
0C0E060060
07FE0300C0
00C60380C0
000601FF80
0006003C00
0006000000
ENDCHAR
STARTCHAR uni0915094D0923
ENCODING -1
SWIDTH 1183 0
DWIDTH 43 0
BBX 44 23 -1 0
BITMAP
FFFFFFFFFFF0
7FFFFFFFFFF0
000603010100
000603010100
000603010100
00C603010100
07E63F010100
0C07FF010100
080703010100
180603010100
180603010100
180603010100
180603010100
180603030100
180601830100
180600FE0100
080600300100
0C0E00000100
07FE00000100
00C600000100
000600000100
000600000100
000600000100
ENDCHAR
STARTCHAR uni0915094D0924
ENCODING -1
SWIDTH 761 0
DWIDTH 27 0
BBX 29 23 -1 0
BITMAP
FFFFFFF8
7FFFFFF8
00010000
00010000
00010000
00010000
00010000
1FFF3F00
1FFF7F80
030181C0
060180C0
060100C0
060100C0
060100C0
060100C0
060100C0
060100C0
060100C0
03010180
01F11F00
00210C00
00010000
00010000
ENDCHAR
STARTCHAR uni0915094D0925
ENCODING -1
SWIDTH 1118 0
DWIDTH 40 0
BBX 42 23 -1 0
BITMAP
FFFFF07C0FC0
7FFFF0FE0F80
000601820C00
000601830C00
000601830C00
00C601830C00
07E600030C00
0C0600060C00
08063FFE0C00
1807FFFC0C00
180703000C00
180603000C00
180603000C00
180603000C00
180603000C00
180603000C00
080601801C00
0C0E00FFFC00
07FE007FEC00
00C600000C00
000600000C00
000600000C00
000600000C00
ENDCHAR
STARTCHAR uni0915094D0926
ENCODING -1
SWIDTH 1009 0
DWIDTH 36 0
BBX 38 23 -1 0
BITMAP
FFFFFFFFFC
7FFFFFFFF8
00060000C0
00060000C0
00060000C0
00C63000C0
07E7FE7FC0
0C0703FF80
0806018000
1806030000
1806030000
1806030000
1806030000
1806030000
1806030060
1806030060
1806030060
0C0E0180E0
0FFE01FFE0
03F6007F60
0006000060
0006000060
0006000060
ENDCHAR
STARTCHAR uni0915094D092A
ENCODING -1
SWIDTH 1007 0
DWIDTH 36 0
BBX 38 23 -1 0
BITMAP
FFFFFFFFFC
7FFFFFFFF8
00060300C0
00060300C0
00060300C0
00C60300C0
07E63F00C0
0C07FF00C0
08070300C0
18060300C0
18060300C0
18060300C0
18060300C0
18060300C0
18060181C0
180600FFC0
08060018C0
0C0E0000C0
07FE0000C0
00C60000C0
00060000C0
00060000C0
00060000C0
ENDCHAR
STARTCHAR uni0915094D092B
ENCODING -1
SWIDTH 1242 0
DWIDTH 45 0
BBX 46 23 -1 0
BITMAP
FFFFFFFFFFFC
7FFFFFFFFFFC
00060300C000
00060300C000
00060300C000
00C60300C700
07E63F00FFC0
0C07FF00E0E0
08070300C060
18060300C020
18060300C020
18060300C020
18060300C020
18060181C020
180601FFC020
1806007EC020
08060000C060
0C0E0000C0E0
07FE0000CFC0
00C60000C700
00060000C000
00060000C000
00060000C000
ENDCHAR
STARTCHAR uni0915094D092E
ENCODING -1
SWIDTH 994 0
DWIDTH 36 0
BBX 37 23 -1 0
BITMAP
FFFFFFFFF8
7FFFFFFFF8
0006030080
0006030080
0006030080
00C6030080
07E63F0080
0C07FF0080
0807030080
1806030080
180603FF80
180603FF80
1806030080
1806030080
1806030080
1806030080
0806020080
0C0E000080
07FE000080
00C6000080
0006000080
0006000080
0006000080
ENDCHAR
STARTCHAR uni0915094D092F
ENCODING -1
SWIDTH 1076 0
DWIDTH 39 0
BBX 40 23 -1 0
BITMAP
FFFFFFFFFF
7FFFFFFFFF
0006001010
0006001810
0006001810
00C6001810
07E6001810
0C06003010
0806FFF010
1807FFC010
1807030010
1806030010
1806030010
1806030010
1806030010
1806030030
0806018070
0C0E01FFD0
07FE007F90
00C6000010
0006000010
0006000010
0006000010
ENDCHAR
STARTCHAR uni0915094D0932
ENCODING -1
SWIDTH 1178 0
DWIDTH 42 0
BBX 44 23 -1 0
BITMAP
FFFFFFFFFFF0
7FFFFFFFFFF0
000600000300
000600000300
000600000300
00C630000300
07E7FE000300
0C0703F87B00
080601FDFF00
180603070300
180603030300
180602030300
180602030300
180602030300
180602030300
180602020300
080602000300
0C0E02000300
07FE03000300
00C603800300
000601F80300
000600780300
000600000300
ENDCHAR
STARTCHAR uni0915094D0935
ENCODING -1
SWIDTH 1013 0
DWIDTH 36 0
BBX 38 23 -1 0
BITMAP
FFFFFFFFFC
7FFFFFFFFC
00060000C0
00060000C0
00060000C0
00C63018C0
07E7FEFCC0
0C0703C0C0
08060180C0
18060300C0
18060300C0
18060300C0
18060300C0
18060300C0
18060300C0
18060300C0
08060180C0
0C0E0181C0
07FE00FFC0
00C60018C0
00060000C0
00060000C0
00060000C0
ENDCHAR
STARTCHAR uni0915094D0936
ENCODING -1
SWIDTH 1194 0
DWIDTH 43 0
BBX 44 23 -1 0
BITMAP
FFFFFC1F01F0
7FFFF87F81F0
00060060C180
00060040C180
00060040C180
00C60040C180
07E63000C180
0C07FE00C180
08070300C180
18060100C180
180601818180
180601FF8180
180601FE0180
180601800180
180600C00180
180600600180
080600700180
0C0E00300180
07FE00180180
00C6000C0180
0006000C0180
000600060180
000600030180
ENDCHAR
STARTCHAR uni0915094D0938
ENCODING -1
SWIDTH 1143 0
DWIDTH 41 0
BBX 43 23 -1 0
BITMAP
FFFFFFFFFFE0
7FFFFFFFFFC0
0006000C0600
0006000C0600
0006000C0600
00C6300C0600
07E7FE0C0600
0C07070C0600
0806030C0600
1806010C0600
180601180600
180601FFFE00
180601FFFE00
180601800600
180600C00600
180600C00600
080600600600
0C0E00300600
07FE00300600
00C600180600
000600180600
0006000C0600
0006000C0600
ENDCHAR
STARTCHAR uni0916094D0916
ENCODING -1
SWIDTH 1223 0
DWIDTH 44 0
BBX 46 23 -1 0
BITMAP
FFFFFFFFFFFC
7FFFFFFFFFF8
00C0001800C0
00C0001800C0
00C0001800C0
00C0001800C0
00C1C01838C0
00C3C01878C0
00C60018C0C0
00C4001880C0
01CC003980C0
3F8C07F180C0
3C0C078180C0
1804030180C0
0C04038080C0
0C060780C1C0
0603FCC07FC0
0301F8E03EC0
0300006000C0
0180003000C0
00C0003800C0
00C0001800C0
0060000C00C0
ENDCHAR
STARTCHAR uni0916094D0924
ENCODING -1
SWIDTH 984 0
DWIDTH 35 0
BBX 37 23 -1 0
BITMAP
FFFFFFFFF8
7FFFFFFFF8
00C0000180
00C0000180
00C0000180
00C0000180
00C1C00180
00C3C00180
00C601FF80
00C403FF80
01CC060180
3F8C060180
3C0C060180
1804060180
0C04060180
0C06060180
0603FE0180
0301FE0180
0300060180
0180060180
00C0060180
00C003E180
006001E180
ENDCHAR
STARTCHAR uni0916094D092E
ENCODING -1
SWIDTH 965 0
DWIDTH 35 0
BBX 36 23 -1 0
BITMAP
FFFFFFFFF0
7FFFFFFFF0
00C0060100
00C0060100
00C0060100
00C0060100
00C1C60100
00C3C60100
00C6060100
00C4060100
01CC07FF00
3F8C07FF00
3C0C060100
1804060100
0C04060100
0C060C0100
0603FC0100
0301F80100
0300000100
0180000100
00C0000100
00C0000100
0060000100
ENDCHAR
STARTCHAR uni0916094D092F
ENCODING -1
SWIDTH 1047 0
DWIDTH 38 0
BBX 39 23 -1 0
BITMAP
FFFFFFFFFE
7FFFFFFFFE
00C0002020
00C0003020
00C0003020
00C0003020
00C1C03020
00C3C03020
00C607E020
00C407C020
01CC060020
3F8C060020
3C0C060020
1804060020
0C04060020
0C060E0060
0603FB00E0
0301F3FFA0
030000FF20
0180000020
00C0000020
00C0000020
0060000020
ENDCHAR
STARTCHAR uni0916094D0935
ENCODING -1
SWIDTH 975 0
DWIDTH 35 0
BBX 37 23 -1 0
BITMAP
FFFFFFFFF8
7FFFFFFFF0
00C0000180
00C0000180
00C0000180
00C0003180
00C1C1F180
00C3C30180
00C6060180
00C4060180
01CC060180
3F8C060180
3C0C060180
180C060180
0C04060180
0C06060180
06070E0180
0303FB0380
030041FF80
0180007980
00C0000180
00C0000180
0060000180
ENDCHAR
STARTCHAR uni0916094D0936
ENCODING -1
SWIDTH 1123 0
DWIDTH 40 0
BBX 42 23 -1 0
BITMAP
FFFFE0F80FC0
7FFFE1FE0FC0
00C003060C00
00C003020C00
00C003020C00
00C003020C00
00C1C3020C00
00C3C0020C00
00C600020C00
00C400060C00
01CC00060C00
3F8C0FFC0C00
3C0C0FF80C00
18040C000C00
0C0406000C00
0C060E000C00
0603FB000C00
0301F1800C00
030001800C00
018000C00C00
00C000600C00
00C000600C00
006000300C00
ENDCHAR
STARTCHAR uni0917094D0917
ENCODING -1
SWIDTH 744 0
DWIDTH 27 0
BBX 28 23 -1 0
BITMAP
FFFFFFF0
7FFFFFF0
03018100
03018100
03018100
03018100
03018100
03018100
03018100
03018100
03018100
02010100
06030100
3E1F0100
381C0100
00000100
00000100
00000100
00000100
00000100
00000100
00000100
00000100
ENDCHAR
STARTCHAR uni0917094D0918
ENCODING -1
SWIDTH 823 0
DWIDTH 30 0
BBX 31 23 -1 0
BITMAP
FFFFFFFE
7FFFFFFE
03060020
03060020
03060020
03060020
03060020
03060020
03030020
0301F020
0303F020
02060020
06060020
3E060020
38060020
00060060
00060060
00030060
0003FFA0
0001FF20
00000020
00000020
00000020
ENDCHAR
STARTCHAR uni0917094D091C
ENCODING -1
SWIDTH 801 0
DWIDTH 29 0
BBX 30 23 -1 0
BITMAP
FFFFFFFC
7FFFFFFC
03000060
03000060
03000060
03000060
03000060
0307FFE0
0307FFE0
03006060
03003060
02003060
06003060
3E003060
38003060
00003060
00003060
00003060
00006060
001FE060
000F8060
00000060
00000060
ENDCHAR
STARTCHAR uni0917094D0923
ENCODING -1
SWIDTH 945 0
DWIDTH 34 0
BBX 36 23 -1 0
BITMAP
FFFFFFFFF0
7FFFFFFFE0
0306030300
0306030300
0306030300
0306030300
0306030300
0306030300
0306030300
0306030300
0306030300
0206030300
0606030300
3E02030300
3803060300
0001FC0300
0000300300
0000000300
0000000300
0000000300
0000000300
0000000300
0000000300
ENDCHAR
STARTCHAR uni0917094D0926
ENCODING -1
SWIDTH 748 0
DWIDTH 27 0
BBX 28 23 -1 0
BITMAP
FFFFFFF0
7FFFFFF0
03000180
03000180
03000180
03000180
0301FF80
0303FF00
03060000
03060000
03060000
02060000
06060000
3E060000
38060080
00060080
00060180
00060180
0003FF80
0001FE80
00000080
00000080
00000080
ENDCHAR
STARTCHAR uni0917094D0927
ENCODING -1
SWIDTH 823 0
DWIDTH 30 0
BBX 31 23 -1 0
BITMAP
FFFFE3FE
7FFFE3FE
03020020
03060020
03060020
03060020
03060020
03060020
03030020
0301F020
0303F020
02030020
06060020
3E060020
38060020
00060020
00060060
00060060
000300E0
0001FFA0
00003C20
00000020
00000020
ENDCHAR
STARTCHAR uni0917094D092C
ENCODING -1
SWIDTH 755 0
DWIDTH 27 0
BBX 29 23 -1 0
BITMAP
FFFFFFF8
7FFFFFF0
03000180
03000180
03000180
0300F180
0303F180
03070180
03078180
0306C180
03064180
02062180
06061180
3E061980
38060D80
00060780
00060380
00060380
0003FF80
0001FD80
00000180
00000180
00000180
ENDCHAR
STARTCHAR uni0917094D092D
ENCODING -1
SWIDTH 755 0
DWIDTH 27 0
BBX 29 23 -1 0
BITMAP
FFF81FF8
7FFC0FF0
03060180
03060180
03060180
03060180
03060180
03060180
03060180
03060180
0307FF80
0207FF80
06060180
3E060180
38060180
00060180
00020180
00000180
00000180
00000180
00000180
00000180
00000180
ENDCHAR
STARTCHAR uni0917094D092E
ENCODING -1
SWIDTH 754 0
DWIDTH 27 0
BBX 29 23 -1 0
BITMAP
FFFFFFF8
7FFFFFF0
03060180
03060180
03060180
03060180
03060180
03060180
03060180
03060180
0307FF80
0207FF80
06060180
3E060180
38060180
00060180
00020180
00000180
00000180
00000180
00000180
00000180
00000180
ENDCHAR
STARTCHAR uni0917094D092F
ENCODING -1
SWIDTH 828 0
DWIDTH 30 0
BBX 31 23 -1 0
BITMAP
FFFFFFFE
7FFFFFFE
03003030
03003030
03003030
03003030
03003030
03003030
0307E030
0307C030
03060030
02060030
06060030
3E060030
38060030
00060070
000300F0
0001FFB0
0000FF30
00000030
00000030
00000030
00000030
ENDCHAR
STARTCHAR uni0917094D0932
ENCODING -1
SWIDTH 924 0
DWIDTH 33 0
BBX 35 23 -1 0
BITMAP
FFFFFFFFE0
7FFFFFFFC0
0300000600
0300000600
0300000600
0300000600
0300000600
0301F1F600
0303FBFE00
03060E0E00
0304060600
020C060600
060C060600
3E0C060600
380C060600
000C040600
000C000600
0004000600
0006000600
0007000600
0003F00600
0000700600
0000000600
ENDCHAR
STARTCHAR uni0917094D0935
ENCODING -1
SWIDTH 747 0
DWIDTH 27 0
BBX 28 23 -1 0
BITMAP
FFFFFFF0
7FFFFFF0
03000180
03000180
03000180
03007180
0303F180
03030180
03060180
03060180
03060180
02060180
06060180
3E060180
38060180
00060180
00060380
00030780
0003FD80
00007180
00000180
00000180
00000180
ENDCHAR
STARTCHAR uni0917094D0938
ENCODING -1
SWIDTH 839 0
DWIDTH 30 0
BBX 32 23 -1 0
BITMAP
FFFFFFFF
7FFFFFFE
03006030
03006030
03006030
03006030
03006030
03006030
03006030
03006030
0300C030
020FFFF0
060FFFF0
3E0C0030
38060030
00020030
00030030
00018030
00018030
0000C030
0000C030
00006030
00007030
ENDCHAR
STARTCHAR uni0918094D092E
ENCODING -1
SWIDTH 818 0
DWIDTH 29 0
BBX 31 23 -1 0
BITMAP
FFFFFFFE
7FFFFFFE
0C008060
08008060
08008060
08008060
08008060
0C008060
0C008060
07E08060
07E0FFE0
0C00FFE0
08008060
08008060
08008060
08008060
0C018060
0C018060
07FF0060
03FE0060
00000060
00000060
00000060
ENDCHAR
STARTCHAR uni0918094D092F
ENCODING -1
SWIDTH 867 0
DWIDTH 31 0
BBX 33 23 -1 0
BITMAP
FFFFFFFF80
7FFFFFFF00
0C00181800
0800081800
0800081800
0800081800
0800081800
0C00181800
0C01F81800
07E3E01800
07E3001800
0C03001800
0803001800
0803001800
0803001800
0801801800
0C01803800
0C01FFF800
07FF7FD800
03FE001800
0000001800
0000001800
0000001800
ENDCHAR
STARTCHAR uni091A094D091A
ENCODING -1
SWIDTH 868 0
DWIDTH 31 0
BBX 33 23 -1 0
BITMAP
FFFFFFFF80
7FFFFFFF00
0000001800
0000001800
0000001800
0000001800
0000001800
3FE3FF1800
3FE3FE1800
0600C01800
0600C01800
0600C01800
0600801800
0600801800
0600C01800
0600C01800
0601C03800
03FF7FF800
01FE3FD800
0000001800
0000001800
0000001800
0000001800
ENDCHAR
STARTCHAR uni091A094D091B
ENCODING -1
SWIDTH 922 0
DWIDTH 33 0
BBX 35 22 -1 1
BITMAP
FFFFFFFFE0
7FFFFFFFC0
0000C00600
0000C00600
0000C00600
0000C00600
0000C00600
3FF8C07C00
3FF0C03E00
0600600600
06003E0200
06007C0300
0600C00300
0600C00300
0600C00300
0600C00300
0601C00300
03FFC00200
01FEC00600
0000600E00
00007FFC00
00000FE000
ENDCHAR
STARTCHAR uni091A094D092E
ENCODING -1
SWIDTH 830 0
DWIDTH 30 0
BBX 31 23 -1 0
BITMAP
FFFFFFFE
7FFFFFFE
0000C030
0000C030
0000C030
0000C030
3FF0C030
3FF8C030
0300C030
0600C030
0600FFF0
0600FFF0
0600C030
0600C030
0600C030
0600C030
03018030
03FF0030
00780030
00000030
00000030
00000030
00000030
ENDCHAR
STARTCHAR uni091A094D092F
ENCODING -1
SWIDTH 904 0
DWIDTH 33 0
BBX 34 23 -1 0
BITMAP
FFFFFFFFC0
7FFFFFFFC0
00000C0C00
0000060C00
0000060C00
0000060C00
0000060C00
3FF80C0C00
3FF0FC0C00
0600F80C00
0600800C00
0600800C00
0600800C00
0600800C00
0600C00C00
0600C00C00
0601E01C00
03FF7FFC00
01FE1FEC00
0000000C00
0000000C00
0000000C00
0000000C00
ENDCHAR
STARTCHAR uni091B094D092F
ENCODING -1
SWIDTH 1068 0
DWIDTH 38 0
BBX 40 23 -1 0
BITMAP
FFFFFFFFFF
7FFFFFFFFF
0C00000030
0C00000030
0C00000030
0C07FFC030
0C07FFF830
0C00601830
0C00600C30
0E00200C30
07C0200C30
07C0200C30
0C0021F830
0C0021F030
0C00210030
0C00210030
0C00218030
0C00618070
0C0060FFF0
0E00C03FB0
07FFC00030
00FE000030
0000000030
ENDCHAR
STARTCHAR uni091B094D0935
ENCODING -1
SWIDTH 581 0
DWIDTH 21 0
BBX 22 27 -1 -4
BITMAP
FFFFFC
7FFFFC
0C00C0
0C00C0
0C00C0
0C00C0
0C07C0
0C07C0
0E0060
03C060
07C020
0C0020
0C0020
0C0020
0C0020
0C0060
0C0060
07FFC0
03FFC0
060040
060040
0400C0
0600C0
0600C0
070180
03FF00
007C00
ENDCHAR
STARTCHAR uni091C094D0915
ENCODING -1
SWIDTH 1054 0
DWIDTH 38 0
BBX 39 23 -1 0
BITMAP
FFFFFFFFFE
7FFFFFFFFE
0000006000
0000006000
0000006000
00001C6700
00007C7FE0
0FFFC07030
0FFF806010
00C1806018
0061806018
0061806018
0061806018
0061806018
0061806018
0061806018
0061806010
0060C0E030
00C07F67E0
3FC00E6300
3E00006000
0000006000
0000006000
ENDCHAR
STARTCHAR uni091C094D091C
ENCODING -1
SWIDTH 903 0
DWIDTH 33 0
BBX 34 23 -1 0
BITMAP
FFFFFFFFC0
7FFFFFFFC0
0000000C00
0000000C00
0000000C00
0000000C00
0000000C00
0FFE3FFC00
0FFE7FFC00
00C0060C00
0060030C00
0060030C00
0060030C00
0060030C00
0060030C00
0060030C00
0060030C00
0060030C00
00C0060C00
3FC3FC0C00
3E01F00C00
0000000C00
0000000C00
ENDCHAR
STARTCHAR uni091C094D091D
ENCODING -1
SWIDTH 990 0
DWIDTH 36 0
BBX 37 24 -1 -1
BITMAP
FFFFFFFFF8
7FFFFFFFF8
0000008080
0000008080
0000008080
00007F8080
0000FF8080
0FFF800080
0FFF800080
00C1800080
0061800080
0060C00080
0060FFFF80
00601FFF80
006000C080
0060004080
0061804080
0061804080
00C1804080
3FC1C0C080
3E01FF8080
00018E0080
0001800080
0001800000
ENDCHAR
STARTCHAR uni091C094D091F
ENCODING -1
SWIDTH 815 0
DWIDTH 29 0
BBX 31 22 -1 1
BITMAP
FFFFFFFE
7FFFFFFC
00000060
00000060
00000060
00000060
00000060
0FFC3FE0
1FFF7FC0
00C1C000
00418000
00618000
00618000
00618000
00618010
00618018
00618018
00618010
00C08030
3F80C070
3E007FE0
00000F80
ENDCHAR
STARTCHAR uni091C094D0921
ENCODING -1
SWIDTH 797 0
DWIDTH 29 0
BBX 30 23 -1 0
BITMAP
FFFFFFFC
7FFFFFFC
00000040
00000040
00000040
00000040
00007FC0
0FFFFFC0
1FFF8000
00C18000
00618000
00618000
0060C000
0060FFC0
00603FE0
00600060
00600020
00C00020
3FC18020
3F818020
00018060
0000FFE0
00007F80
ENDCHAR
STARTCHAR uni091C094D0924
ENCODING -1
SWIDTH 830 0
DWIDTH 30 0
BBX 31 23 -1 0
BITMAP
FFFFFFFE
7FFFFFFE
00000030
00000030
00000030
00000030
00000030
0FFE0FF0
1FFFFFF0
00C1C030
00408030
00618030
00618030
00618030
00618030
00618030
00618030
00618030
00C18030
3F808030
3E00C030
00007830
00003C30
ENDCHAR
STARTCHAR uni091C094D0926
ENCODING -1
SWIDTH 817 0
DWIDTH 29 0
BBX 31 23 -1 0
BITMAP
FFFFFFFE
7FFFFFFE
00000060
00000060
00000060
00000060
00003FE0
0FFFFFE0
0FFFC000
00C18000
00618000
00618000
00618000
00618000
00618030
00618030
00618030
0060C070
00C07FF0
3FC03FB0
3E000030
00000030
00000030
ENDCHAR
STARTCHAR uni091C094D092C
ENCODING -1
SWIDTH 820 0
DWIDTH 30 0
BBX 31 23 -1 0
BITMAP
FFFFFFFE
7FFFFFFE
00000060
00000060
00000060
00003E60
0000FC60
0FFFC060
0FFFE060
00C1B060
00619860
00618C60
00618660
00618360
006181E0
006180E0
00618060
0060C0E0
00C0FFE0
3FC03F60
3E000060
00000060
00000060
ENDCHAR
STARTCHAR uni091C094D092E
ENCODING -1
SWIDTH 813 0
DWIDTH 29 0
BBX 31 23 -1 0
BITMAP
FFFFFFFE
7FFFFFFC
00018060
00018060
00018060
00018060
00018060
0FFF8060
0FFF8060
00C18060
0061FFE0
0061FFE0
00618060
00618060
00618060
00618060
00608060
00600060
00C00060
3FC00060
3E000060
00000060
00000060
ENDCHAR
STARTCHAR uni091C094D092F
ENCODING -1
SWIDTH 893 0
DWIDTH 32 0
BBX 34 23 -1 0
BITMAP
FFFFFFFFC0
7FFFFFFF80
00000C0C00
0000040C00
0000040C00
0000040C00
0000040C00
1FFF0C0C00
0FFFFC0C00
00C1F00C00
0061800C00
0061800C00
0061800C00
0061800C00
0061800C00
0060C00C00
0060C01C00
00607FFC00
00C03FEC00
3F80000C00
3E00000C00
0000000C00
0000000C00
ENDCHAR
STARTCHAR uni091C094D0935
ENCODING -1
SWIDTH 813 0
DWIDTH 29 0
BBX 31 23 -1 0
BITMAP
FFFFFFFE
7FFFFFFC
00000060
00000060
00000060
00001C60
00007E60
0FFFC060
0FFF8060
00C18060
00618060
00618060
00618060
00618060
00618060
00618060
00618060
0060C0E0
00C07FE0
3FC00C60
3E000060
00000060
00000060
ENDCHAR
STARTCHAR uni091D094D092E
ENCODING -1
SWIDTH 936 0
DWIDTH 34 0
BBX 35 24 -1 -1
BITMAP
FFFFFFFFE0
7FFFFFFFE0
000C0C0200
000C0C0200
000C0C0200
03FC0C0200
0FF80C0200
0C000C0200
08000C0200
08000C0200
08000FFE00
0C000FFE00
07FFFC0200
00FFFC0200
00040C0200
18060C0200
1806000200
1806000200
1806000200
1C0C000200
1FFC000200
18E0000200
1800000200
1800000000
ENDCHAR
STARTCHAR uni091D094D092F
ENCODING -1
SWIDTH 1000 0
DWIDTH 36 0
BBX 38 24 -1 -1
BITMAP
FFFFFFFFFC
7FFFFFFFF8
000C00C0C0
000C00C0C0
000C0040C0
03FC0040C0
0FF800C0C0
0C0000C0C0
08000F80C0
08001F00C0
08001800C0
0C001800C0
07FFF800C0
00FFF800C0
00041800C0
18061801C0
18060C01C0
180607FFC0
180603FCC0
1C0C0000C0
1FFC0000C0
18E00000C0
18000000C0
1800000000
ENDCHAR
STARTCHAR uni091E094D091B
ENCODING -1
SWIDTH 913 0
DWIDTH 33 0
BBX 34 22 -1 1
BITMAP
FFFFFFFFC0
7FFFFFFFC0
0000C00400
0000C00400
0000800400
1F80800400
1FC0800400
0060807C00
0060C07C00
0020E00600
00207C0600
003FFC0200
003FC00200
0020C00200
0020800200
0060800200
00E0800200
3FC0C00600
1E00C00600
0000E00C00
00007FFC00
00000FE000
ENDCHAR
STARTCHAR uni091E094D091C
ENCODING -1
SWIDTH 932 0
DWIDTH 34 0
BBX 35 23 -1 0
BITMAP
FFFFFFFFE0
7FFFFFFFE0
0000000200
0000000200
0000000200
0000000200
0000000200
1E003FFE00
1FC07FFE00
0060030200
0060018200
0020018200
0020018200
003F018200
003F018200
0020018200
0060018200
0060018200
1FC0030200
1E00FE0200
0000F80200
0000000200
0000000200
ENDCHAR
STARTCHAR uni091E094D0936
ENCODING -1
SWIDTH 975 0
DWIDTH 35 0
BBX 37 23 -1 0
BITMAP
FFFC1F01F8
7FFC3F81F0
000060C180
000040C180
000040C180
1E0040C180
1FC040C180
006000C180
006000C180
002000C180
002000C180
003FFF8180
003FFF0180
0020C00180
0020600180
0020600180
0060300180
0060180180
1FC0180180
1E000C0180
0000060180
0000060180
0000030180
ENDCHAR
STARTCHAR uni091F094D091F
ENCODING -1
SWIDTH 494 0
DWIDTH 18 0
BBX 19 33 -1 -10
BITMAP
FFFFE0
7FFFE0
000600
000600
000600
01FE00
07FE00
0E0000
0C0000
180000
180000
180000
180180
180180
180100
0C0300
07FE00
03FE00
000600
000600
000600
03FE00
0FFC00
0C0000
180000
180000
180000
180180
180180
180100
0C0300
0FFE00
03FC00
ENDCHAR
STARTCHAR uni091F094D0920
ENCODING -1
SWIDTH 495 0
DWIDTH 18 0
BBX 19 33 -1 -10
BITMAP
FFFFE0
7FFFE0
000600
000600
000600
01FE00
07FE00
0E0000
0C0000
180000
180000
180000
180180
180180
180100
0C0300
07FE00
03FE00
000600
000600
000600
03FC00
07FE00
0C0300
080180
180180
180180
180180
180180
080180
0C0300
07FE00
03FC00
ENDCHAR
STARTCHAR uni091F094D092F
ENCODING -1
SWIDTH 990 0
DWIDTH 36 0
BBX 37 23 -1 0
BITMAP
FFFFFFFFF8
7FFFFFFFF8
0006000080
0006000080
0006000080
0006000080
0006000080
03FFFF8080
07FFFFC080
0C00006080
0800006080
1800006080
1800006080
18000FC080
18010F8080
18018C0080
18018C0080
18018C0180
0C03060380
0E0707FE80
07FE01FC80
00F0000080
0000000080
ENDCHAR
STARTCHAR uni091F094D0935
ENCODING -1
SWIDTH 501 0
DWIDTH 18 0
BBX 20 27 -1 -4
BITMAP
FFFFF0
7FFFE0
000600
000600
000600
000600
00FE00
07FE00
0E0000
0C0000
180000
180000
180180
180180
180180
080180
0C0300
07FF00
07FD00
0E0100
0C0100
0C0100
0C0300
0C0300
0E0700
07FE00
00F000
ENDCHAR
STARTCHAR uni0920094D092F
ENCODING -1
SWIDTH 998 0
DWIDTH 36 0
BBX 37 23 -1 0
BITMAP
FFFFFFFFF8
7FFFFFFFF8
00060000C0
00060000C0
00060000C0
00060000C0
000E0000C0
03FC7F80C0
07FEFFE0C0
0C038060C0
08018020C0
18018020C0
18018060C0
180187E0C0
18018F80C0
18018C00C0
18018C00C0
18018C01C0
0C030601C0
0E0303FEC0
07FE01FCC0
00F00000C0
00000000C0
ENDCHAR
STARTCHAR uni0921094D0921
ENCODING -1
SWIDTH 493 0
DWIDTH 18 0
BBX 19 34 -1 -11
BITMAP
FFFFE0
7FFFE0
000600
000600
000600
00FE00
07FE00
0C0000
0C0000
080000
0C0000
0FF000
07FE00
000700
000300
080300
080300
080300
0C0700
07FE00
0FF000
0C0000
080000
080000
0C0000
07FC00
01FE00
000300
000300
080300
080300
0C0300
0FFE00
07FC00
ENDCHAR
STARTCHAR uni0921094D0922
ENCODING -1
SWIDTH 493 0
DWIDTH 18 0
BBX 19 32 -1 -9
BITMAP
FFFFE0
7FFFE0
000600
000600
000600
000600
03FE00
0FFC00
0C0000
080000
080000
0C0000
07FC00
01FE00
000300
000300
080300
080300
0C0300
0FFE00
07FC00
0E0000
0C0000
081E00
083F00
083180
082180
082180
080180
0C0100
07FF00
03FE00
ENDCHAR
STARTCHAR uni0921094D092F
ENCODING -1
SWIDTH 973 0
DWIDTH 35 0
BBX 37 23 -1 0
BITMAP
FFFFFFFFF8
7FFFFFFFF0
0006000180
0006000180
0006000180
0006000180
03FFFF0180
0FFFFFC180
0C0000C180
0800004180
0800004180
0C0000C180
0C0000C180
07FC1F8180
00FE1C0180
0003180180
0003180180
00030C0380
08030E0780
080307FD80
0C0300F180
0FFE000180
07FC000180
ENDCHAR
STARTCHAR uni0921094D0935
ENCODING -1
SWIDTH 493 0
DWIDTH 18 0
BBX 19 28 -1 -5
BITMAP
FFFFE0
7FFFE0
000600
000600
000600
00FE00
07FE00
0C0000
0C0000
080000
0C0000
0FF000
07FE00
000700
000300
080300
080300
080300
0C0700
07FF00
07F300
0C0300
0C0300
0C0300
0C0300
0C0300
07FE00
03FC00
ENDCHAR
STARTCHAR uni0922094D092F
ENCODING -1
SWIDTH 981 0
DWIDTH 35 0
BBX 37 23 -1 0
BITMAP
FFFFFFFFF8
7FFFFFFFF0
0006000180
0006000180
0006000180
0006000180
00FFFE0180
07FFFF8180
0E0000C180
0C00006180
0800006180
1800006180
181E00C180
183F0FC180
18218F0180
1821880180
1821880180
08018C0180
0C018C0380
0E0307FF80
07FE03FD80
00F8000180
0000000180
ENDCHAR
STARTCHAR uni0923094D091F
ENCODING -1
SWIDTH 908 0
DWIDTH 33 0
BBX 34 22 -1 1
BITMAP
FFFFFFFFC0
7FFFFFFFC0
0C04000C00
0C04000C00
0C04000C00
0C04000C00
0C04000C00
0C0407FC00
0C040FF800
0C04180000
0C04180000
0C04100000
0C04100000
0C0C100000
061C100000
07F8100300
00C0100300
0000100300
0000180300
00001C0600
00000FFC00
000001E000
ENDCHAR
STARTCHAR uni0923094D0920
ENCODING -1
SWIDTH 936 0
DWIDTH 34 0
BBX 35 22 -1 1
BITMAP
FFFFFFFFE0
7FFFFFFFE0
0C04000400
0C04000400
0C04000400
0C04000C00
0C04000C00
0C0407F800
0C040FFE00
0C04180600
0C04180300
0C04100300
0C04100300
0C0C100300
061C100300
07F8100300
00C0100300
0000100300
0000180300
00001C0600
00000FFC00
000001E000
ENDCHAR
STARTCHAR uni0923094D0921
ENCODING -1
SWIDTH 892 0
DWIDTH 32 0
BBX 34 23 -1 0
BITMAP
FFFFFFFFC0
7FFFFFFF80
0C04000C00
0C04000C00
0C04000C00
0C04000C00
0C0407FC00
0C041FF800
0C04180000
0C04100000
0C04100000
0C04180000
0C04180000
0C0C0FF800
061C01FC00
07F8000600
00C0000600
0000000600
0000300600
0000100600
0000180600
00001FFC00
00000FF800
ENDCHAR
STARTCHAR uni0923094D0922
ENCODING -1
SWIDTH 908 0
DWIDTH 33 0
BBX 34 22 -1 1
BITMAP
FFFFFFFFC0
7FFFFFFFC0
0C04000C00
0C04000C00
0C04000C00
0C04000C00
0C0401FC00
0C040FFC00
0C040C0000
0C04180000
0C04180000
0C04100000
0C04103E00
0C0C107E00
061C106300
07F8104300
00C0104300
0000180300
0000180300
00000C0600
00000FFE00
000001F800
ENDCHAR
STARTCHAR uni0923094D0923
ENCODING -1
SWIDTH 1127 0
DWIDTH 41 0
BBX 42 23 -1 0
BITMAP
FFFFFFFFFFC0
7FFFFFFFFFC0
0C040C040400
0C040C040400
0C040C040400
0C040C040400
0C040C040400
0C040C040400
0C040C040400
0C040C040400
0C040C040400
0C040C040400
0C040C040400
0C0C0C0C0400
061C061C0400
07F807F80400
00C000C00400
000000000400
000000000400
000000000400
000000000400
000000000400
000000000400
ENDCHAR
STARTCHAR uni0923094D092E
ENCODING -1
SWIDTH 932 0
DWIDTH 34 0
BBX 35 23 -1 0
BITMAP
FFFFFFFFE0
7FFFFFFFE0
0C04080200
0C04080200
0C04080200
0C04080200
0C04080200
0C04080200
0C04080200
0C04080200
0C040FFE00
0C040FFE00
0C04080200
0C0C080200
061C080200
07F8080200
00C0080200
0000000200
0000000200
0000000200
0000000200
0000000200
0000000200
ENDCHAR
STARTCHAR uni0923094D092F
ENCODING -1
SWIDTH 998 0
DWIDTH 36 0
BBX 37 23 -1 0
BITMAP
FFFFFFFFF8
7FFFFFFFF8
0C0400C0C0
0C0400C0C0
0C0400C0C0
0C0400C0C0
0C0400C0C0
0C0400C0C0
0C041F80C0
0C041F00C0
0C041800C0
0C041800C0
0C041800C0
0C0C1800C0
061C1800C0
07F81801C0
00C00C01C0
000007FFC0
000003FCC0
00000000C0
00000000C0
00000000C0
00000000C0
ENDCHAR
STARTCHAR uni0923094D0935
ENCODING -1
SWIDTH 923 0
DWIDTH 33 0
BBX 35 23 -1 0
BITMAP
FFFFFFFFE0
7FFFFFFFC0
0C04000600
0C04000600
0C04000600
0C0400C600
0C0407E600
0C040C0600
0C04180600
0C04180600
0C04180600
0C04180600
0C04180600
0C0C180600
061C180600
07F8180600
00C0180600
00000C0E00
000007FE00
000000C600
0000000600
0000000600
0000000600
ENDCHAR
STARTCHAR uni0924094D0915
ENCODING -1
SWIDTH 992 0
DWIDTH 36 0
BBX 37 23 -1 0
BITMAP
FFFFFFFFF8
7FFFFFFFF8
0000018000
0000018000
0000018000
0000718E00
0003F1FF80
00FF01C1C0
07FE0180C0
0C06018040
0806018060
1806018060
1806018060
1806018060
1806018060
1806018040
18060380C0
18030781C0
1803FD9F80
0800718E00
0C00018000
0F80018000
03C0018000
ENDCHAR
STARTCHAR uni0924094D0916
ENCODING -1
SWIDTH 1014 0
DWIDTH 37 0
BBX 38 23 -1 0
BITMAP
FFFFFFFFFC
7FFFFFFFFC
00000C00C0
00000C00C0
00000C00C0
00000C00C0
00000C3CC0
03F80C7CC0
0FFC0CC0C0
0C0608C0C0
180218C0C0
1803F0C0C0
1803C0C0C0
180300C0C0
180180C0C0
1800C0E0C0
1800C07FC0
1800603EC0
18003000C0
18003000C0
0C001800C0
0F800C00C0
03800C00C0
ENDCHAR
STARTCHAR uni0924094D0924
ENCODING -1
SWIDTH 542 0
DWIDTH 20 0
BBX 21 23 -1 0
BITMAP
FFFFF8
7FFFF8
000180
000180
000180
000180
000180
000180
3FFF80
3FFF80
020180
060180
060180
060180
060180
060180
060180
060180
060180
060180
070180
03E180
00E180
ENDCHAR
STARTCHAR uni0924094D0925
ENCODING -1
SWIDTH 869 0
DWIDTH 31 0
BBX 33 23 -1 0
BITMAP
FFE0F81F80
7FE1FC1F00
0003061800
0003061800
0003061800
0003061800
0000061800
0000061800
00000C1800
03FFF81800
0FFFC01800
0C06001800
1806001800
1806001800
1806001800
1806001800
1803003800
1801FFF800
1800FFD800
1800001800
0C00001800
0F80001800
0380001800
ENDCHAR
STARTCHAR uni0924094D092A
ENCODING -1
SWIDTH 757 0
DWIDTH 27 0
BBX 29 23 -1 0
BITMAP
FFFFFFF8
7FFFFFF0
00060180
00060180
00060180
00060180
00060180
00FE0180
07FE0180
0C060180
08060180
18060180
18060180
18060180
18030380
1801FF80
18003180
18000180
18000180
18000180
0C000180
0F800180
03800180
ENDCHAR
STARTCHAR uni0924094D092B
ENCODING -1
SWIDTH 992 0
DWIDTH 36 0
BBX 37 23 -1 0
BITMAP
FFFFFFFFF8
7FFFFFFFF8
0006018000
0006018000
0006018000
0006018E00
000601FF80
00FE01C1C0
07FE0180C0
0C06018040
0806018040
1806018040
1806018040
1803038040
1803FF8040
1800FD8040
18000180C0
18000181C0
1800019F80
1800018E00
0C00018000
0F80018000
0380018000
ENDCHAR
STARTCHAR uni0924094D092E
ENCODING -1
SWIDTH 764 0
DWIDTH 28 0
BBX 28 23 0 0
BITMAP
FFFFFFF0
FFFFFFF0
00040300
00040300
00040300
00040300
00040300
01FC0300
0FFC0300
18040300
1807FF00
3007FF00
30040300
30040300
30040300
30040300
30040300
30000300
30000300
10000300
18000300
0F000300
07800300
ENDCHAR
STARTCHAR uni0924094D092F
ENCODING -1
SWIDTH 830 0
DWIDTH 30 0
BBX 31 23 -1 0
BITMAP
FFFFFFFE
7FFFFFFE
00003030
00003030
00003030
00003030
00003030
00003030
00007030
03FFE030
0FFF0030
0C060030
18060030
18060030
18060030
18060070
18030070
1801FFB0
1800FF30
18000030
0C000030
0F800030
03800030
ENDCHAR
STARTCHAR uni0924094D0932
ENCODING -1
SWIDTH 957 0
DWIDTH 34 0
BBX 36 23 -1 0
BITMAP
FFFFFFFFF0
7FFFFFFFF0
0000000300
0000000300
0000000300
0000000300
0000000300
03F8F87B00
0FFDFDFF00
0C07070300
1803030300
1802030300
1802030300
1802030300
1802030300
1802020300
1802000300
1802000300
1803000300
1803800300
0C01F80300
0F80380300
0380000300
ENDCHAR
STARTCHAR uni0924094D0935
ENCODING -1
SWIDTH 751 0
DWIDTH 27 0
BBX 29 23 -1 0
BITMAP
FFFFFFF8
7FFFFFF0
00000180
00000180
00000180
00007180
0001F180
00FF0180
07FE0180
0C060180
08060180
18060180
18060180
18060180
18060180
18060180
18060180
18030380
1801FF80
08003180
0C000180
0F800180
03C00180
ENDCHAR
STARTCHAR uni0924094D0938
ENCODING -1
SWIDTH 876 0
DWIDTH 32 0
BBX 33 23 -1 0
BITMAP
FFFFFFFF80
7FFFFFFF80
0000101800
0000101800
0000101800
0000101800
0000101800
03F8101800
0FFC301800
0C04301800
1806701800
1807FFF800
1807FFF800
1803001800
1803001800
1801801800
1801801800
1800C01800
1800601800
1800601800
0C00301800
0F80301800
0380181800
ENDCHAR
STARTCHAR uni0925094D092F
ENCODING -1
SWIDTH 931 0
DWIDTH 34 0
BBX 32 23 2 0
BITMAP
1F07FFFF
3F87FFFF
60C03030
60C01830
60C01830
60C01830
00C01830
00C03030
0183F030
7F83E030
FF020030
C0020030
C0020030
C0020030
C0020030
40030030
60078070
3FFDFFF0
1FF87FB0
00000030
00000030
00000030
00000030
ENDCHAR
STARTCHAR uni0925094D0935
ENCODING -1
SWIDTH 862 0
DWIDTH 31 0
BBX 30 23 2 0
BITMAP
1F07FFFC
3F87FFF8
60C000C0
60C000C0
60C000C0
60C038C0
00C0F8C0
00C180C0
018300C0
7F8300C0
FF0300C0
C00300C0
C00300C0
C00300C0
C00300C0
400300C0
600700C0
3FFD81C0
1FF8FEC0
000038C0
000000C0
000000C0
000000C0
ENDCHAR
STARTCHAR uni0926094D0917
ENCODING -1
SWIDTH 489 0
DWIDTH 18 0
BBX 19 27 -1 -4
BITMAP
FFFFE0
7FFFE0
000200
000200
000200
000200
03FE00
07FE00
0C0000
080000
180000
180000
180000
180300
180300
080300
0C0300
07FF00
03FB00
018300
018300
018300
018300
018300
018000
0F0000
1E0000
ENDCHAR
STARTCHAR uni0926094D0918
ENCODING -1
SWIDTH 686 0
DWIDTH 25 0
BBX 26 25 -1 -2
BITMAP
FFFFFFC0
7FFFFFC0
00000400
00000400
00000400
00000400
0007FC00
000FFC00
03F80000
0FF80000
18100000
18100000
18100000
18100600
18100600
0F900600
0F980600
18180600
180FFE00
1807F600
18060600
18060600
1C0C0600
0FFC0000
01E00000
ENDCHAR
STARTCHAR uni0926094D0926
ENCODING -1
SWIDTH 506 0
DWIDTH 18 0
BBX 20 25 -1 -2
BITMAP
FFFFF0
7FFFE0
000300
000300
000300
000300
03FF00
0FFE00
0C0000
0C0000
0C0000
0C0000
0C0000
07F000
07F000
0C0000
0C0180
0C0180
0C0180
0C0380
0FFF80
03FD80
000180
000180
000180
ENDCHAR
STARTCHAR uni0926094D0927
ENCODING -1
SWIDTH 686 0
DWIDTH 25 0
BBX 26 25 -1 -2
BITMAP
FFFFFFC0
7FFFFFC0
00000400
00000400
00000400
00000400
0007FC00
000FFC00
03180000
0F180000
18100000
18100000
18100000
18100600
18100600
0F900600
0F980600
18180600
180FFE00
1807F600
18060600
18060600
1C0C0600
0FFC0000
01E00000
ENDCHAR
STARTCHAR uni0926094D092C
ENCODING -1
SWIDTH 481 0
DWIDTH 17 0
BBX 19 28 -1 -5
BITMAP
FFFFE0
7FFFC0
000200
000200
000200
000200
03FE00
07FE00
0C0000
080000
180000
180000
180000
180000
180300
180300
080300
0C0300
07FF00
07FB00
0F0300
0CC300
0C6300
0C3300
0C1B00
0E0E00
07FC00
00E000
ENDCHAR
STARTCHAR uni0926094D092D
ENCODING -1
SWIDTH 499 0
DWIDTH 18 0
BBX 19 30 -1 -7
BITMAP
FFFFE0
7FFFE0
000300
000300
000300
00FF00
07FE00
0E0000
0C0000
080000
080000
080300
080300
0C0300
0C0700
07FF00
03FB00
100300
3C0300
060300
020300
020300
020300
03FF00
03FF00
020300
020300
020300
000300
000200
ENDCHAR
STARTCHAR uni0926094D092E
ENCODING -1
SWIDTH 706 0
DWIDTH 25 0
BBX 27 24 -1 -1
BITMAP
FFFFFFE0
7FFFFFE0
00040600
00040600
00040600
00FC0600
07FC0600
0C000600
18000600
18000600
18000600
18060600
18060600
18060600
0C0E0600
07FE0600
0007FE00
0007FE00
00060600
00060600
00060600
00060600
00000600
00000200
ENDCHAR
STARTCHAR uni0926094D092F
ENCODING -1
SWIDTH 583 0
DWIDTH 21 0
BBX 22 23 -1 0
BITMAP
FFFFFC
7FFFFC
003060
003060
003060
03F060
0FE060
0C0060
080060
080060
0C0060
0C0060
07E060
07C060
0C0060
080060
080060
080060
0C00E0
0FFFE0
03FF60
000060
000060
ENDCHAR
STARTCHAR uni0926094D0935
ENCODING -1
SWIDTH 483 0
DWIDTH 17 0
BBX 19 28 -1 -5
BITMAP
FFFFE0
7FFFC0
000200
000200
000200
000200
03FE00
07FE00
0C0000
080000
180000
180000
180000
180000
180300
180300
080300
0C0300
07FF00
07FB00
0E0300
0C0300
0C0300
0C0300
0C0300
0E0600
07FC00
00E000
ENDCHAR
STARTCHAR uni0927094D092E
ENCODING -1
SWIDTH 817 0
DWIDTH 29 0
BBX 31 23 -1 0
BITMAP
FFC3FFFE
7F83FFFE
0C008060
08008060
08008060
08008060
08008060
0C008060
0C008060
03E08060
0700FFE0
0C00FFE0
08008060
08008060
08008060
08008060
0C018060
0C018060
07FF0060
03FE0060
00000060
00000060
00000060
ENDCHAR
STARTCHAR uni0927094D092F
ENCODING -1
SWIDTH 886 0
DWIDTH 32 0
BBX 33 23 -1 0
BITMAP
FFC3FFFF80
7F83FFFF80
0C000C0C00
08000C0C00
08000C0C00
08000C0C00
08000C0C00
0C000C0C00
0C01F80C00
07E1F00C00
07E1800C00
0C01800C00
0801800C00
0801800C00
0801800C00
0801801C00
0C00C01C00
0C01FFEC00
07FF3FCC00
03FE000C00
0000000C00
0000000C00
0000000C00
ENDCHAR
STARTCHAR uni0927094D0935
ENCODING -1
SWIDTH 810 0
DWIDTH 29 0
BBX 31 23 -1 0
BITMAP
FFC3FFFE
7F83FFFC
0C000060
08000060
08000060
08000C60
08007C60
0C00C060
0C018060
07E18060
07E18060
0C018060
08018060
08018060
08018060
08018060
0C018060
0C01C0E0
07FF7FE0
03FE0C60
00000060
00000060
00000060
ENDCHAR
STARTCHAR uni0928094D0915
ENCODING -1
SWIDTH 973 0
DWIDTH 35 0
BBX 37 23 -1 0
BITMAP
FFFFFFFFF8
7FFFFFFFF0
0000030000
0000030000
0000030000
0000633800
0003E3FF00
0006038180
000C030080
0FFC0300C0
1FFC0300C0
300C0300C0
300C0300C0
300C0300C0
100C0300C0
180C0300C0
000C030080
0006070180
0003FF3F00
0000731800
0000030000
0000030000
0000030000
ENDCHAR
STARTCHAR uni0928094D091A
ENCODING -1
SWIDTH 820 0
DWIDTH 30 0
BBX 31 23 -1 0
BITMAP
FFFFFFFE
7FFFFFFE
00000060
00000060
00000060
00000060
000FFC60
000FFC60
00018060
00030060
00030060
0FF30060
1FF30060
30030060
30030060
10030060
18018060
0001FFE0
00007F60
00000060
00000060
00000060
00000060
ENDCHAR
STARTCHAR uni0928094D091B
ENCODING -1
SWIDTH 781 0
DWIDTH 28 0
BBX 30 22 -1 1
BITMAP
FFFFFFFC
7FFFFFF8
001800C0
001800C0
001800C0
001800C0
001800C0
00180F80
00180FC0
03FC00C0
1FFFC040
180F8060
10180060
10180060
10180060
18180060
00180060
00180040
001800C0
000C01C0
000FFF80
0001FC00
ENDCHAR
STARTCHAR uni0928094D091F
ENCODING -1
SWIDTH 715 0
DWIDTH 26 0
BBX 27 22 -1 1
BITMAP
FFFFFFE0
7FFFFFE0
00000600
00000600
00000600
00000600
00000600
0003FE00
0007FC00
0FFC0000
1FFC0000
30080000
30080000
30080000
10080180
18080180
00080180
000C0180
000C0180
00060300
0007FE00
0000F000
ENDCHAR
STARTCHAR uni0928094D0921
ENCODING -1
SWIDTH 705 0
DWIDTH 25 0
BBX 27 23 -1 0
BITMAP
FFFFFFE0
7FFFFFE0
00000600
00000600
00000600
00000600
0003FE00
0007FC00
000C0000
0FFC0000
1FFC0000
300C0000
300C0000
3007FC00
1000FE00
18000300
00000300
00000300
00080300
000C0300
000C0300
0007FE00
0003FC00
ENDCHAR
STARTCHAR uni0928094D0924
ENCODING -1
SWIDTH 717 0
DWIDTH 26 0
BBX 27 23 -1 0
BITMAP
FFFFFFE0
7FFFFFE0
00000300
00000300
00000300
00000300
00000300
00000300
0007FF00
0FFFFF00
1FFC0300
30180300
30180300
30180300
10180300
18180300
00180300
00180300
00180300
00180300
000C0300
000F8300
00038300
ENDCHAR
STARTCHAR uni0928094D0925
ENCODING -1
SWIDTH 804 0
DWIDTH 29 0
BBX 30 23 -1 0
BITMAP
FF83C07C
7F8FF07C
000C3060
00081060
00081060
00081060
00001060
00001060
00003060
07FFE060
1FFFC060
38180060
30180060
30180060
30180060
101800E0
000C00E0
000FFF60
0003FE60
00000060
00000060
00000060
00000060
ENDCHAR
STARTCHAR uni0928094D0926
ENCODING -1
SWIDTH 724 0
DWIDTH 26 0
BBX 28 23 -1 0
BITMAP
FFFFFFF0
7FFFFFE0
00000300
00000300
00000300
00000300
0003FF00
0007FE00
000E0000
0FFC0000
1FFC0000
300C0000
300C0000
300C0000
100C0100
180C0100
000C0100
00060300
0007FF00
0001FD00
00000100
00000100
00000100
ENDCHAR
STARTCHAR uni0928094D0927
ENCODING -1
SWIDTH 753 0
DWIDTH 27 0
BBX 29 23 -1 0
BITMAP
FFFF1FF8
7FFF0FF0
00180180
00100180
00100180
00100180
00100180
00180180
00180180
0FFFC180
1FFFC180
30180180
30100180
30100180
10100180
18100180
00100180
00180380
001C0780
000FFD80
0001F980
00000180
00000180
ENDCHAR
STARTCHAR uni0928094D092A
ENCODING -1
SWIDTH 742 0
DWIDTH 27 0
BBX 28 23 -1 0
BITMAP
FFFFFFF0
7FFFFFF0
00040100
00040100
00040100
00040100
00040100
00040100
00040100
00040100
0FFC0100
1FFC0100
18040100
10060300
10070700
1803FD00
1800E100
00000100
00000100
00000100
00000100
00000100
00000100
ENDCHAR
STARTCHAR uni0928094D092B
ENCODING -1
SWIDTH 970 0
DWIDTH 35 0
BBX 36 23 -1 0
BITMAP
FFFFFFFFF0
7FFFFFFFF0
000C030000
000C030000
000C030000
000C031800
000C03FF00
000C038380
000C030180
0FFC0300C0
1FFC0300C0
300C0300C0
300C0300C0
30060700C0
1007FF00C0
1801FB00C0
0000030180
0000030380
0000033F00
0000031800
0000030000
0000030000
0000030000
ENDCHAR
STARTCHAR uni0928094D092D
ENCODING -1
SWIDTH 739 0
DWIDTH 27 0
BBX 28 23 -1 0
BITMAP
FFF01FF0
7FFC1FF0
000C0100
00040100
00060100
00060100
00060100
00060100
00060100
00060100
0FFFFF00
1FFFFF00
18060100
10060100
10060100
18060100
08040100
00000100
00000100
00000100
00000100
00000100
00000100
ENDCHAR
STARTCHAR uni0928094D092E
ENCODING -1
SWIDTH 735 0
DWIDTH 26 0
BBX 28 23 -1 0
BITMAP
FFFFFFF0
7FFFFFF0
00040300
00040300
00040300
00040300
00040300
00040300
00040300
00040300
0FFFFF00
1FFFFF00
18040300
10040300
10040300
18040300
08040300
00000300
00000300
00000300
00000300
00000300
00000300
ENDCHAR
STARTCHAR uni0928094D092F
ENCODING -1
SWIDTH 801 0
DWIDTH 29 0
BBX 30 23 -1 0
BITMAP
FFFFFFFC
7FFFFFFC
00006060
00006060
00006060
00006060
00006060
00006060
07FFC060
1FFF8060
180C0060
300C0060
300C0060
100C0060
180C0060
000C00E0
000601E0
0003FF60
0001FE60
00000060
00000060
00000060
00000060
ENDCHAR
STARTCHAR uni0928094D0935
ENCODING -1
SWIDTH 732 0
DWIDTH 26 0
BBX 28 23 -1 0
BITMAP
FFFFFFF0
7FFFFFF0
00000300
00000300
00000300
00006300
0003F300
00060300
000C0300
0FFC0300
1FFC0300
300C0300
300C0300
300C0300
100C0300
180C0300
00040300
00060700
0003FF00
00006300
00000300
00000300
00000300
ENDCHAR
STARTCHAR uni0928094D0938
ENCODING -1
SWIDTH 867 0
DWIDTH 31 0
BBX 33 23 -1 0
BITMAP
FFFFFFFF80
7FFFFFFF00
0000301800
0000301800
0000301800
0000301800
0000301800
0000301800
07E0301800
1FF8301800
180C601800
3007FFF800
3007FFF800
3006001800
1803001800
0001001800
0001801800
0000C01800
0000C01800
0000601800
0000601800
0000301800
0000381800
ENDCHAR
STARTCHAR uni0928094D0939
ENCODING -1
SWIDTH 714 0
DWIDTH 26 0
BBX 27 25 -1 -2
BITMAP
FFFFFFE0
7FFFFFE0
00000300
00000300
00000300
0000FF00
0007FE00
00060000
000C0000
0FFC0000
1FFC0000
180C0000
10060000
1003FC00
1807FE00
18060300
000C0300
000C0300
000C0300
000C0000
000C0000
000C0000
00060000
0003FF00
00007E00
ENDCHAR
STARTCHAR uni092A094D091F
ENCODING -1
SWIDTH 489 0
DWIDTH 18 0
BBX 19 24 -1 -1
BITMAP
FFFFE0
7FFFE0
0C0300
0C0300
0C0300
0C0300
0C0300
0C0300
0C0300
0C0300
07FF00
07FE00
0C0000
0C0000
180000
180000
180100
180180
180180
080180
0C0300
0E0700
07FE00
00F000
ENDCHAR
STARTCHAR uni092A094D0920
ENCODING -1
SWIDTH 506 0
DWIDTH 18 0
BBX 20 23 -1 0
BITMAP
FFFFF0
7FFFE0
0C0100
0C0100
0C0100
0C0100
0C0100
0C0100
0C0300
0C0300
07FE00
07FE00
0C0300
0C0300
080180
180180
180180
180180
080180
080100
0C0300
07FE00
03FC00
ENDCHAR
STARTCHAR uni092A094D0924
ENCODING -1
SWIDTH 495 0
DWIDTH 18 0
BBX 19 24 -1 -1
BITMAP
FFFFE0
7FFFE0
080300
080300
080300
080300
080300
080300
0C0300
0C0300
07FF00
07FF00
0C0300
080300
180300
180300
180300
180300
180300
180300
080300
0C0300
078300
008200
ENDCHAR
STARTCHAR uni092A094D092A
ENCODING -1
SWIDTH 770 0
DWIDTH 28 0
BBX 29 23 -1 0
BITMAP
FFFFFFF8
7FFFFFF8
0C020080
0C020080
0C020080
0C020080
0C020080
0C020080
0C020080
0C020080
0C020080
0C020080
0C020080
0C030180
060F8380
03FDFE80
00E03080
00000080
00000080
00000080
00000080
00000080
00000080
ENDCHAR
STARTCHAR uni092A094D092B
ENCODING -1
SWIDTH 1003 0
DWIDTH 36 0
BBX 38 23 -1 0
BITMAP
FFFFFFFFFC
7FFFFFFFF8
0C06018000
0C06018000
0C06018000
0C06018C00
0C0601FF80
0C0601C0C0
0C06018060
0C06018060
0C06018060
0C06018060
0C02018060
0C03018060
060F838060
03FDFF8060
00E0318060
00000180C0
0000018F80
0000018C00
0000018000
0000018000
0000018000
ENDCHAR
STARTCHAR uni092A094D092E
ENCODING -1
SWIDTH 774 0
DWIDTH 28 0
BBX 29 23 -1 0
BITMAP
FFFFFFF8
7FFFFFF8
0C0300C0
0C0300C0
0C0300C0
0C0300C0
0C0300C0
0C0300C0
0C0300C0
0C0300C0
0C03FFC0
0C03FFC0
0E0700C0
07FF00C0
01FB00C0
000300C0
000000C0
000000C0
000000C0
000000C0
000000C0
000000C0
000000C0
ENDCHAR
STARTCHAR uni092A094D092F
ENCODING -1
SWIDTH 855 0
DWIDTH 31 0
BBX 32 23 -1 0
BITMAP
FFFFFFFF
7FFFFFFF
0C001010
0C001810
0C001810
0C001810
0C001810
0C001810
0C03F010
0C03E010
0C030010
0C030010
0C030010
0C030010
060F0010
03FF0030
00F18070
0001FFD0
00007F90
00000010
00000010
00000010
00000010
ENDCHAR
STARTCHAR uni092A094D0932
ENCODING -1
SWIDTH 960 0
DWIDTH 35 0
BBX 36 23 -1 0
BITMAP
FFFFFFFFF0
7FFFFFFFF0
0C00000100
0C00000100
0C00000100
0C00000100
0C00000100
0C00F87900
0C01FDFF00
0C03078300
0C03030300
0C03030300
0C03030100
0C03030100
060F030100
03FF030100
00F3000100
0003000100
0003000100
0003800100
0001F80100
0000380100
0000000100
ENDCHAR
STARTCHAR uni092A094D0935
ENCODING -1
SWIDTH 780 0
DWIDTH 28 0
BBX 30 23 -1 0
BITMAP
FFFFFFFC
7FFFFFF8
0C0000C0
0C0000C0
0C0000C0
0C0018C0
0C00F8C0
0C0180C0
0C0300C0
0C0300C0
0C0300C0
0C0300C0
0C0300C0
0C0300C0
060700C0
03FF00C0
00E300C0
000181C0
0000FEC0
00003CC0
000000C0
000000C0
000000C0
ENDCHAR
STARTCHAR uni092A094D0938
ENCODING -1
SWIDTH 880 0
DWIDTH 32 0
BBX 33 23 -1 0
BITMAP
FFFFFFFF80
7FFFFFFF80
0C00100800
0C00100800
0C00100800
0C00100800
0C00100800
0C00100800
0C00100800
0C00300800
0C00700800
0C07FFF800
0C07FFF800
0C03000800
060F000800
03FD800800
00E1800800
0000C00800
0000600800
0000600800
0000300800
0000300800
0000180800
ENDCHAR
STARTCHAR uni092B094D091C
ENCODING -1
SWIDTH 1100 0
DWIDTH 40 0
BBX 41 23 -1 0
BITMAP
FFFFFFFFFF80
7FFFFFFFFF80
0C0200000800
0C0200000800
0C0200000800
0C0200000800
0C0200000800
0C027C7FF800
0C02FC7FF800
0C03000C0800
0C0300060800
0C0200060800
0C0600060800
0E0600060800
07FA00060800
01F200060800
000200060800
000200060800
0002000C0800
000203F80800
000203E00800
000200000800
000200000800
ENDCHAR
STARTCHAR uni092B094D091F
ENCODING -1
SWIDTH 1006 0
DWIDTH 36 0
BBX 38 23 -1 0
BITMAP
FFFFFFFFFC
7FFFFFFFF8
0C02000080
0C02000080
0C02000080
0C02180080
0C02FF0080
0C03837F80
0C0301FF80
0C02018000
0C02030000
0C02030000
0C06030000
0E06030000
07FE030020
01F2030020
0002030020
0002030020
0002030060
00020180E0
000200FFC0
0002001E00
0002000000
ENDCHAR
STARTCHAR uni092B094D0924
ENCODING -1
SWIDTH 1034 0
DWIDTH 37 0
BBX 39 23 -1 0
BITMAP
FFFFFFFFFE
7FFFFFFFFC
0C02000060
0C02000060
0C02000060
0C02000060
0C027E0060
0C02FF0060
0C0301FFE0
0C0301FFE0
0C02018060
0C02018060
0C06010060
0E06010060
07FA010060
01F2010060
0002010060
0002010060
0002010060
0002018060
0002018060
000200F860
0002007860
ENDCHAR
STARTCHAR uni092B094D092A
ENCODING -1
SWIDTH 1021 0
DWIDTH 37 0
BBX 38 23 -1 0
BITMAP
FFFFFFFFFC
7FFFFFFFFC
0C02010040
0C02010040
0C02010040
0C02010040
0C021F0040
0C02FF0040
0C03810040
0C03010040
0C02010040
0C02010040
0C02010040
0C060180C0
060E01C1C0
03FA00FF40
00C2003C40
0002000040
0002000040
0002000040
0002000040
0002000040
0002000040
ENDCHAR
STARTCHAR uni092B094D092B
ENCODING -1
SWIDTH 1256 0
DWIDTH 45 0
BBX 47 23 -1 0
BITMAP
FFFFFFFFFFFE
7FFFFFFFFFFC
0C020100C000
0C020100C000
0C020100C000
0C020100C600
0C021F00DFC0
0C02FF00E060
0C038100C030
0C030100C030
0C020100C030
0C020100C030
0C060180C030
0E060181C030
07FA00FFC030
01F2007EC030
00020000C030
00020000C060
00020000C7C0
00020000C600
00020000C000
00020000C000
00020000C000
ENDCHAR
STARTCHAR uni092B094D092F
ENCODING -1
SWIDTH 1120 0
DWIDTH 40 0
BBX 41 23 -1 0
BITMAP
FFFFFFFFFF80
7FFFFFFFFF00
0C0200181800
0C0200081800
0C02000C1800
0C02000C1800
0C0200081800
0C0200181800
0C027FF01800
0C02FF801800
0C0303001800
0C0303001800
0C0603001800
0E0603001800
07FA01001800
01F201801800
000201803800
000200FFF800
0002003FD800
000200001800
000200001800
000200001800
000200001800
ENDCHAR
STARTCHAR uni092B094D0932
ENCODING -1
SWIDTH 1202 0
DWIDTH 43 0
BBX 45 23 -1 0
BITMAP
FFFFFFFFFFF8
7FFFFFFFFFF0
0C0200000180
0C0200000180
0C0200000180
0C0218000180
0C02FF000180
0C03837C7D80
0C0301FEFF80
0C0201838380
0C0201018180
0C0203018180
0C0603018180
0E0603018180
07FA03018180
01F203000180
000203000180
000201000180
000201800180
000201C00180
000200FC0180
0002001C0180
000200000180
ENDCHAR
STARTCHAR uni092B094D0936
ENCODING -1
SWIDTH 1211 0
DWIDTH 44 0
BBX 45 23 -1 0
BITMAP
FFFFFE1F00F8
7FFFFE3FC0F8
0C020060C080
0C0200604080
0C0200606080
0C0210606080
0C02FE006080
0C0386006080
0C0303006080
0C0203004080
0C020100C080
0C0201FF8080
0C0601FF0080
0E0601800080
07FA00C00080
03F200C00080
000200600080
000200300080
000200300080
000200180080
0002000C0080
0002000C0080
000200060080
ENDCHAR
STARTCHAR uni092C094D091C
ENCODING -1
SWIDTH 883 0
DWIDTH 32 0
BBX 33 23 -1 0
BITMAP
FFFFFFFF80
7FFFFFFF80
0000000800
0000000800
0000000800
0000000800
03E0000800
0700FFF800
0E00FFF800
1A000C0800
1B00060800
1980060800
18C0060800
1860060800
1820060800
1810060800
1818060800
080C060800
0C060C0800
07FFFC0800
00FFE00800
0000000800
0000000800
ENDCHAR
STARTCHAR uni092C094D091D
ENCODING -1
SWIDTH 962 0
DWIDTH 35 0
BBX 36 27 -1 -4
BITMAP
FFFFFFFFF0
7FFFFFFFF0
0000010100
0000010100
0000010100
03E0FF0100
07E1FF0100
0C03000100
0E03000100
1B03000100
1983000100
18C3000100
1863000100
1833FFFF00
18123FFF00
180A018100
1806008100
0C06008100
07FC008100
03F9008100
0001808100
0001818100
00017F0100
00013C0000
0001000000
0001000000
0001000000
ENDCHAR
STARTCHAR uni092C094D0924
ENCODING -1
SWIDTH 786 0
DWIDTH 28 0
BBX 30 23 -1 0
BITMAP
FFFFFFFC
7FFFFFF8
000000C0
000000C0
000000C0
03E000C0
07E000C0
0C0000C0
1E00FFC0
1B01FFC0
198300C0
18C300C0
186300C0
182300C0
181300C0
180B00C0
080700C0
0C0700C0
07FF00C0
03FB00C0
000300C0
0001F0C0
0000F0C0
ENDCHAR
STARTCHAR uni092C094D0926
ENCODING -1
SWIDTH 775 0
DWIDTH 28 0
BBX 29 23 -1 0
BITMAP
FFFFFFF8
7FFFFFF8
000000C0
000000C0
000000C0
03E000C0
07E0FFC0
0C01FF80
1E038000
1B030000
19830000
18C30000
18630000
18230000
18130040
180B0040
080700C0
0C0700C0
07FDFFC0
03F8FF40
00000040
00000040
00000040
ENDCHAR
STARTCHAR uni092C094D0927
ENCODING -1
SWIDTH 844 0
DWIDTH 30 0
BBX 32 23 -1 0
BITMAP
FFFFF1FF
7FFFE1FF
00030030
00030030
00030030
03E30030
07C30030
0C030030
1E038030
1B00F830
1981F830
18C30030
18630030
18330030
181B0030
180F0030
08070030
0C0F0030
07FD8070
00E1FFF0
00003E30
00000030
00000030
ENDCHAR
STARTCHAR uni092C094D092C
ENCODING -1
SWIDTH 783 0
DWIDTH 28 0
BBX 30 23 -1 0
BITMAP
FFFFFFFC
7FFFFFF8
000000C0
000000C0
000000C0
03E078C0
07E1F8C0
0C0380C0
1E03C0C0
1B0340C0
198320C0
18C310C0
186318C0
18330CC0
181B06C0
180B03C0
080701C0
0C0701C0
07FDFFC0
03F8FEC0
000000C0
000000C0
000000C0
ENDCHAR
STARTCHAR uni092C094D092D
ENCODING -1
SWIDTH 764 0
DWIDTH 28 0
BBX 29 23 -1 0
BITMAP
FFF80FF8
7FFE0FF8
00060180
00020180
00020180
03E20180
07E20180
0C020180
0E020180
1B020180
1983FF80
18C3FF80
18620180
18320180
18120180
180A0180
18060180
0C060180
07FC0180
03F80180
00000180
00000180
00000180
ENDCHAR
STARTCHAR uni092C094D092F
ENCODING -1
SWIDTH 852 0
DWIDTH 31 0
BBX 32 23 -1 0
BITMAP
FFFFFFFF
7FFFFFFF
00001010
00001810
00001810
03E01810
07E01810
0C001810
1E03F010
1B03E010
19830010
18C30010
18630010
18330010
181B0030
180F0030
08078070
0C07FFD0
07FC7F90
03F80010
00000010
00000010
00000010
ENDCHAR
STARTCHAR uni092C094D0932
ENCODING -1
SWIDTH 961 0
DWIDTH 35 0
BBX 36 23 -1 0
BITMAP
FFFFFFFFF0
7FFFFFFFF0
0000000100
0000000100
0000000100
03E0000100
07E0000100
0C00F87900
1E01FCFF00
1B03078300
1983030300
18C3030100
1843030100
1823030100
1813030100
180B030100
0807000100
0C07000100
07FF000100
03FB800100
0001F80100
0000380100
0000000100
ENDCHAR
STARTCHAR uni092C094D0935
ENCODING -1
SWIDTH 776 0
DWIDTH 28 0
BBX 29 23 -1 0
BITMAP
FFFFFFF8
7FFFFFF8
000000C0
000000C0
000000C0
03E078C0
07E1F8C0
0C0380C0
1E0300C0
1B0300C0
198300C0
18C300C0
186300C0
183300C0
181B00C0
180F00C0
080701C0
0C0D83C0
07FCFEC0
00E038C0
000000C0
000000C0
000000C0
ENDCHAR
STARTCHAR uni092C094D0936
ENCODING -1
SWIDTH 926 0
DWIDTH 33 0
BBX 35 23 -1 0
BITMAP
FFF07C07E0
7FF0FE07C0
0001830600
0001830600
0001810600
03E1810600
07E1810600
0C00010600
1E00010600
1B00030600
1980030600
18C3FE0600
1863FC0600
1833000600
181B800600
180AC00600
0806C00600
0C06600600
07FC300600
03F8300600
0000180600
00000C0600
00000C0600
ENDCHAR
STARTCHAR uni092C094D0938
ENCODING -1
SWIDTH 897 0
DWIDTH 32 0
BBX 34 23 -1 0
BITMAP
FFFFFFFFC0
7FFFFFFF80
0000180C00
0000180C00
0000180C00
03E0180C00
07E0180C00
0C00180C00
1E00180C00
1B00180C00
1980300C00
18C3FFFC00
1863FFFC00
1833800C00
181B800C00
180EC00C00
0806C00C00
0C06600C00
07FC600C00
03F8300C00
0000300C00
0000180C00
00000C0C00
ENDCHAR
STARTCHAR uni092D094D092F
ENCODING -1
SWIDTH 827 0
DWIDTH 30 0
BBX 31 23 -1 0
BITMAP
F03FFFFE
783FFFFE
18003030
0C003030
0C003030
0C003030
0C003030
0C003030
0C07E030
0C07C030
0FFE0030
0FFE0030
0C060030
0C060030
0C060030
0C060070
000300F0
0001FFB0
0000FF30
00000030
00000030
00000030
00000030
ENDCHAR
STARTCHAR uni092D094D0932
ENCODING -1
SWIDTH 941 0
DWIDTH 34 0
BBX 35 23 -1 0
BITMAP
F03FFFFFE0
783FFFFFE0
1800000300
0C00000300
0C00000300
0C00000300
0C00000300
0C01F8FB00
0C03FDFF00
0C07070700
0FFE060300
0FFE060300
0C06060300
0C06060300
0C06060300
0C06020300
0806000300
0006000300
0006000300
0003000300
0001F00300
0000300300
0000000300
ENDCHAR
STARTCHAR uni092D094D0935
ENCODING -1
SWIDTH 755 0
DWIDTH 27 0
BBX 29 23 -1 0
BITMAP
F03FFFF8
783FFFF0
18000180
0C000180
0C000180
0C003180
0C01F980
0C030180
0C060180
0C060180
0FFE0180
0FFE0180
0C060180
0C060180
0C060180
0C060180
08060180
00030380
0001FF80
00003180
00000180
00000180
00000180
ENDCHAR
STARTCHAR uni092E094D0924
ENCODING -1
SWIDTH 765 0
DWIDTH 28 0
BBX 29 23 -1 0
BITMAP
FFFFFFF8
7FFFFFF8
0C000180
0C000180
0C000180
0C000180
0C000180
0C000180
0C01FF80
0C03FF80
0FFF0180
0FFE0180
0C060180
0C060180
0C060180
0C060180
00060180
00060180
00060180
00060180
00030180
0003E180
0000E180
ENDCHAR
STARTCHAR uni092E094D0926
ENCODING -1
SWIDTH 766 0
DWIDTH 28 0
BBX 29 23 -1 0
BITMAP
FFFFFFF8
7FFFFFF8
0C000080
0C000080
0C000080
0C000080
0C00FF80
0C01FF80
0C030000
0C020000
0FFE0000
0FFE0000
0C060000
0C060000
0C0600C0
0C0600C0
0C0200C0
000300C0
0001FFC0
0000FEC0
000000C0
000000C0
000000C0
ENDCHAR
STARTCHAR uni092E094D092A
ENCODING -1
SWIDTH 762 0
DWIDTH 27 0
BBX 29 23 -1 0
BITMAP
FFFFFFF8
7FFFFFF8
0C060180
0C060180
0C060180
0C060180
0C060180
0C060180
0C060180
0C060180
0FFE0180
0FFE0180
0C060180
0C020180
0C030380
0C01FF80
08003180
00000180
00000180
00000180
00000180
00000180
00000180
ENDCHAR
STARTCHAR uni092E094D092C
ENCODING -1
SWIDTH 768 0
DWIDTH 28 0
BBX 29 23 -1 0
BITMAP
FFFFFFF8
7FFFFFF8
0C000080
0C000080
0C000080
0C00F880
0C01F880
0C030080
0C078080
0C06C080
0FFE6080
0FFE3080
0C061880
0C060C80
0C060680
0C060380
08060180
00030180
0001FE80
0000FC80
00000080
00000080
00000080
ENDCHAR
STARTCHAR uni092E094D092D
ENCODING -1
SWIDTH 768 0
DWIDTH 28 0
BBX 29 23 -1 0
BITMAP
FFFC0FF8
7FFE0FF8
0C060080
0C030080
0C030080
0C030080
0C030080
0C030080
0C030080
0C030080
0FFFFF80
0FFFFF80
0C030080
0C030080
0C030080
0C030080
08020080
00000080
00000080
00000080
00000080
00000080
00000080
ENDCHAR
STARTCHAR uni092E094D092E
ENCODING -1
SWIDTH 759 0
DWIDTH 27 0
BBX 29 23 -1 0
BITMAP
FFFFFFF8
7FFFFFF0
0C020180
0C020180
0C020180
0C020180
0C020180
0C020180
0C020180
0C020180
0FFFFF80
0FFFFF80
0C020180
0C020180
0C020180
0C020180
08020180
00000180
00000180
00000180
00000180
00000180
00000180
ENDCHAR
STARTCHAR uni092E094D092F
ENCODING -1
SWIDTH 834 0
DWIDTH 30 0
BBX 32 23 -1 0
BITMAP
FFFFFFFF
7FFFFFFE
0C003030
0C003030
0C001030
0C001030
0C003030
0C003030
0C07E030
0C07C030
0FFE0030
0FFE0030
0C060030
0C060030
0C060030
0C020070
00030070
0001FFF0
0000FF30
00000030
00000030
00000030
00000030
ENDCHAR
STARTCHAR uni092E094D0932
ENCODING -1
SWIDTH 945 0
DWIDTH 34 0
BBX 36 23 -1 0
BITMAP
FFFFFFFFF0
7FFFFFFFE0
0C00000300
0C00000300
0C00000300
0C00000300
0C00000300
0C00F8FB00
0C03FDFF00
0C03070700
0FFE070300
0FFE020300
0C06020300
0C06020300
0C06020300
0C06020300
0806000300
0006000300
0002000300
0003000300
0001F80300
0000300300
0000000300
ENDCHAR
STARTCHAR uni092E094D0935
ENCODING -1
SWIDTH 761 0
DWIDTH 27 0
BBX 29 23 -1 0
BITMAP
FFFFFFF8
7FFFFFF8
0C000180
0C000180
0C000180
0C003180
0C01F980
0C030180
0C030180
0C060180
0FFE0180
0FFE0180
0C060180
0C060180
0C060180
0C060180
08020180
00030380
0001FF80
00003180
00000180
00000180
00000180
ENDCHAR
STARTCHAR uni092E094D0936
ENCODING -1
SWIDTH 884 0
DWIDTH 32 0
BBX 33 23 -1 0
BITMAP
FFE0F80F80
7FC3FC0F80
0C030C0C00
0C06060C00
0C06060C00
0C06060C00
0C06060C00
0C00060C00
0C00060C00
0C00060C00
0C000C0C00
0FFFFC0C00
0FFFF00C00
0C06000C00
0C06000C00
0C03000C00
0C01800C00
0001800C00
0000C00C00
0000600C00
0000600C00
0000300C00
0000180C00
ENDCHAR
ENDFONT
